<?xml version="1.0" encoding="UTF-8"?>
<svg id="Layer_2" data-name="Layer 2" xmlns="http://www.w3.org/2000/svg" viewBox="0 0 1195.7 1383.16">
  <defs>
    <style>
      .cls-1 {
        fill: #b11f24;
        stroke-width: 0px;
      }
    </style>
  </defs>
  <g id="Layer_1-2" data-name="Layer 1">
    <g>
      <path class="cls-1" d="M619.8,1026.2c-12.4,9.14-24.41,10.63-39.06,5.78-12.6-4.17-26.87-2.64-39.86-7.12-7.19-2.48-14.68-3.34-22.25-2.49-11.4,1.28-21.58-.48-27.81-10.05-4.27-2.03-7.34.72-11.6-.26-5.06-3.74-11.48-4.74-18.56-2.62-2.36.71-5.37.73-7.67-.1-30.96-11.09-62.11-21.01-88.94-41.86-14.73-11.45-31.63-20.58-47.03-31.54-8.52-6.06-17.28-12.14-20.99-22.6-1.46-4.12-5.64-4.09-8.07-6.46-1.82-2.59,1.46-6.13-2.51-8.46-21.14-2.3-18.21-24.06-29.63-35.81,7.46-3.54,12.35-2.53,17.22.88,9.91,6.93,19.93,13.69,29.92,20.49,7.7,5.24,15.67,8.39,24.16,2.76,11.5,1.21,16,12.73,25.78,15.93,9.46,3.09,20.43-1.32,28.99,6.32,4,4.7,1.68,11.89,6.16,17.44,5.7.49,11.58,2.18,17.34,4.4,2.71,1.04,6.12,2.67,8.48,1.87,20.19-6.86,35.46,6.94,52.75,12.06,2.8.83,5.45,2.19,8.69,3.52,2.75-.72,5.86-1.54,8.87-2.32,3.93-5.55,5.7-11.28,4.56-17.76-.88-5.02-.26-10.33,1.96-14.38,8.29-15.16,5.79-30.62.79-45.36-5.38-15.84-1.51-31.7-3.11-47.45-.26-2.56.46-5.2.53-7.81.53-19.6-4.53-21.13-19.17-21.9-17.14-.9-33.94-.09-50.73,2.61-19.57,3.15-38.98,1.93-58.49-.82-39.97-5.62-79.97-8.44-119.04,1.84-8.88-4.42-15.29-10.52-20.7-14.33-3.64-3.67-1.16-5.86-1.61-8.03-7.16-5-10.41-13.57-16.96-17.25-.79-5.01,3.51-5.89,3.95-9.72-5.29-3.47-10.66-6.99-15.66-10.28-4.23,1.5-6.08,3.84-5.96,7.26.66,4.35,5.22,5.23,6.79,9.17-.25,2.67-.54,5.86-.88,9.57,6.09,5.6,16.9,7.82,14.96,18.58,3.33,5.6,8.91,4.96,14,7.18-12,20.49,2.3,38.37,4.4,58.31-9.38-17.78-34.1-20.82-39.43-42.62-17-12.06-26.7-29-31.76-47.01-17.22-14.53-18.06-35.64-27.76-51.48,7.96-17.4,0-32.5-3.31-48.1-18.84-14.75-20.04-34.45-15.77-53.64-3.84-18.58-18.5-32.5-11-50.66-5.08-5.34-12.41-3.94-16.39-9.46.21-7.03,7.19-11.71,7.36-18.63.18-6.93-2.16-13.47-5.82-20.87,13.64-18.7,11.62-39.02,1.62-57.04,4.14-8.36,11.99-8.66,14.88-14.41-.27-4.32-5.43-4.91-6.06-8.7.14-.62.09-1.58.47-1.8,13.52-7.73,15.76-18.98,13.9-33.95-2.34-18.83,8.95-35.01,14.44-51.83q13.87-8.78,17.96-36.11c8.17-6.48,11.13-16.73,15.2-26.29,3.55-8.35,9.15-13.61,18.61-13.05,13.4.78,21.06-5.52,25.51-17.93,2.31-6.44,4.46-14.14,12.55-16.44,4.43-1.26,8.93-1.42,13.34.92,4.02,2.13,8.26,3.91,12.58,4.05,37.36-20.04,27.52-16.54,28.91-48.53-7.07.13-11.51,9.43-20.24,5.56-.36-8.7,2.5-16.42,7.66-23.31,12.32-16.44,25.43-32.27,33.19-51.75,3.35-8.42,10.35-13.98,19.22-17.09,18.28-6.41,34.81-16.48,51.9-25.36,5.02-2.61,10.16-4.21,15.93-3.98,8.48.34,16.94.66,23.58-6.54,1.49-1.61,4.94-2.36,7.3-2.05,12.23,1.6,20.78-4.63,27.99-13.09,7.77-9.12,17.02-14.91,29.04-16.35,4.19-.5,8.31-1.88,11.87-4.37,23.05-16.14,49.16-20.12,76.45-18.95,12.86.55,25.4-1.7,38-3.46,9.82-1.38,19.53-1.61,29.24.31,10.98,2.17,22.09.54,32.95,1.04,16.85.77,33.79,1.77,50.54,2.96,13.79.98,28.95,7.4,39.34,19.61,5.66,6.65,13.06,9.13,22,7.96,8.37-1.1,16.46.06,22.28,8.25,12.99-1.83,26.16-3.82,38.47,1.9,12.04,5.59,24.32,10.47,36.68,15.24,6.05,2.33,9.79,7.27,11.12,13.97.75,3.8,2,7.63,6.94,11.62,27.33-2.81,44.12,16.06,60.55,35.75,5.93,7.11,12.94,12.47,22.63,14.4,9.89,1.97,15.28,9.97,18.41,18.79,3.22,9.09,9.16,15.34,16.31,21.4,9.83,8.33,20.79,16.29,21.8,31.75,11.46,1.13,15.26,10.13,20.62,18.51,8.77,13.7,19.1,26.42,28.95,39.42,18.54,24.45,35.05,50.09,46.24,78.83,2.04,5.23,4.23,10.26,8,14.45,2.77,3.08,4.29,6.64,3.82,10.75-2.26,19.8,4.76,38.63,6.16,58.08.53,7.38.85,14.04-1.89,20.89-2.09,5.21-3.56,10.56-.06,15.93,12.73,19.52,13.08,41.24,10.86,63.29-.69,6.89-.89,13.57.31,20.44,4.6,26.21-3.48,50.41-12.29,74.47-8.4,22.98-16.63,46.03-28.65,67.48-1.99,3.55-2.91,7.26-1.37,11.27,1.71,4.44,2.03,9.32.5,13.51-6.9,18.98-11.31,39.42-28.83,52.62-4.74,3.57-8.82,7.85-11.62,13.12-8.6,16.2-24.85,25.05-37.08,39.78-.71,8-6.74,14.06-15.51,20.44-.55-10.67,2.13-20.75-4.41-28.56,6.29-15.63,12.94-29.87,27.36-39.21,7.01-4.54,6.44-12.69.16-20.08,4.89-6.88,10.9-13.24,14.42-20.76,5.03-10.75,9.06-21.77,17.67-30.52,3-3.05.92-7.43-.99-11.02-2.28-4.28-5.25-8.39-4.1-13.97,12.55-14.13,9.38-31.21,8.11-48.87,24.17-20.84,18.02-51.76,23.92-78.88,3.99-18.33,3.28-37.6,4.5-56.24,1.36-20.78,1.77-43.55-7.96-63.43-11.02-22.5-14.37-46.64-18.41-70.74-1.41-8.4-3.62-15.96-13.21-19.74-3.32-39.42-38.37-63.64-47.01-99.02-3.95-3.81-7.65-1.82-11.24-3.6-1.54-1.65-3.53-3.78-5.06-5.42-2.16-4.55.75-9.26-2.58-13.12-4.82-3.77-10.43-1.51-17.18-1.1-7.63-9.11-16.01-18.55-23.74-28.49-7.79-10-23.93-10.87-27.83-26.05-19.31-1.19-40.37.03-53.47-23.3.44.27-1.1-1.34-2.87-1.67-24.67-4.57-40.36-22.82-58.06-37.98-2.81-2.41-5.6-4.57-9.37-4.8-15.53-.97-28.98-7.15-41.13-16.45-2.57-1.97-5.4-2.11-8.3-2.34-21.24-1.67-41.38-8.63-62.11-12.74-11.52-2.28-23.34-3.44-34.6-6.62-20.54-5.82-40.12,1.26-60.1,2.95-5.2.44-10.21.73-15.51-.37-5.64-1.17-11.18.3-16.95,2.59-16.94,6.75-34.41,11.82-52.34,15.81-12.79,2.85-27.68,1.12-37.61,13.45-3.21,3.98-9.23,4.24-14.41,5.38-14.47,3.19-30.06,3.97-40.6,16.83-.98,1.19-2.62,2.07-4.13,2.55-15.81,5.09-29.94,15.88-46.36,17.55-16.24,1.65-24.74,11.33-33.16,22.58-3.5,4.69-8.07,7.55-13.41,9.4-7.63,2.64-12.43,8.01-15.58,15.28-10.28,23.75-26.14,43.95-41.24,64.64-1.92,2.63-4.86,5.07-5.48,7.98-3.64,17.11-15.4,28.64-27.6,39.36-10.12,8.89-12.77,22.01-20.62,31.76-9.44,11.73-13.36,26.47-23.63,37.93-6.49,7.24-2.49,19.74-5.96,29.28-4.99,13.74-5.16,28.93-12.93,42.51,1.16,7.26-.19,14.97-1.93,22.62-2.45,10.74-6.05,21.28-.78,32.43,1.34,2.84.57,7.28-.52,10.56-6.1,18.33-4.77,37.44-6.67,56.22-1.04,10.25,1.71,19.25,5.61,28.37,3.73,8.7,7.09,17.57,10.15,26.52,2.78,8.14,2.94,16.12.62,24.89-3.52,13.28,2.46,26.35,4.06,39.54,1.06,8.69,3.23,17.26,4.61,25.96,2.02,12.77,11.66,21.58,20.24,30.4,3.6,3.7,8.62.37,12.34-1.49,4.6,1.76,8.53,3.26,12.68,4.84,2.49-1.64,4.88-3.22,7.67-5.06,11.36,3.35,23.11,2.5,34.86,1.9,22.29-1.14,44.52,1.85,66.99-3.58,12.73-3.08,27.2,1.12,40.9,1.88,4.83.27,9.72,1.37,14.85-.25,2.69-13.08-8.91-15.53-15.81-20.61-2.33-10.24-.85-18.64,5.86-26.22,8.45-9.55,10.62-22.24,16.14-33.16-1.34-3.43-2.51-6.43-3.22-8.25,12.34-30.57,27.9-58.86,30.49-94.05-8.48,6.77-11.61-4.07-18.73-1.74-2.37,2.61-5.15,5.68-7.6,8.37-4.09.54-6.32-.97-8.13-4.58,2.86-10.51,4.59-21.5-6.99-28.48,1.83-6.96,8.42-8.64,10.76-13.95-.59-8.3-7.94-13.18-11.05-21.14.96-3.16,2.07-6.83,3.12-10.31,13.03-6.64,26.03-12.4,34.59-23-.71-3.8-2.23-4.84-4.11-5.72-12.66-5.95-20.15-15.09-25.63-28.79-5.46-13.66-10.89-26.9-13.46-41.45-2.7-15.27-3-31.17-.84-45.72,2.67-18.05,14.19-33.18,33.53-39.3,9.99-3.16,17.78-9.19,24.17-17.57-19.87-17.81-21.26-39.7-16.25-63.58,2.51-11.94,4.4-24.3-2.59-35.8-1.7-2.8-3.18-5.78-1.12-10.04,18.41-8.51,38.9-10.5,59.25-11.52,11.95-.6,22.03,7.39,32.47,12.69,2.35,1.19,4.26,3.49,4.5,6.16,1.44,15.81,5.06,31.78-3.03,47.03-3.52,6.63-7.06,13.29-9.96,20.21-2.81,6.69-4.78,13.71,1.11,20.31,9.04,1.97,19.21-2.81,26.86,4.77,31.77-7.2,60.11-23.26,91.57-29.3,10.8-15.22,21.59-30.04,42.52-29.68,5.38,2.22,2.37,7.84,4.81,11.15,4.58,1.31,9.01-2.6,15.35.91,4.24,17.24,3.05,34.32-11.08,49.12,3.87,8.14,7.49,15.74,11.48,24.13,15.52,1,30.78,3.95,45.71,8.73,5.68,1.82,9.47,4.6,12.3,10.03,6.54,12.58,17.54,21.82,26.18,32.86,3.37,4.31,5.38,8.39,5.48,14.08.16,8.44,1.82,16.84,2.48,25.29,2.13,27.37-4.06,53.78-20.76,74.55-14.76,18.36-36.54,28.32-61.13,33.1-20.56,3.99-40.79,3.36-58.52-3.9-19.98-8.17-38.24-21.93-51.32-40.52-1.1-1.57-1.28-3.8-2.4-5.34-19.23-26.51-11.74-55-6.43-83.4.9-4.82,5.55-8.28,4.57-13.73-3.32-2.5-6.03-1.15-9.24,1.74.92,12.33-5.52,21.75-14.49,30.17-7.98-.78-14.57,3.37-22.73,5.09-1.24,15.61-14.42,30.52-3.14,46.56,13.63,19.38,17.18,44.02,34.2,61.72,17.98,18.69,24.94,42.33,26.1,67.91.31,6.84,1.29,13.66,2.01,20.93,8.72,9.75,9.93,22.94,11.01,35.13.9,10.15-8.61,15.94-17.87,19.75-4.4,32.09-11.98,64.75,23.59,85.06-1.18,5.9-2.13,10.64-3.17,15.8,1.59.39,2.79,1.02,3.93.91,36.43-3.47,73.21.45,109.54-5.25,13.52-2.12,26.42,3.23,39.85,3.66,15.1.49,30,0,44.93-1.8,23.43-2.81,46.79-4.31,70.18.77,8.71,1.89,17.67.29,26.37-.8,22.15-2.75,44.7-1.7,66.43-.25,20.14,1.34,39.4-2.54,59.07-1.96,2.25.07,4.49.58,6.35.83,2.74,2.21,4.09,4.74,5,7.23-.16,4.03-4.95,3.25-5.92,6.57-1.82,2.86,2.4,4.95,1.44,8.39-2.45,1.6-5.15,3.37-7.99,5.23-4.61,10.17-13.46,17.29-19.37,26.54-3.21.73-6.04,1.38-9.11,2.08-1.52,2.71-3.09,5.5-4.95,8.82-11.2.8-22.44,3.92-33.26-2.5-2.87-1.7-6.17-1.65-9.53-1.06-8.17,1.44-16.22,1.37-24.02-2.16-2.01-.91-4.92-1.99-6.58-1.21-21.56,10.06-44.59,1.69-66.78,5.61-23.09,4.08-46.73,5.03-70.1,7.6-8.32.91-16.27-.93-24.28-2.27-7.3-1.22-14.25-.61-21.84,1.99-2.89,11.3-2.67,22.28,3.44,32.63-1.3,3.36-2.46,6.37-3.15,8.16,1.09,16.44,1.52,31.54-2.84,47.25,1.34,4.4,2.96,9.68,4.63,15.17-1.98,3.81-3.92,7.52-5.53,10.62.61,13.38,9.86,23.35,10.45,37.32,14.16,1.08,26.22-4.32,35.85-12.59,10.41-8.94,21-13.03,34.64-15.33,15.56-2.62,32.04-8.31,41.57-23.24,6.5-10.18,15.75-14.45,27-14.91,14.63-.6,27.18-6.52,40.64-11.52,16.39-6.07,29.58-19.47,47.37-19.55q17.26-30.61,26.6-35.06c-.29,17.69,5.83,34.93-5.17,51.42-7.05,10.56-12.49,22.18-18.72,33.29-2.6,4.63-5.99,8.55-10.78,11.1-24.24,12.93-47.12,27.99-66.29,47.72-13.93,14.34-33.1,17.83-49.48,26.99-13.31,7.44-27.95,10.52-42.97,12.21-2.55.29-5.29.94-7.45,2.24-25.61,15.39-53.98,18.37-83,19.3-18.46.59-37.18-1.38-55.07,6.34-8.25,3.56-17.33-2.42-26.52-.69ZM463.28,425.27c.69-.63,1.39-1.26,2.08-1.89l.41-.18s-.24.34-.25.34c-.7.62-1.41,1.24-2.11,1.86l-.13-.13ZM494.72,452.74c.6-1.94,1.19-3.88,1.79-5.81l.3-.34-.25.27c-.62,1.98-1.25,3.97-1.86,5.95l-.18.3.2-.36ZM455.69,464.87c-2.25,1.22-2.09,3.43-2.24,5.51-.24.46-.47.92-.42.82-.03.1.12-.42.28-.94,2.18-1.26,1.81-3.55,2.23-5.52.2-.45.41-.9.37-.82.01-.06-.1.44-.21.95ZM484.9,352.93c-.61.72-1.9,1.25-.62,2.69.19-1.08.35-1.94.5-2.81l.12.12ZM506.63,335.29c1.52-1.2,4.02-1.73,3.22-4.7-2.47.78-3.47,2.32-3.08,4.76l-.14-.06ZM478.96,276.09c2.95-.25,5.42-1.04,6.04-4.92-3.5.64-4.73,2.83-5.92,5.06-.7.73-1.4,1.46-2.1,2.18-7.99,4.45-7.86,14.59-14.03,20.26-3.32.5-6.48.5-9.57-.64-.15-2.71-.92-4.86-4.4-5.11.63,2.85,2.76,3.75,4.54,4.98-.32,2.91-.8,5.85,2,8.78,2.22,1.28,5.01,2.88,7.54,4.33,5.67,15.43,9.55,30.98,13.16,46.7-1.12-26.65-11.75-53.06.63-79.44.7-.73,1.4-1.46,2.11-2.19ZM463.35,456.7c2.66-5.37,6.02-10.5,5.65-16.87-3.31,5.18-5.95,10.59-5.53,16.99l-.12-.12ZM443.67,354.84l.12-.11c1.76,5.4,3.99,10.44,10.06,12.51-1.8-5.38-4.32-10.2-10.18-12.39ZM475.09,631.35c-6.81,1.48-13.63,2.97-20.44,4.45,7.85,2.59,15.37,3.9,20.34-4.57.7-.04,1.79.34,1.26-1.18-.43.48-.79.89-1.16,1.3ZM485.81,600.85c8.76,18.87.51,38.45-22.89,53.61-8.13-2.87-16.51.71-24.69,1.28-23.22,32.58-25.53,50.15-9.66,72.99,7.17.82,14.65,1.39,22.04,2.56,12.99,2.06,25.85,4.1,37.5-4.68,2.18-1.64,5.03-1.12,7.63-.76,17.82,2.48,35.67,2.38,53.92.78-.82-16.16-14.93-18.53-27.35-24.63,7.2-20.35,14.28-40.53,6.43-62.25-10.95-1.06-20.41-5.63-28.55-13.53.08-8.89-3.77-17.91,2.05-26.15-3.32-7.07-2.45-15.26-8.95-21.76-2.69,8.1-5.12,15.42-7.47,22.52ZM419.76,402.74c-2.19-2.17-1.11-5.18-.3-7.78,3.2-10.21,3.3-20.58,1.88-31.02-1.91-13.99-7.47-27.48-4.98-42.11.55-3.21-1.15-7.11-2.66-10.29-3.31-6.92-8.37-9.49-15.93-5.65-16.09,8.18-23.29,26.58-15.83,42.91,2.62,5.73,3.05,10.8,1.75,16.9-5.43,25.46,8.3,56.18,29.86,67.39,1-.17,2.3-.29,3.54-.63,31.52-8.66,57.74-27.05,83.39-46.2,11.17-8.33,20.93-17.71,35.79-20.41,12.39-2.25,17.18-13.62,13.64-25.77-11.53-4.84-22.03-4.28-30.71,6.06-3.14,3.74-6.71,7.16-9.54,11.11-3.25,4.54-7.22,7.09-12.8,8-15.82,2.56-31.17,7.22-46.4,12.03-12.23,3.86-24.38,8.57-27.14,23.7-.2,1.12-1.27,2.28-3.57,1.75ZM514.26,548.63c-9,17.49-17.2,34.02-2.52,51.92,19-5.29,39.26-7.19,58.11-9.65,2.7-2.6,2.9-4.58,2.81-6.53-.8-17.91-1.61-35.83-2.56-53.73-.12-2.24-.6-4.66-1.64-6.61-12.37-23.28-30.02-42.56-47.97-61.45-6.47-6.8-15.75-3.83-23.09-.66-6.68,2.88-7.75,9.5-6.53,16.76,1.39,8.34,1.59,16.87,2.45,25.3.99,9.71,2.15,19.4,3.51,31.49,6.81-10.65,6.61-21.55,14.23-30.33,3.51,9.32-3.84,16.5-1.99,24.52,5.85-1.62,7.14-9.71,15.68-9.08-8.57,12.03-18.48,21.79-22.64,35.99,4.06-2.29,4.53-6.92,12.15-7.96ZM471.92,612.82c12.77-23.18,17.27-97.86,8.17-128.68-6.25,16.25-12.71,30.7-21.62,44.68-.43-10.07-4.84-17.96-10.89-24.46,7.97-10.75,17.6-19.3,17.01-32.82-11.73,21.53-27.58,40.48-39.76,61.86,7.03,3.13,13.48-3.2,18.93,2.38-4.05,4.34-11,2.11-14.79,7.24,4.65,2.39,9.78-.68,13.99,3.03-4.85,5.16-12.45,2.45-16.86,6.84.42,7.93,10.9,5.48,12.38,12.37-5.52,2.63-13.26-2.99-16.39,3.99-4.72,10.52-8.23,21.58-12.71,33.63,22.19,3.55,42.2,8.68,62.54,9.93ZM514.42,316.45c9.04-4.31,18.68-7.14,27.12-12.94,6.95-4.78,13.72-10.45,21.45-13.36,20.41-7.68,38.92-18.25,54.97-32.88,5.89-5.37,11.98-7.17,19.64-5.94,5.34.86,10.94,2.3,15.98-.92,3.13-11.4,3.12-17.11.05-24.59-3.88-2.33-9.31,2.05-12.44-2.6-1.32-4.25,3.86-5.11,3.87-8.53q-12.79,3.06-27.14,23.94c-40.19,9.53-71.58,22.54-81.55,33.87-2.71-.79-5.47-2.27-8.23-2.27-7.67.01-16.37-1.57-21.41,6.2-6.26,9.65-2.43,30.61,7.68,40.03ZM460.74,197.88c5.14-.39,7.27,2.95,10.99,1.61,2.42-6.79.75-13.86-.06-20.82-.42-3.59-3.18-5.77-6.66-6.33-14.23-2.26-28.4-2.78-42.23,1.28-3.02,6.75-4.58,12.92-3.37,19.15,4.21,6.13,10.75,5.93,16.25,6.96,3.93,11.52-.61,22.27-1.83,33,5.06.35,4.38-5.09,9.03-4.73,6.91,5.62-3.58,12.89,1.98,19.27-3.5,2.56-6.4,4.68-8.47,6.19-.92,5.83-.54,9.8,3.67,11.52,24.37-4.42,32.83-22.28,38.62-42.5-2.19-3.49-5.15-5.33-9.03-6.76-7.75,2.9-15.61,11.49-24.54,2.74-5.23-5.12-5.02-11.55-1.22-18.61,6.56,2.72,12.16-.63,16.86-1.97ZM624.89,270.82c-13.02,4.58-23.46,10.87-33.29,18.45-5.9,4.55-11.13,10.16-18.3,12.86-12.65,4.77-22.72,14.52-35.87,18.41-2.22.66-4.61,2.58-4.69,5.69,12.72,6.97,42.21,2.58,53.01-8,11.23-11.01,19.88-25.42,37.77-26.57.49-7.46.89-13.51,1.37-20.85ZM390.99,534.21c25.91-30.17,49.5-59.48,67.7-92.76-19.39,22.96-39.58,45.16-61.05,66.05-7.68,7.47-9.51,14.67-6.65,26.71ZM578.39,385.19c-16.67,27.25,11.28,76.2,47.59,86.71.97-1.45,2.32-2.91,2.99-4.64.54-1.39.27-3.09.34-4.3-37.63-12.43-49.15-41.7-50.93-77.77ZM735.69,433.41c-11.99,12.37-17.78,30.2-37.57,30.34-16.34.12-31.62,9.91-48.51,5.83-2.25,2.74-3.55,5.14-1.74,8.11,25.52,11.25,90.31-17.32,87.82-44.28ZM393.75,499.44c12.71-16.64,30.93-27.69,37.94-49.46-15.82,9.43-28.15,21.68-44.22,28.33-1.79,7.78-.89,14.34,6.29,21.14ZM727.9,426.67c8.55-13.54,15.1-27.59,11.63-44.3-4.66-1.16-7.91-.1-12.28,3.29.61,12.88-5.23,25.62-8.89,37.68,2.93,3.84,5.37,4.19,9.54,3.33ZM740.23,342.24c-11.89-18.36-53.8-41.62-65.73-38.36,20.2,15.9,44.9,23.89,65.73,38.36ZM436.32,488.54c-13.49,14.89-22.64,31.39-33.62,47.17,13.64,3.15,34.94-26.94,33.62-47.17ZM649.78,306.29c-21.9-8.55-53.84,16.03-62.12,37.16,20.44-12.05,33.83-36.62,62.12-37.16ZM702.53,337.07c11.97,9.03,15.69,23.78,24.59,34.56,3.92,1.4,7.25,1.35,10.54-2.82-9.91-12.42-13.73-31.15-35.13-31.74ZM710.04,433.46c-6.14,1.31-7.98,7-12.05,10.09-4.76,3.61-10.91,1.59-15.82,4.24-3.03,1.64-4,4.09-2.22,7.26,10.91,2.72,30.4-5.05,37.38-14.88-1.38-3.06-3.35-5.51-7.28-6.71ZM637.22,265.48c-2.04,7.48-2.06,15.27,0,23.16,5.74,1.12,10.8,1.87,16.15-1.1.06-7.88-1.76-15.19-5.49-21.62-3.71-1.54-6.76-2.55-10.67-.43ZM602.47,406.14c-2.71-8.01-5.07-16.3-6.24-25.06-1.23-9.18,10.24-14.73,6.68-24.89-12.33,7.8-15.59,36.61-7.4,56.29,3.5.13,5.12-2.15,6.96-6.34ZM518.04,611.52c15.82,6.06,32.34,7.14,48.77,8.53,11.01.94,16.64-4.28,18.39-16.32-4.24,1.62-4.45,6.62-8.31,8.84-19.35,2.4-39.05-.53-58.85-1.05ZM474.67,248.34c-.02,18.86-18.71,13.74-26.54,24.29,5.75.24,9.25-6.23,13.82-1.34,1.22,5.8-5.47,6.95-6.66,12.53.21,1.77.97,4.3,4.89,6.55,1.66-10.66,8.22-17.68,15.25-24.47,4.67-4.5,4.48-9.65-.76-17.57ZM423.04,242.8c3.97-7,.98-15.47,6.97-22.2-4.95-1.25-8.84-2.23-13.15-3.32-1.47,14.61-2.23,28.27,7.32,40.41q4.14-5.41-1.14-14.89ZM631.88,324.82c-18.15,9.22-24.74,16.29-20.85,23.47,8.86-3.52,17.45-7.45,24-14.24.3-3.76-.66-6.38-3.14-9.23ZM665.95,449.35c-7.59,2.69-14.97.69-22.61-1.3-6.82-1.78-12.99-7.97-21.06-3.76,13.44,9.59,29.88,9.03,43.67,14.91,3.07-3.87,3.2-6.18,0-9.85ZM571.67,599.51c-13.34-3.84-25.9.3-38.56,3.4,13.05.87,26.7,7.88,38.56-3.4ZM549.22,624.75c-13.71-.83-24.77-3.82-37.05-2.09,7.4,10.51,17.74,11.16,37.05,2.09ZM744.59,415.08c11.65-18.53,12.75-49.87.6-57.66,11.01,19.18,4.74,37.75-.6,57.66ZM668.15,326.87c7.37.05,13.81,6.12,23.56,2.79-8.27-4.92-13.43-11.93-22.32-10.46-2.56,2-2.58,4.11-1.24,7.68ZM405.82,616.65c12.24,3.45,24.12,1.83,35.95-1.21-11.98,3.08-24.18-4.02-35.95,1.21ZM612.88,436.98c3.23-8.42.28-12.9-6.03-16-3.17.1-5.28,1.2-6.4,4.57,2.03,4.86,5.31,8.81,12.43,11.44ZM424.48,630.18c-8.45-.24-17.48-6.18-24.98,2.75,8.52.98,16.85.05,24.98-2.75ZM430.63,644.64c9.09.98,18.07,4.95,27.18,1.04-8.99-2.75-18.09-2.81-27.18-1.04ZM659.99,389.4c2.72-2.46,4.48-5.43,3.64-9.75-5.28-2.21-7.9.19-9.69,4.28,1.14,2.88,2.45,4.96,6.05,5.47ZM484.08,456.61c-8.65,3.02-11.5,7.79-9.14,17.39,3.38-6.44,5.96-11.35,9.14-17.39ZM458.41,507.82c7.33-5.85,7.37-6.01,3.41-13.28-2.47,3.99-7.86,6.58-3.41,13.28ZM512.08,388.07c-6.21,3.26-11.46,7.62-15.38,13.45,6.85-2.45,12.46-6.35,15.38-13.45ZM645.69,354.7c-6.59-.86-9.16.93-8.97,6.68,5.45,1.2,7.05-1.88,8.97-6.68ZM687.36,381.03c-2.93,4.27-3.43,7.74,0,11.81,4.46-4.15,4.33-7.61,0-11.81ZM461.41,624.4c5.54.45,10.96,1.24,15.81-1.61-5.54-1.09-10.81-.08-15.81,1.61ZM629.22,384.55c-2.5,5.52-5.2,8.66-.15,12.2,3.75-3.09,2.58-6.26.15-12.2ZM665.32,227.22c-1.76,5.27-2.73,8.94-.79,14.77,2.65-5.18,3.96-8.8.79-14.77ZM676.44,354.89c-3.36-3.22-5.95-2.72-9,.33,3.39,3.65,6,3.46,9-.33ZM452.89,210.44c3.2,1.25,6.42,1.24,11.14-.65-4.93-1.94-7.98-.74-11.14.65ZM436.75,453.35c2.12-1.17,5.58-2.2,3.43-6.03-1.26,2.21-2.34,4.12-3.43,6.03ZM583.45,592.68c-3.44,1.01-4.73,2.51-3.82,5.55,2.82-.54,4.23-1.81,3.82-5.55ZM444.22,477.78c-1.63,2.3-2.52,3.82-.26,5.82,1.11-1.8,1.72-3.33.26-5.82ZM650.16,327.32c3.16-2.77,3.71-4.51-.72-5.43-2.06,1.66-2.06,3.16.72,5.43ZM476.05,420.05c-1.23,2.11-.76,3.7,1.06,5.71,1-2.8.88-4.48-1.06-5.71ZM507.85,405.32c-3.34.42-5.21,1.09-6.18,3.78,3.16.83,4.82-.06,6.18-3.78ZM501.71,418.2c2.46,1.17,4.15,1.26,5.47-1.55-1.95-.59-3.55-.98-5.47,1.55ZM502.38,429.36c.79,1.31-.21,4.07,3.25,3.57-.03-1.94-.6-3.39-3.25-3.57ZM427.83,208.32c-1.18-2.04-2.57-3.33-5.1-1.48,2.04.59,3.57,1.04,5.1,1.48ZM452.9,436.16c-1.72,1.62-3.08,2.44-2.27,4.79,1.57-.7,2.51-1.59,2.27-4.79ZM461.99,364.53c1.31-1.63,1.06-2.7-1.08-3.24-1.63,1.75-.68,2.59,1.08,3.24ZM578.18,364.32c.79-1.16,3.58-1.89,1.48-4.26-1.96.61-2.29,2.07-1.48,4.26ZM646.85,410.15c1.56,1.54,2.7,1.64,4.52-.08-1.53-.5-2.08-2.62-4.52.08ZM675.82,406.58c-.5.02-1,.03-1.51.05-.08.76-.48,1.73-.16,2.25.52.84,1.65.9,2.09-.13.24-.56-.26-1.43-.42-2.16ZM480.22,240.03l.66.37.08-.6-.74.23Z"/>
      <path class="cls-1" d="M1176.81,1304.58c-9.91-.96-19.66-.37-24.73,9.65-10.2-1.94-16.26-8.81-17.32-17.91-1.79-15.4.93-30.49,2.67-45.66-7.29-11.21-6.67-13.76,5.13-20.39,5.96-3.35,11.99-6.58,17.62-9.66,4.97-1.6,11.81,4.36,14.5-4.9-15.79-5.77-27.91,5.47-42.15,8.67-4.15,6.64.32,16.72-6.1,22.14-5.09,1.86-6.73-2.51-9.8-2.94-1.98.8-3.72,1.65-4.4,4.3,2.11,4.56,9.7,2.03,11.3,8.45-4.24,7.07-13.37,10.18-18.39,18.06,6.05,3.4,13.3-8.88,18.07,2.82-1.68,3.12-3.65,6.8-5.65,10.51,6.38,13.73,4.46,17.76-10.85,20.72-4.32.83-7.52,3.81-12.25,4.8-9.26-7.09-1.3-17.72-4.41-25.87-4.58-.88-6.13,4.36-10.57,3.79-4.25-6.57-3.7-12.78,1.3-19.3,3.12-4.07,7.54-8.96.48-13.72-9.44,2.99-9.01,14.67-17.39,18.32-4.29-1.78-7.52-4.92-10.51-7.8-1.34-3.92-.17-6.77,2.87-9.75,8.67.96,12.7-5.66,16.4-12.26,7.5-13.38,14.5-27.05,22.08-40.38,3.39-5.97.72-12.95,3.4-18.67,9.82-2,11.58.63,14.38,21.06,8-1.21,15.45.27,21.5,6.85,4.05-1.8,7.85-3.48,11.61-5.15.31-3.51-3.76-.8-3.62-2.49-2.05-4.05,2.45-5.79,1.71-8.89-1.29-5.13-6.54-9.33-3.76-15.5,12.52-7.6,20.96-.94,23.96,19.12,3.88,2.62,8.11.51,12.18.48,3.88-.03,7.76-.37,11.44-.57,5.9,5.15,8.09,11.23,8.22,19.78-17.52-4.25-22.76,9.33-30.54,20,1.45,2.64,2.84,5.16,4.27,7.75-.25,5.02-5.92,6.75-7.33,12.22,6.12-.91,12.29-1.91,15.88,4.49,2.72,7.6-4.07,11.75-6.52,17.31,1.08,4.07,5.59,3.38,7.53,6.01,3.19,4.71,2.57,9.11-2.17,14.51ZM1116.18,1223.08c-4.82,4.39-6.85,7.2-3.45,12.96,3.45-3.51,4.71-6.5,3.45-12.96ZM1159.94,1278.74q-7.5,3.6-7.97,9.01c3.36-1.94,7.05-3.29,7.97-9.01ZM1101.6,1232.52c-4.79,4.2-8.37,5.82-8.51,11.76,4.59-2.34,6.97-4.81,8.51-11.76ZM1091.9,1267.55c-2.84,1.39-3.17,2.93-1.51,5.31,2.17-1.31,2.8-2.71,1.51-5.31ZM1152.79,1241.03c-2.13.23-2.94.85-1.96,3.07.93-.65,2.19-.61,1.96-3.07ZM1150.1,1262.22c1.35-1.12,1.81-2.23.69-2.57-1.03-.31-1.43.8-.69,2.57ZM1104.73,1286.82c-.69.91-.98,1.29-1.27,1.68l.65.45c.14-.47.28-.94.62-2.12ZM1106.06,1260.54c1.76-.46,2.06-1.3,1.13-1.81-.89-.49-1.53.2-1.13,1.81Z"/>
      <path class="cls-1" d="M864.26,1322.21c-13.34-7.85-24.58-24.79-21.33-32.14-1.37-2.91-5.69-3.27-6.45-7.67,2.06-4.46,6.13-6.93,11.37-6.1,6.14.97,9.27,5.42,10.1,10.04-.05,5.31-4.74,5.77-5.68,9.29.93,5.24,5.24,4.43,9.55,5.35,6.17-9.08,1.89-19.34,5.41-29.15-18.9-5.23-32.37,7.96-47.76,10.34-4.99,9.84,2.82,19.89-2.25,29.96-9.05-1.97-12.22-8.07-12.39-16.14-.25-11.68-.06-23.37-.06-35.17-8.67-2.27-17.65.41-22.56-7.69-1.68-2.77-1.58-5.53.76-8.73,7.45-.48,15.11-1.84,20.86-9.07,1.85-9.55,2.28-19.8,1.24-32.01,16.87,3.76,19.78,15.79,20.45,30.4,7.34-6.69,5.43-16.92,14.47-20.14-3.49-2.91-7.57-4.71-6.25-9.99,3.69-3.33,9.97-2.58,13.5-7.67,1.61-2.71-2.73-4.71-1.65-8.56,6.57-5.27,12.66-1.13,18.96,2.22,3.72-1.56-1.16-5.74,4.88-8.63,6.77-2.99,8.76-2.26,12.48,6.81-.12,3.52-4.11,3.97-5.36,6.76.61,2.04,1.23,4.14,1.73,5.83-2.21,4.59-7.6,3.02-10.24,6.8,2.46,2.24,6.58.32,8.72,3.36,9.41,13.69,3.32,29.41,4.5,44.53,6.07,1.04,11.44,1.97,16.87,2.9,1.81,5.67,1.84,10.53-1.94,14.97-5.74.13-10.76-3.44-17.62-2.17-4,16.93,8.77,39.14-14.28,51.46ZM867.41,1247.2c7.15-8.16,2.43-17.73,2.89-26.65.09-1.79-2.94-1.9-5.22-.13.21,4.34,2.46,9.27-1.89,13.6,5.41,3.5,4.48,8.52,4.34,13.33-2.98-.59-5.78-.48-8.17,2.47-.69,2.87-2.51,6.05.31,9.81,5.27-2.88,2.28-10.38,7.74-12.43ZM834.28,1261.29c-8.55-.82-8.8-8.02-9.69-14.72-7.83,6.02-8.69,10.48-4.62,22,9.29-.61,18.07-3.59,26.36-6.35,2.14-3.53,2.1-6.12.71-7.35-8.3-3.72-8.3,4.52-12.76,6.42ZM844.65,1241.69c-1.62-1.35-2.65-1.15-3.11,1.01,1.54.78,2.61.67,3.11-1.01ZM845.04,1230.49c-.65-1.51-1.38-1.25-2.09-.68-.15.12-.07.51-.1.78.68-.03,1.36-.06,2.19-.1Z"/>
      <path class="cls-1" d="M716.43,1253.11c5.83,1.16,8.84,5.01,10.17,10.21-1.93,8.32-9.35,7.28-14.62,9.11-5.33,8.07.6,18.78-6.9,26.22-11.53,1.2-13.31-10.1-19.64-15.13-4.03-1.01-6.11,1.68-7.02,2.44-3.79,4.46-.48,8.89-4.69,12.06-10.42-.64-10.01-10.35-13.06-17.69-2.79,2.16-5.28,4.09-7.81,6.05-5.46-2.88-5.97-7.71-6.88-12.46,5.33-7.77,11.7-14.45,15.36-22.89-12.84-6.66-13.82-10.47-4.86-21.99,5.43-6.99,10.38-14.23,14.94-21.8,1.95-3.24,3.61-7.24,9.31-6.57,7.34,10.91-1.45,21.7-1.99,32.61,12.42-.58,15.08-4.76,18.43-15.39,2.83-8.96-5.2-16.8-1.18-25.1,6.36-1.48,9.84,2.75,14.81,4.78-.88,7.53,7.27,7.57,10.55,12.12,1.36,3.77-4.05,8.21,1.43,11.78,3.28-1.78,4.24-5.12,5.08-7.45.13-4.61-4.45-5.95-3.9-10.43,4.08-6.88,10.44-3.92,15.83-1.75,5.31,2.14,11.67,4.97,10.67,12.29-.92,6.71-6.32,9.57-12.75,10.05-5.08.38-8.11,3-10.89,9.08,12.36-4.69,23.04-8.65,30.41-19.05,5.57,5.32,9.99,10.17,9.38,17.99-6.38,6.66-16.58,5.9-24.15,12.48,1.2,13.5,2.32,27.41,3.7,41.29,1.55,15.59-2.94,21.84-18.72,25.27-3.87-1.89-5.15-5.4-5.74-9.4,17.32-15.23,8.99-35.52,12.78-55.24-7.26,3.06-13.6,1.68-17.89,6.66-2.81.04-5.99-2.27-8.83,1.32,4.08,4,6.3.75,8.71-1.47ZM677.85,1268.93c6.76-6.77,9.61-13.3,12.06-21.02-4.87-.25-8.12-2.99-11.67-4.44-3.88,6.42,3.93,6.8,4.38,9.52.46,6.01-4.82,8.7-4.77,15.94ZM707.94,1238.74c4.12-1.96,6.87-5.09,7.9-9.51-4.1,1.94-6.5,5.26-7.9,9.51ZM695.46,1271.14c-2.65,2.68-6.34,4.61-1.2,8.15.6.42,1.66.17,2.54.24.69-2.97.3-5.43-1.34-8.39ZM709.3,1215.02c.24.1.48.2.72.3-.15-.34-.3-.67-.45-1.01-.09.24-.18.48-.27.72Z"/>
      <path class="cls-1" d="M977.25,1260.99c-8.7-6.51-8.86-10.91-.95-26.12-10.56,9.94-15.75,20.48-16.8,29.91-1.34,12.02,3.14,23.75,1.88,35.52-16.63,3.36-32.84-6.81-35.49-22.59,7.5-3.46,15.41-7.44,19.4-15.78.69-1.44,1-3.14-.74-4.95-5.29,2.53-7.8,9.68-15.38,9.82-5.36-4.52-5.83-11.39-7.35-18.19,8.81-11.87,16.42-24.51,23.7-37.15,7.68,2.99,1.82,10.43,7.29,14.38,3.62-10.72,3.06-22.96,13.86-31.47,4.8,8.16-6.08,21.76,8.91,25.16,5.57-2.17,4.35-11.21,12.79-12.09,9.92,8.92,1.57,19.12.65,30.25,5.82-7.69,9.76.87,14.77.17,3.66-.98,1.09-5.73,4.24-7.03,16.91,1.81,27.88,17.02,23.25,32.6-2.86,9.63-3.14,20.04-9.06,28.76-3.51,5.17-6.83,10.34-12.82,12.29-7.92-.5-12.74-5.1-16.62-11.12-6.47,1.41-10.74,6.93-17.46,7.6-4.39-5.84-3.04-10.35,2.33-14.91,8.62-7.3,17.18-20.04,20.87-30.69-11.09,7.87-15.39,19.64-22.26,28.3-6.01-1.97-5.69-5.9-6.5-9.17,1.87-4.97,7.49-7.77,7.29-13.66,1.56-.73,3.18-1.42,2.62-4.14-2.04.98-2.68,2.36-2.45,4.29ZM967.34,1235.46c-.65.63-1.29,1.27-1.94,1.9-2.16,0-3.71.63-3.36,3.37,2.61.26,3.13-1.41,3.33-3.4.61-.67,1.23-1.34,1.84-2.01l.4-.18-.27.32ZM1024.12,1252.85c-1.36-.77-2.71-1.53-4.07-2.3-9.7,9.43-14.48,22.54-23.15,32.13,2.38,4.78,5.14,6.35,10.69,4.71,5.24-10.95,10.88-22.74,16.53-34.54ZM944.22,1289.5c2.09-3.38,2.03-5.78.06-9.05-2.82,3.45-5.98,5.78-.06,9.05Z"/>
      <path class="cls-1" d="M.02,1270.84c8.39-4.68,16.6-9.27,24.19-13.5,2.25-3.81,1.73-7.01.98-10.86-9.63-.47-15.14-5.52-15.57-15.62,4.92-6.93,15.1-5.3,20.01-13.51.01-7.5,4.43-16.15-1.83-24.02,1.4-3.9,3.57-6.58,7.51-8.08,6.45-.71,10.52,3.37,14.34,7.51,1.07,6.07-3.65,11.12-1.21,17.17,2.26,2.11,4.86,4.54,6.87,6.41,2.01,4.05.62,7.14,0,10.5-4.41,4.22-11.55,6.99-9.35,15.1,1.25,1.44,2.91,1.22,3.66.45,15.07-15.39,36.47-15.96,54.96-23.21,10.53-4.13,16.47-.59,22.62,9.71-.33,3.43-2.21,5.93-5.54,8.17-2.11.11-4.69.19-7.27.39-7.03.55-11.09,3.8-12.48,11.25-3.05,16.32-.46,32.6-.55,48.88-.07,12.05-14.75,25.21-26.61,23.29-1.63-.27-2.87-1.49-3.76-5.15,22.13-16.83,10.93-42.25,15.78-65.99-11.35,3.41-20.12-1.41-29.75-3.01-8.64,11.96-18.34,22.46-14.22,38.83,1.88,7.45,3.92,16.83-4.45,21.31-7.6,4.08-15.04-1.17-21.59-5.62-10.57-7.17-17.21-16.55-16.74-30.43ZM24.55,1288.29c1.72-3.78,2.53-6.99-1.08-9.74-3.92.57-7.2,2.1-9.93,5.14,2.76,3.4,6.18,4.59,11.01,4.6Z"/>
      <path class="cls-1" d="M592.23,1313.55c-3.94.51-7.45.97-10.01,1.3-4.24-.72-3.26-4.63-5.8-6.14-7.39,1.1-13.73,6.57-21.27,6.88-3.92-3.45-2.9-7.55-3.25-11.56,1.46-2.31,2.98-4.71,5.04-7.95-10.49,1.41-18.87,10.71-29.42,5.44-3.15-1.57-5.7-4.37-5.63-9.31,23.53-3.89,45.77-11.68,67.69-24.94-7.73-4.54-5.98-14.76-14.46-17.19-2.71,2.12-2.5,4.81-2.81,7.33,1.81,3.82,6.94,5.32,7.07,11.62-4.59,7.65-14.83,2.62-20.91,7.71-2.82-2.01-5.18-3.69-7.89-5.63h-9.04c.05-7.69-3.43-13.77-7.88-18.91,1.27-12.51,13.21-17.57,18.1-26.54-2.48-5.38-9.06.94-10-6.5,1.49-4.53,8.44-5.41,10.96-11-3.22-4.65-5.27-10.03-4.78-16.27,1.47-3.79,4.47-6.1,8.61-7.9,3.28,3.43,9.13,4.47,9.36,10.97,4.14-1.6,6.61-4.55,9.34-7.92-1.02-2.16-2.06-4.37-3.05-6.46,2.89-3.28,6.19-4.25,9.81-4.31,11.24,6.76,11.29,11.01-.08,22.04.38,2.12.83,4.57,1.23,6.78-3.37,6.62-10.72,6.3-15.37,9.77-2.31,2.49,1.27,4.37.52,5.78-1.47,4.82-7.3,5.57-7.59,12.31,7.21-7.71,16.49-11.26,18.41-21.99,4.49.99,8.13,1.78,11.21,2.46,2.52,4.29-1.57,7.51.29,12.42,16.4,1.86,32.95,5.43,31.16,27.97-7.87,7.41-17.73,7.43-26.25,12.06,2.19,2.77,4.15,5.24,6.04,7.62-1.43,7.77-10.66,6.19-13.73,12.45,3.97,8.24,10.75,16.45,4.4,27.6ZM594.88,1252.31c3.71-2.11,9.11-1.03,12.59-5.84-4.61-5.99-9.96-10.02-17.77-10.73-2.93,6.98-2.21,12.29,5.18,16.56ZM578.32,1236.03c2.25-.43,2.54-1.32.75-2.8-1.74.59-1.85,1.52-.75,2.8ZM543.38,1244.94c-2,.54-2.29,1.5-.84,3.02,1.24-.76,1.76-1.65.84-3.02ZM578.51,1294.4c-1.77.27-2.52.17-2.93.49-.79.63-1.07,1.52-.11,2.39.55-.14,1.25-.13,1.68-.46.43-.34.6-1.02,1.35-2.42ZM561.1,1256c-.89.39-1.38.8-.18,1.46.06-.5.12-.97.18-1.46ZM558.09,1269.61c.32-.47.57-.79.75-1.14.02-.04-.34-.28-.53-.42-.06.46-.13.92-.22,1.56Z"/>
      <path class="cls-1" d="M366.13,1292.81c-10.66,9.84-21.73,6.83-31.44,7.37-11.3.62-17.58-10.07-26.74-16.53-12.61,9.48-25.76,17.69-44.5,10.02,7.8-7.44,12.6-15.79,19.48-20.73,4.93-1.03,4.68,3.3,7.26,4.05,2.31-1.64,4.85-3.07,6.05-6.19-2.15-4.46-5.98-6.52-10.56-7.89-3.56,2.04-6.89,3.94-10.89,6.23-4.37-7.57-1.43-13.38,3.22-18.54,8.65-9.61,14.87-20.42,19.09-32.71,2.25-6.54-.59-12.94,1.04-19.14,15.28-3.32,26.56,8.18,22.09,23.26,6.25-.96,13.25-3.11,14.94,6.59-5.88,5.36-13.08,9.82-15.48,19.31,2.69,6.58.47,13.68-2.8,21.06,12.16,15.05,31.89,14.78,49.24,23.83ZM307.97,1251.71q-7.39,3.77-1.6,8.21c2.49-2.36,4.24-4.8,1.6-8.21Z"/>
      <path class="cls-1" d="M186.41,1265.67c2.05-4.49,3.01-8.52,2.59-12.7-2.74-3.21-6.5-.18-9.42-1.88-5.49-3.41-8.16-9-10.98-13.99-.25-3.77,1.48-6.01,4.24-8.17,15.34-.89,29.3-9.55,44.8-10.3,5.37,2.57,7.54,7.5,10.69,11.7,0,4.2.43,8.45-1.63,11.43-3.22,3.82-7.54,2.26-11.35,5.01-3.98,3.51-5.24,9.12-5.95,15.95,7.71,4.79,16.3.43,24.68,2,6.49,3.84,6.38,11.1,8.15,16.87-1.49,4.82-4.9,6.85-8.27,10.03-27.18-13.52-53.39,1.37-79.74,4.52-4.15-14.84-.95-20.77,11.2-24.02,6.89-1.85,13.66-4.16,20.98-6.43Z"/>
      <path class="cls-1" d="M500.66,1256.8c.7,8.61,2.86,16.24,2.34,23.38-.61,8.4-8.28,12.7-16.35,14.72-7.99,2-16.17,2-24.32,1.93-18.97-.17-22.96-4.08-23.73-22.8-5.02-2.98-14.46,6.8-17.2-6.93,17.24.97,19.76-11.26,22.06-23.54,2.04-10.87,7.58-20.82,8.23-32.23,5.01-6.23,8.38-3.59,11.68,2.49-4.32,6.3-6.62,13.24-5.87,21.84,11.18-4.43,11.52-16.41,17.04-23.69,6,.3,9.74,2.27,11.83,7.85-6.04,13.84-17.71,24.28-26.46,36.68-5.95,8.43-5.56,15.85-3.03,24.89,18.32-1.56,35.96-3.01,43.79-24.59Z"/>
      <path class="cls-1" d="M759.97,143.35c14.03-.07,27.03,3.29,39.99,6.6,6.8,8.75,9.22,19.83,18.35,29.06,26.23-9.52,52.11-5.32,76.71,10.37-31.84,2.92-65.44-2.74-95.78,22.56,3.25-34.74-22.3-48.43-39.28-68.59Z"/>
      <path class="cls-1" d="M409.91,1256.61c2.67,1.89,4.72,3.33,6.5,4.58.14,1.14.54,2.06.26,2.37-9.58,10.73-1.1,27.75-12.01,39.13-6.17-5.28-9.2-10.53-11.51-15.11-1.36-5.99,4.69-9.51,2.69-14.89-5.7,1.38-7.49,8.56-14.11,8.82-5.5-3.51-5.29-9.57-6.39-14.97,11.21-8.78,24.94-29.08,35.19-52.22,7.19,3.96,9.22,11.69,14.38,16.87-5.11,8.71-12.45,15.16-14.99,25.4Z"/>
      <path class="cls-1" d="M1031.26,1374.1c3.81.32,7.64.65,12.33,1.04,2.73-8.04,5.43-15.98,7.86-23.16,2.91-3.15,5.67-3.21,9.66-1.79,4.62,9.25,7.18,19.84,10.03,30.11-7.18,5.31-8.84-1.9-11.09-3.36-7.32-3.19-9.09,2.55-12.59,5.26-8.32-.08-16.73,1.3-25.81-.98-1.26-10.44-1.11-20.64-.15-30.26,3.1-1.96,5.18-2.07,7.52.04,2.69,7.1-.84,15.25,2.23,23.08ZM1056.5,1364.3c-2.5.95-2.97,2.09-.52,3.7,2.15-1.03,1.84-2.27.52-3.7Z"/>
      <path class="cls-1" d="M706.25,1382.5c-5.39-3.98-4.26-10.49-7.58-15.25-3.57,4.67,1.28,10.9-3.71,14.56-5.96-2.72-7.52-14.91-4.06-31.24,3.24-2.08,6.67-1.61,9.89-.6,4.64,3.25,2.79,9.44,6.51,13,3.89-3.25,2.37-8.95,6.58-12.65,2.98-1.7,6.62-1.76,11.15.66.99,9.86.99,20.03-.03,29.53-3.55,2.41-5.83,2.01-8.17-.61-.27-3.69-.58-7.73-.93-12.46-5,4.38-2.29,12.5-9.65,15.07Z"/>
      <path class="cls-1" d="M550.67,1363.28c3.52-4.27,2.34-9.75,6.44-13.14,3.1-1.63,6.52-1.04,10.77.05,1.8,9.97.68,19.91.78,28.96-2.48,3.52-4.76,3.66-7.48,2-3.18-3.84-.05-8.88-2.37-13.43-4.86,3.73-1.88,11.85-8.48,14.55-6.82-1.76-4.47-9.33-8.25-13.44-4.39,3.29,2.37,12.55-8.03,13.6v-31.82c3.34-2.34,7.02-1.71,10.41-.44,3.91,3.52,2.59,9,6.2,13.09Z"/>
      <path class="cls-1" d="M838.06,1380.33c-.26-4.05-.53-8.15-.86-13.19-5.16,4.46-3.05,12.17-8.83,15.33-7.38-2.4-4.47-10.59-9.06-14.68-3.01,4.28,1.53,10.44-3.28,14.04-6.25-2.64-7.9-14.87-4.33-31.11,3.18-2.33,6.66-1.63,9.89-.92,4.82,3.05,2.9,9.34,7.19,13.31,1.85-4.53,3.5-8.58,5.07-12.41,4.13-1.99,7.81-2.14,12.13-.03v29.75c-2.64,2.74-5.13,2.34-7.93-.1Z"/>
      <path class="cls-1" d="M688.18,190.23c-8.38-7.56-12.63-15.6-20.02-20.48-6.44.24-12.57,4.24-20.3.42,5.51-3.63,10.17-6.7,14.91-9.82,10.73-1.06,18.32,5.27,25.48,11.3,30.04-10.57,36.05-9.68,50.31,9.91-20.72-10.33-38.23-13.07-50.39,8.67Z"/>
      <path class="cls-1" d="M1074.16,1350.36c17.27-2.74,20.74-1.78,26.26,6.94-.48,4.13-2.8,8.03-.2,13.32,3.14,6.37-2.28,10.32-8.29,11.39-5.36.96-10.97,1.2-17.32-.82-1.73-9.96-1.21-20.13-.45-30.83ZM1091.94,1371.79q-5.68-2.57-8.72,1.27c2.94,2.38,5.59,2.56,8.72-1.27ZM1091,1358.48c-3.31-1.88-5.71-2.68-8.28,1.29,3.26,2.62,5.6,2.81,8.28-1.29Z"/>
      <path class="cls-1" d="M465.66,1360.51c-1.63,3.08-3.14,5.92-4.59,8.66,1.33,3.86,2.57,7.48,3.94,11.46-11.82,5.76-9.32-8.23-15.27-10.11-3.97,1.39-1.9,4.9-2.41,7.45-.75,3.77-2.92,4.78-7.51,3.57-2.15-10.07-1.71-20.53-.72-30.85,16.86-3.76,22.22-1.83,26.56,9.81ZM447.21,1359.7c3.27,3.99,5.65,3.7,8.6-.71-3-1.84-5.22-3.47-8.6.71Z"/>
      <path class="cls-1" d="M918.03,1369.19c1.44,4.27,2.56,7.59,3.84,11.4-11.34,5.66-9.33-8.09-15.1-9.77-4.1,2.43-.49,7.03-1.19,7.67-3.98,4.44-6.3,4.09-9.26,2.35v-30.98c8.85-.3,17.5-3.53,24.11,4.22,4.7,5.52.06,10.25-2.4,15.1ZM904.12,1359.42c3.4,4.6,5.98,3.86,9.19.16-2.83-2.88-5.26-3.85-9.19-.16Z"/>
      <path class="cls-1" d="M1157.62,1368.49c.66,5.63,3.98,8.37,2.97,12.24-2.26,2.46-4.65,1.87-6.92.66-3.65-2.73-2.69-8.34-7.27-10.51-4.49,1.92-.81,6.76-2.17,7.96-2.99,3.94-5.28,3.93-8.55,1.98v-30.69c7.96-.96,16.26-3.5,22.97,2.66,5.7,5.24,2.54,11.4-1.03,15.69ZM1144.07,1359.39q4.28,3.19,7.85-.6c-2.9-2.62-5.39-2.81-7.85.6Z"/>
      <path class="cls-1" d="M248.89,1370.1c-4.56,3.17-.53,8.16-4.42,11.73-1.29,1.01-3.36.74-6.09-1.14v-30.53c8.28-.96,16.75-3.75,23.62,3.23,5.24,5.33,1.43,10.8-1.97,15.5,1.36,3.93,2.6,7.53,4.03,11.67-11.64,5.74-9.39-8.83-15.17-10.47ZM255.42,1359.22c-3.44-2.82-6.09-3.47-8.99.54,3.25,4.26,5.85,3.92,8.99-.54Z"/>
      <path class="cls-1" d="M955.91,1350.16c11.88-2.72,11.3,7.7,16.54,11.65,4.13-3.09-1.68-10.18,6.14-12.78,5.4,10.79,2.35,21.74,1.91,33.01-11.73.47-10.19-11.59-16.93-15.01-2.85,4.66,2.27,11.31-5.12,15.85-5.24-10.98-2.35-21.82-2.53-32.72Z"/>
      <path class="cls-1" d="M890.09,1359.17c-5.19,6.25-8.18-2.41-12.45-1.93-7.44,6.79-6.83,13.58,1.88,17.22,2.02-3.54-4.53-4.91-1.16-9.54,2.95-2.2,7.24-.66,11.55.2,2.15,5.32.96,10.38.92,15.36-20.28,1.98-24.7.25-26.77-10.12-1.91-9.56,2.42-18.51,10.08-20.87,7.2-2.21,12.52.98,15.96,9.68Z"/>
      <path class="cls-1" d="M368,1381.39v-31.16c9.36-1.74,17.71-2.28,23.59,5.94,4.46,6.24,4.35,13.04.01,19.25-5.8,8.3-14.17,7.79-23.6,5.96ZM377.12,1375.13c6.96-1.83,8.95-5.85,8.07-11.22-.65-3.96-2.42-7.58-8.23-5.93-1.67,5.28-1.52,10.53.17,17.14Z"/>
      <path class="cls-1" d="M42.13,1359.98c2.11,1.87,3.93,1.42,5.82.78,3.49-3.06-1.93-12.85,9.21-10.68,1.75,10.3.57,20.69.65,30.1-3.54,2.6-5.54,2.2-7.78.23-.36-2.93-.75-6.1-1.12-9.08-2.02-2.24-4.09-1.93-6.73-.73-.56,3.36-1.13,6.77-1.62,9.7-2.81,2.53-6.18,2.95-7.03.18-2.81-9.1-1.71-18.59-.76-27.88.36-3.56,3.69-4,6.44-2.6,3.15,2.9,1.43,6.62,2.94,9.97Z"/>
      <path class="cls-1" d="M361.89,1382.09c-11.95.04-10.52-11.4-17-14.68-3.4,4.39,2.2,11.45-6.46,15.67-3.22-11.22-1.56-21.86-1.83-32.37,12.22-4.35,11.76,7.4,17.27,11.6,4.03-3.23-1.95-10.83,7.13-13.24,2.12,10.99.77,21.58.89,33.03Z"/>
      <path class="cls-1" d="M1117.73,1382.73c-8.28.22-14.57-7.25-14.59-17.32-.02-9.28,6.28-16.5,14.39-16.49,7.86,0,13.95,7.33,14.01,16.83.07,9.53-5.82,16.76-13.81,16.98ZM1118.37,1356.27c-7.69,6.75-7.69,12.3-.25,18.97,5.62-6.08,5.59-11.85.25-18.97Z"/>
      <path class="cls-1" d="M740.9,1365.68c0-9.81,5.65-16.62,13.9-16.76,7.9-.13,14.12,7.08,14.29,16.58.18,9.98-6.11,17.43-14.56,17.23-8.05-.2-13.63-7.17-13.64-17.05ZM756.33,1356.95c-7.26,1.64-6.32,6.6-6.16,10.92.14,3.78,1.32,7.06,6.71,6.39,4.17-5.64,4.55-11.25-.55-17.31Z"/>
      <path class="cls-1" d="M655.93,1351.04c-1.83,10.12-10.83,3.03-14.6,8.09,1.79,5.48,7.89.78,10.88,4.7,2.63,9.7-10.46,1.91-10.77,9.11,3.56,4.38,11.21-1.36,14.93,6.12-7.32,6.1-15.4,2.64-23.67,2.99-1.57-10.94-.82-20.89-.63-31.75,8.39-1.47,16-2.07,23.86.73Z"/>
      <path class="cls-1" d="M205.98,1353.34c2.81-3.93,5.05-4.61,8.38-3.12,4.25,6.76-.09,15.07,2.82,22.45,1.85,2.54,4.15,2.49,6.64.93,4.97-7.28-2.81-17.93,5.77-25.02,4.87,7.15,5.51,24.37,1.43,29.4-4.54,5.6-11.07,6.41-16.86,3.64-13.38-6.39-4.91-19.19-8.19-28.28Z"/>
      <path class="cls-1" d="M574.21,1351.29c2.02-2.54,4.39-2.24,7.21-.77,3.31,7.15-.6,15.37,2.5,22.62,7.96,1.32,7.95,1.13,8.36-8.66.21-4.93-1.73-10.32,1.95-14.84,5.64,2.53,8.09,16.47,4.7,25.46-3.12,8.28-10.11,8.6-17.03,7.04-8.78-1.98-10.94-11.54-7.69-30.85Z"/>
      <path class="cls-1" d="M490.97,1374.88c5.76-7.61,11.28,4.51,16.7-2.18-5.15-5.11-17.72-3.52-15.2-15.34,1.02-4.8,4.82-7.66,9.81-8.29,5.99-.76,10.6,1.29,13.51,6.23-3.95,8.57-9.66-2.03-14.23,2.88,5.15,5.4,18.34,3.68,15.44,15.98-1.26,5.33-5.61,7.87-10.84,8.45-6.64.74-12.02-1.23-15.2-7.72Z"/>
      <path class="cls-1" d="M88.23,1353.18c-4.33,4.39-7.08,3.62-9.61,3.89-2.11.22-4.71-.75-5.93,2.25,1.86,5.01,7.42.86,10.45,4.61,2.16,9.21-9.49,2.34-10.63,8.57,3.23,4.98,10.11-.38,13.64,4.01-1.68,6.69-6.69,7.81-22.39,4.54-1.49-9.91-.9-20.06-.23-31.39,8.48.56,16.72-3.34,24.69,3.53Z"/>
      <path class="cls-1" d="M292.87,1354.03c-4.04,5.73-10.83.37-14.58,5.02,1.88,5.68,8.3.58,10.87,5.08,1.73,9.1-10.04,1.85-10.88,8.6,3.68,4.41,10.32-.42,14.01,3.91-2.28,6.52-8.05,7.65-22.61,4.24-1.77-9.66-.47-19.61-.7-29.26,10.79-4.23,19.58-3.29,23.89,2.4Z"/>
      <path class="cls-1" d="M602.47,1374.45c5.04-7.27,10.67,4.93,16-1.49-4.95-5.53-18.3-3.88-14.71-16.39,1.31-4.56,4.8-6.91,9.3-7.48,5.91-.76,10.61,1.18,13.55,6.25-4.11,7.82-9.12-1.2-14.02,2.43,4.87,6.18,20.7,4.87,14.27,18.58-2.47,5.27-7.68,6.83-13.23,6.32-5.35-.49-10.11-2.12-11.16-8.21Z"/>
      <path class="cls-1" d="M1188.57,1355.51c-4.83,7.58-9.57-1.87-14.52,2.41,5.27,5.74,19.91,4.49,14.96,17.73-2.02,5.4-7.16,7.38-12.82,7.06-5.76-.33-10.76-2-12.21-8.39,5.34-6.99,10.86,4.92,16.36-1.38-4.86-5.46-18.21-3.84-14.98-16.25,1.18-4.54,4.78-6.94,9.26-7.59,6-.88,10.75,1.15,13.95,6.41Z"/>
      <path class="cls-1" d="M416.57,1350.88c4.14-2.06,6.87-2.17,10.25.32,3.27,9.25,6.96,19.1,8.66,29.21-8.24,6.32-9.61-7.8-15.79-4.3-4.76.48-5,8.02-12.22,5.03,1.69-10.36,5.85-20.28,9.09-30.27ZM420.42,1367.98c2.45-.77,2.57-1.88.63-3.47-2.01.83-2.18,1.93-.63,3.47Z"/>
      <path class="cls-1" d="M313.89,1351.98c3.46-3.16,6.23-3.12,10.18-1.7,4.14,9.32,7.19,19.65,9.55,29.92-7.14,5.57-8.63-2.16-12.32-3.76-6.94-3.84-7.96,7.25-16.19,5.02,3.06-10.28,6.08-20.42,8.78-29.48ZM318.67,1364.06c-1.05,1.4-2.85,2.31.5,4.16.85-1.31,1.75-2.34-.5-4.16Z"/>
      <path class="cls-1" d="M131.95,1351.03c3.02-2.21,5.36-2.11,7.99.01,3.05,7.05-.8,15.28,2.63,22.85,8.68,2.23,7.41-4.14,7.98-9.04.57-4.99-1.7-10.35,1.69-15.02,5.35,1.9,8.06,13.8,5.31,24.12-2.27,8.52-9.12,9.59-16.3,8.41-9.48-1.55-11.62-9.2-9.28-31.34Z"/>
      <path class="cls-1" d="M674.36,1375.74c6.07-9.55-1.35-20.09,8.75-28.53,2.88,11.54,3.85,21.03.03,30.02-2.47,5.8-8.86,6.16-14.54,5.25-5.74-.92-9.51-4.5-9.83-10.47-.37-7.08-.99-14.24.72-21.08,2.59-2.07,4.91-2.18,7.18-.46,5.02,7.16-3.85,19.06,7.69,25.27Z"/>
      <path class="cls-1" d="M115.69,1356.9c-7.4,6.2-7.37,12.11-.22,17.75,4.31.02,6.28-8.93,12.63-3.01-1.04,8.07-6.39,11.21-13.99,10.94-7.72-.27-13.58-7.53-13.75-16.23-.18-9.25,5.59-16.81,13.72-17.31,7.89-.49,12.82,3.11,14.09,11.08-6.19,6.56-8.26-1.09-12.47-3.23Z"/>
      <path class="cls-1" d="M933.56,1350.95c3.51-2.17,6-1.91,9.52-.65,4.02,9.45,7.12,19.75,9.47,30.01-8.56,6.71-9.95-8.73-16.21-4.48-4.45,1.24-4.43,6.92-10.63,6.09-1.38-11.64,5.61-21.22,7.85-30.97ZM940.66,1369.16c-1.94-2.92-.21-5.37-3.98-4.41-.51,1.36-.59,2.5,3.98,4.41Z"/>
      <path class="cls-1" d="M713.61,242.09c14.78-11.3,16.86-11.29,31.83-1.29,10.84-4.19,22.11-7.91,32.79,4.53q-20.93-.95-34.23,7.32c-6.09-2.81-8.7-10.33-16.11-12.93-3.4.56-7.47,1.24-14.28,2.37Z"/>
      <path class="cls-1" d="M782.2,1371.89c-.32,2.66-.65,5.52-.94,7.97-2.36,2.77-4.63,3.02-8.1.7-.85-9.59-.88-19.77,0-29.72,13.72-3.29,19.32-2.35,22.67,3.46-3.01,5.77-10.27.09-13.73,4.96.67,6.55,11.37-.2,10.6,8.05-1.87,4.34-6.57,1.75-10.5,4.58Z"/>
      <path class="cls-1" d="M188.77,1360.71c-2.43-4.49-7.68-2.98-7.79-7.5,5.79-5.82,18.22-5.77,23.79.09.04,4.61-5.5,2.87-7.68,8.23v19.25c-3.48,2.19-5.75,1.86-8.33-1.05v-19.01Z"/>
      <path class="cls-1" d="M13.68,1379.2v-18.65c-1.57-4.45-7.23-2.51-7.23-7.22,5.17-5.9,17.78-6.03,23.59-.11.02,4.49-5.46,3.07-7.45,8.38v18.59c-3.57,2.89-6.05,2.54-8.9-.98Z"/>
      <path class="cls-1" d="M998.35,1381.11c-3.21,1.62-5.23,1.17-7.53-1.46v-17.09c-1.4-6.56-7.85-4.7-7.6-11.03,7.12-4.8,15.15-1.56,22.47-1.83,3.44,7.34-2.99,6.72-5.36,9.23-2.25,7.08.78,14.81-1.98,22.18Z"/>
      <path class="cls-1" d="M467.74,1350.04c7.76-.7,15.61-2.82,22.82,1.27.37,6.1-4.73,5-7.23,8.59v19.2c-2.71,3.44-4.93,3.76-8.13,1.51-1.98-6.43-.04-13.67-1.27-21.08-.77-3.46-8.21-1.74-6.2-9.49Z"/>
      <path class="cls-1" d="M172.75,1374.11c3.72.42,6.59.74,9.39,1.05,1.01,7.98-3.18,9.29-18.75,5.76v-29.59c1.64-2.04,3.67-2.41,6.48-1.01,3.89,7.18-.55,15.82,2.89,23.79Z"/>
      <path class="cls-1" d="M851.68,1350.93c3.76-1.96,5.81-1.72,7.95.8v28.18c-2.1,2.46-4.15,2.71-7.56.94-1.41-9.55-.71-19.74-.39-29.92Z"/>
      <path class="cls-1" d="M233.3,852.5c6.83,3.74,11.58,7.69,14.48,14.12-11.55,1.2-15.05-2.13-14.48-14.12Z"/>
    </g>
  </g>
</svg>