<?xml version="1.0" encoding="UTF-8"?>
<svg id="Layer_2" data-name="Layer 2" xmlns="http://www.w3.org/2000/svg" viewBox="0 0 1383.63 276.46">
  <defs>
    <style>
      .cls-1 {
        fill: #b11f24;
        stroke-width: 0px;
      }
    </style>
  </defs>
  <g id="Layer_1-2" data-name="Layer 1">
    <g>
      <g>
        <path class="cls-1" d="M137.32,195.4c1.75,0,3.33.28,4.76-.06,2.45-.59,4.89-.32,7.32-.29,1,.01,1.87-.64,3.02-.15.93.4,2.18.08,3.29.08s2.23-.12,3.32.03c1.07.15,1.92-.52,2.95-.49.91.03,1.92.39,2.74-.38,1.98.31,3.89-.59,5.85-.39,1.03.1,2.04.39,3.05.66.18.05.36.15.56.15,2.17-.03,4.28.64,6.48.44,1.3-.12,2.64-.13,3.94,0,2.26.22,4.46-.37,6.68-.54,1.88-.14,3.79-.53,5.69-.69,1.99-.17,4.01-.02,6.02-.05,1.67-.02,3.26.4,4.88.72,1.14.23,2.33.54,3.54.54,1.21,0,2.32-.6,3.57-.46,1.23.14,2.56.3,3.72-.03,2.31-.64,4.65-.51,6.9-.26,1.89.21,3.77.23,5.66.31,1.2.05,2.31-.44,3.46-.7.38-.09.56-.06.87.13,1.78,1.06,3.65,1.5,5.65.57,1.5.26,2.88-.56,4.4-.46,1.17.08,2.41.33,3.58-.34.54-.31,2.11.14,2.93.36.53.14.31.49.41.78.24.7,0,1.6-.59,2.12-.86.75-.93,1.04-.13,1.99.46.54.31.85-.13,1.16-.37.26-.77.52-1.19.61-.55.12-1,.56-1.05.88-.35,2.06-2.36,2.95-3.19,4.67-.4.82-1.31,1.39-1.96,2.1-.4.44-.9.25-1.35.25-.72,0-1.04.33-1.23,1.03-.42,1.53-.92,1.87-2.44,1.89-.83.01-1.67-.06-2.49.01-1.64.14-3.16-.12-4.58-1.01-.68-.42-1.4-.55-2.26-.29-1.21.37-2.59-.45-3.77.43-.81-.65-1.91-.34-2.76-.83-.47-.27-1.05-.27-1.44-.51-.51-.3-.7-.23-1.2.03-2.22,1.18-4.69,1.66-7.12,1.24-1.42-.25-2.81-.18-4.2-.35-1.11-.13-2.1.29-3.15.43-1.05.14-2.17-.3-3.16.41-.09.07-.27.02-.41,0-2.25-.28-4.43.51-6.68.45-.9-.02-1.77.48-2.74.4-.92-.08-1.89-.18-2.74.39-.05.03-.14,0-.2,0-2.73-.25-5.4.61-8.14.47-.89-.05-1.65-.44-2.52-.49-.85-.05-1.72.3-2.58-.31-.4-.29-1.26-.29-1.75.07-.46.34-.9.24-1.35.26-1.35.06-2,.57-2.07,1.85-.07,1.38,0,2.77-.03,4.15-.01.58.35,1.01.61,1.41.82,1.24.93,2.48.11,3.66-.38.55-.37,1.06-.27,1.54.51,2.59.52,2.6,0,5.07-.09.43-.12.91.12,1.39.64,1.26.36,2.47-.52,3.5-.57.67-.63,1.24-.22,2,.33.61.53,1.31.75,1.97.35,1.04.5,1.98-.34,2.99-.71.85-1.15,1.97-.24,3.07-.11,1.45.68,2.64,1.29,3.82.55,1.05.89,2.04.8,3.21-.06.76.45,1.3,1.14,1.5.99.27,1.91-.17,2.72-.48,1.66-.65,3.26-1.49,4.97-2.05.41-.14.72-.61,1.06-.94,1.1-1.07,2.26-2.02,3.58-2.86,1.14-.72,2.31-1.15,3.49-1.09,2.23.1,4.18-.38,6.01-1.61.36-.25.82-.47,1.24-.5.83-.04,1.46-.46,2.19-.77.75-.32,1.05-1.08,1.74-1.32.76-.27,1.02-.89,1.46-1.48.84-1.13,2.02-2,2.74-3.24.46-.8,1.38-.74,2.06-1.05.67-.3,1.59.07,2.29-.48,1.78.32,3.47-.56,5.23-.4,1.37.13,2.4-.53,3.47-1.16,1.44-.85,2.78-1.85,4.41-2.41.67-.23,1.56.21,2.03-.6,1.3.2,2.04-.8,2.95-1.4.66-.44,1.21-1.07,1.91-1.42.49-.25.98-.7,1.67-.51.39.1.88.14,1.23,0,.78-.33,2.08-.05,2-1.52,1.83-2.63,2.77-5.87,5.43-7.93.26-.2.42-.6.83-.49.47.13.27.56.28.86.02.69.05,1.39,0,2.08-.14,1.84.19,3.63.43,5.44.14,1.04-.28,1.95-.66,2.84-.87,2.02-1.98,3.91-3.2,5.74-.46.69-.65,1.56-1.15,2.21-1.03,1.35-1.4,3.07-2.53,4.37-1.5,1.72-2.38,2.44-4.54,3-.5.13-.87.28-1.2.64-1.92,2.06-4.35,3.39-6.72,4.83-1.46.89-2.88,1.89-4.12,3.1-1.85,1.82-3.64,3.7-5.7,5.3-1.66,1.29-3.56,2.07-5.5,2.78-1.21.44-2.41.82-3.52,1.56-.64.42-1.42.81-2.28,1-.84.18-1.77.42-2.4,1.24-.57.74-1.61.29-2.39.72-.51.28-1.25.11-1.89.43-.55.28-1.31-.18-1.92.42-.21.21-.8.03-1.21.03-1.06.01-2.51.49-3.66,1.2-.49.3-7.46,3.33-7.95,3.36-.8.04-1.58.29-2.33.35-1.27.11-2.46.81-3.77.49-2.68.83-5.43.34-8.14.38-1.7.03-3.3.65-5.02.49-1.72-.16-3.47-.16-5.19.01-.98.1-1.95.62-2.85,1.1-1.41.75-2.97.78-4.31.37-1.32-.41-2.57-.06-3.83-.27-.33-.06-.52.17-.67.38-.7,1-1.86,1.27-2.88,1.55-.93.25-1.92.41-2.89.56-1.61.24-2.88-.69-4.27-1.23-.9-.35-1.76-.7-2.82-.13-1.13.6-2.33-.2-3.46-.43-2.22-.46-4.38-1.16-6.62-1.59-1.27-.24-2.36-.25-3.63-.02-1.26.23-2.67.34-3.99-.29-.4-.19-.86-.24-1.2-.61-.47-.51-.97-.98-1.46-1.47-.62-.62-1.11-1.32-2.21-.53-.44.32-1.4.23-2.08-.34-1.44-1.2-3.11-.69-4.59-.23-.89.28-1.55.2-2.22-.21-1.71-1.05-3.79-1.21-5.47-2.35-.65-.44-1.64.22-2.26-.54-1.86.09-3.33-1.01-4.9-1.71-3.26-1.45-6.16-3.54-9.18-5.42-.46-.29-.74-.86-1.2-1.14-.82-.51-1.54-1.1-2.53-1.41-1.66-.52-3.06-1.68-4.48-2.72-2.12-1.56-4.22-3.14-6.4-4.62-1.78-1.21-3.06-2.93-4.63-4.35-.12-.11-.05-.46-.17-.54-.61-.38.05-1.3-.72-1.59-.48-.18-.99-.33-1.39-.63-.26-.19-.96-.33-.32-1.01.48-.52-.26-1.09-.4-1.64-.11-.44-.72-.22-1.11-.22-1.47,0-2.48-.56-3.13-1.96-.46-.99-.86-2-1.32-2.99-.62-1.34-1.43-2.6-2.18-3.87-.12-.2-.1-.37-.08-.57,2.83-.38,3.08-.32,5.36,1.26,2.26,1.57,4.56,3.08,6.76,4.73.91.68,1.96,1,2.9,1.57.58.35,1.39.39,1.91-.02.44-.35.91-.06,1.32-.38.58-.45,1.16-.38,1.84.06.88.57,1.85,1.01,2.57,1.8,1.57,1.73,3.52,2.52,5.84,2.46.55-.01,1.11.02,1.66,0,.5-.03.94.03,1.26.48.16.22.36.38.68.37.46-.01,1.03-.18,1.28.38.26.58.83,1.07.67,1.8-.19.84.32,1.54.42,2.32.07.54.39.95.92.87,2.01-.28,3.65,1,5.51,1.24.59.08,1.13.87,1.65.39.56-.53,1.19-.17,1.71-.42,1.39-.67,2.62-.38,3.96.27,1.78.87,3.66,1.54,5.5,2.28,1.07.43,2.23.7,3.2,1.28,1.35.8,2.56.17,3.83-.03.06,0,.12-.04.17-.08.22-.17,1.2-3.37,1.13-3.69-.52-2.36-.04-4.61,1-6.71.97-1.96.93-4,.91-6.07,0-.33-.29-.44-.39-.67-.47-1.15-1.13-2.26-.88-3.59.05-.24.08-.52-.16-.76-.84-.87-.66-1.98-.66-3.04,0-1.52.02-3.05-.02-4.57-.02-.58.25-1.22-.34-1.74-.14-.12-.17-.65-.04-.77.47-.45.39-.98.39-1.51,0-1.94.08-3.88-.03-5.82-.08-1.36-1.64-2.47-3.32-2.51-1.59-.04-3.19,0-4.78-.01-.89,0-1.82-.21-2.65-.14-.87.08-1.76.2-2.61.1-.93-.1-1.66.43-2.53.48-.85.05-1.79-.42-2.54.36-.04.04-.13.04-.19.03-1.64-.29-3.19.46-4.81.43-1.66-.04-3.37.24-4.97-.08-1.35-.27-2.66-.29-4-.34-.79-.03-1.46-.57-2.33-.45-.7.1-1.49.23-2.12-.37-.11-.1-.41-.04-.61-.01-2.12.3-4.22-.21-6.25-.52-2.05-.32-4.05-.23-6.08-.3-2.07-.07-4.16.03-6.23-.04-.72-.03-1.15.65-1.91.48-.55-.12-1.23-.23-1.71.37-.08.1-.4,0-.61.02-1.65.07-3.26.36-4.86.79-.74.2-1.48-.03-2.25-.57-1.56-1.11-3.16-2.15-4.59-3.43-.37-.33-.47-.64-.05-1.01.32-.28.18-.67.12-.97-.06-.3-.45-.19-.72-.22-.54-.05-.73-.41-.94-.89-.45-1.03-1.06-1.92-2.17-2.46-1.05-.52-1.1-1.94-.04-2.4.96-.42.62-.66.17-1.08-.67-.63-1.42-1.13-2.29-1.5-.29-.12-.52-.34-.86-.45-.42-.13-.62-.97-1.11-.73-.59.29-1.07.85-1.49,1.37-.17.22-.06.66-.09.99-.05.51.38.39.64.55.4.25.69.67,1.05,1,.46.42.47.82.24,1.43-.54,1.38-.17,2.17,1.11,2.82.11.06.25.05.38.1,1.76.59,2.31,1.98,2.41,3.67.04.69.05.68.8,1.09.7.38,1.37.75,2.23.67.57-.06,1.05.76.66,1.02-1.66,1.12-1.13,2.78-1.2,4.3-.02.41,0,.83,0,1.25-.02.42-.01.81.39,1.09.27.19.47.43.46.85-.07,1.6.61,3.08.86,4.63.12.79.65,1.53,1.06,2.25.16.28.16.47,0,.87-.92-.92-1.91-1.69-2.58-2.67-.38-.56-.42-1.39-1.08-1.82-.71-.46-1.38-1.05-2.16-1.29-1.1-.33-1.77-1.13-2.6-1.78-.89-.7-1.09-1.8-1.75-2.61.02-1.93-1.47-2.75-2.79-3.56-.83-.51-1.33-1.15-1.91-1.88-.99-1.25-1.86-2.59-2.51-3.97-.58-1.25-1.47-2.42-1.63-3.9-.09-.86-.4-1.75-1.51-2.05-.84-.23-1.59-.73-1.45-1.83-1.78-3.06-2.58-6.56-4.25-9.67-.45-.83-.62-1.65,0-2.58.67-1,.98-2.16.29-3.36-.17-.29-.2-2.65-.1-3.14.13-.66-.25-1.3-.59-1.6-.7-.61-.67-1.29-.66-2.04.01-.9-.35-1.46-1.15-2.01-1.83-1.23-2.61-3.27-3.36-5.23-.17-.45-.3-1.1-.54-1.42-.45-.61-.39-.93.13-1.34.27-.22.41-.44.29-.86-.4-1.32-.28-1.32.03-3.23.19-1.17.22-2.41-.53-3.49-.46-.66-.78-1.37-.68-2.21.03-.26.04-.52-.2-.75-1.37-1.26-1.08-3.31-2.2-4.7-.19-.24.01-.46.11-.71.36-.91.75-1.82.65-2.85-.07-.71-.02-.74-.84-1.07-.95-.38-1.95-.65-2.88-1.06-.93-.41-.9-.47-.46-1.42.41-.87.62-1.85,1.33-2.56.26-.26.34-.53.37-.9.11-1.89-.15-3.71-.99-5.41-.37-.75-.33-1.28.14-2.01.87-1.35,1.55-2.82,1.69-4.49.06-.7.5-1.34.4-2.12-.19-1.5-.79-2.91-.87-4.43-.02-.27-.41-.51-.62-.77-.66-.86-.73-1.87-.57-2.86.09-.61.65-.98,1.19-1.26.63-.33,1.27-.63,1.84-1.12.37-.32,1.09-.35,1.07-.98-.02-.58-.67-.81-1.04-1.21-.1-.11-.36,0-.55-.16-.55-.49-.64-1.03-.19-1.58.39-.48.89-.8,1.44-1.03,1.76-.73,2.29-2.16,2.48-3.94.15-1.46-.6-2.77-.44-4.19.3-2.66.75-5.27,1.79-7.78.71-1.71,1.54-3.38,1.98-5.21.16-.66.69-1.37,1.4-1.42,1.49-.09,2.07-1.19,2.54-2.24.33-.73.65-1.55.62-2.45-.03-1.19.6-2.34.39-3.57-.07-.42.27-.61.51-.82,1.72-1.55,2.44-3.66,3.22-5.73.42-1.11.89-2.15,1.75-3.02.9-.92,1.98-1.24,3.19-1.34,1.12-.09,2.22-.02,3.38-.31,1.27-.32,1.96-.88,2.5-1.97.91-1.84,1.97-3.62,2.87-5.46.42-.86,1.04-1.11,1.89-1.47,1.66-.71,2.9.07,4.25.62.66.27,1.2.77,1.99.73.76-.04,1.44,0,2-.74.73-.97,2-1.27,3.02-1.69,1.57-.64,2.34-1.77,3.08-3.09.68-1.22.53-2.45.14-3.67-.17-.54-.33-1.11,0-1.52.32-.4.26-.77.25-1.15-.01-.46.25-1.08-.16-1.36-.55-.38-.75.38-1.13.58-.75.39-1.53.69-2.18,1.29-.27.25-.91.11-1.39.11-1.06,0-1.14-.14-.78-1.19.04-.12.25-.21.24-.31-.2-2.23,1.2-3.84,2.29-5.49,1.39-2.1,3.15-3.95,4.64-5.99.72-.98,1.4-1.97,1.88-3.16.89-2.19,1.76-4.44,3.4-6.29,1.39-1.57,3.27-2.1,5.04-2.92,1.05-.49,2.19-.72,3.15-1.44.49-.36,1.25-.35,1.79-.66,2.02-1.15,4.01-2.39,6.07-3.41,1.58-.78,3.16-1.96,5.17-1.56,1.56.31,3.03-.68,4.6-.4.53.1.75-.31.99-.61.98-1.21,2.24-1.58,3.76-1.5.85.05,1.7.08,2.6-.2,1.41-.44,2.38-1.4,3.41-2.28,1.21-1.03,2.3-2.2,3.39-3.37.96-1.03,2.21-1.4,3.5-1.58,1.05-.14,2.01-.52,3.02-.74,1.09-.23,1.93-.72,2.73-1.48,1.07-1.01,3.59-2.07,6.1-2.8.69-.2,1.34-.49,2.12-.45.63.03,1.2-.61,1.9-.37.62.21.87-.57,1.5-.45.49.09,1.03.15,1.54-.31.28-.24.92-.08,1.4-.08,2.7,0,5.4-.01,8.1,0,1.76,0,3.45-.71,5.23-.42.85-.89,2.04-.15,3.05-.67.96-.49,2.16-.19,3.25-.14,1.44.06,2.87.29,4.25.74.25.08.53.05.8.07.79.04,1.55.03,2.35.35.58.22,1.4.11,2.17-.13,1.11-.34,2.28-.61,3.48-.65,1.24-.05,2.38.38,3.34.96,1.93,1.15,3.86.69,5.76.28,3.02-.65,3.11-.53,5.52.43,1.13.45,2.17,1.07,3.36,1.44,2.91.91,2.96,1.2,4.76,3.05,1.02,1.06,2.15,1.91,3.59,2.39.55.18,1.05.25,1.55.13,1.53-.37,1.52-.39,3.23.03.26.06.55.08.81.04.7-.12,1.15.22,1.59.7.45.49.93.92,1.57,1.21.42.19.98.3,1.14.14.82-.81,1.91-.18,2.85-.72,1.06-.6,2.35.17,3.51.4.99.19,2.06.37,2.97.81.74.36,1.71.31,2.22,1.19.56.95,1.66.96,2.58,1.26.98.31,2,.46,2.99.81,2.72.96,4.08,2.38,4.6,5.14.3,1.61,1.01,1.92,2.62,2.44,1.56.51,3.14.12,4.69.7,1.48.55,2.95,1.03,4.1,2.13,1.65,1.58,3.23,3.23,4.86,4.83.82.81,1.34,1.84,2.17,2.66.88.86,1.93,1.47,2.85,2.26.44.38,1.25.7,1.99.64,1.57-.13,2.7.88,3.57,1.82,1.25,1.36,2.19,3.03,2.66,4.89.21.82.83,1.36,1.46,2.07,1.56,1.74,3.6,2.93,5.15,4.67.54.61.75,1.44,1.7,1.81.67.26.59,1.36.81,2.1.1.32.03.69.01,1.03-.03.64.25,1.05.9,1.12,2.24.25,3.45,1.57,4.24,3.63.83,2.17,2.38,3.92,3.91,5.66,1.09,1.24,2.01,2.62,3,3.94.72.95,1.43,1.9,2.16,2.84,1.04,1.35,2.21,2.63,2.92,4.19.66,1.46,1.58,2.71,2.64,3.9,1.17,1.32,2.31,2.72,2.78,4.44.74,2.7,2.27,5.02,3.41,7.53.05.12.2.21.21.33.14,1.84,1.36,3.08,2.45,4.38.34.4.52.77.46,1.27-.12,1.05.13,2.1-.34,3.18-.25.59-.46,1.63.34,2.29.22,1.76,1.08,3.42.84,5.27-.17,1.29.62,2.45.44,3.78-.17,1.19.36,2.28.75,3.41.37,1.09-.13,2.22-.68,3.21-.52.93-.49,2-.9,2.95-.13.3-.09.75.18,1.15.62.9.87,2.01,1.62,2.86.93,1.05,1.3,2.49,1.39,3.75.11,1.55.53,3.05.52,4.6,0,.45-.17.94.29,1.34.15.13.21.59.1.75-.7,1-.38,2.11-.37,3.17.02,1.49-.68,2.88-.46,4.4.13.85.02,1.69.4,2.54.34.76-.38,1.78.45,2.51-.14,1.2.32,2.45-.29,3.62-.09.17-.15.39-.12.57.27,1.44-.66,2.76-.42,4.19.07.42-.35.55-.42.87-.77,3.6-2.28,6.95-3.46,10.41-.62,1.82-1.4,3.59-1.91,5.44-.42,1.52-1.13,2.9-1.97,4.16-.46.69-.65,1.44-.92,2.13-.49,1.27-1.03,2.5-1.81,3.61-.68.96-.87,1.88-.51,3.13.45,1.55.3,3.22.02,4.85-.4,2.36-2.15,4.09-2.95,6.26-.18.48-.63.95-.59,1.4.16,1.84-.99,2.98-2.24,3.83-.98.66-1.65,1.6-2.59,2.25-.92.64-1.55,1.46-2.04,2.45-.26.53-.78.87-1.12,1.4-.6.93-1.24,1.84-1.85,2.76-.64.98-1.57,1.77-2.81,2.17-.75.25-1.48.72-1.79,1.65-.33.95-.93,1.74-1.99,2.08-.27.09-.62.48-.62.74,0,2.03-1.32,3.28-2.64,4.52-.38.36-.69,1.14-1.24.9-.65-.28-.45-1.23-.26-1.64.94-1.93.14-3.6-.61-5.26-.18-.4-.39-.84-.24-1.12,1.07-2.05,1.85-4.23,3.15-6.18,1.04-1.55,2.42-2.64,3.92-3.57.72-.45,1.02-1.09,1.16-1.71.2-.93.05-1.93.05-2.9,0-.57-.45-.35-.74-.42-.55-.14-.7-.46-.32-.78,1.81-1.54,2.67-3.8,4.22-5.54.38-.43.73-1.07.6-1.82-.2-1.16.37-2.06,1.19-2.82,1.08-1,1.98-2.14,2.67-3.46.36-.69.32-1.17.02-1.86-.48-1.12-1.37-2.06-1.41-3.36-.95-.7-.07-1.3.17-1.87.18-.41.66-.69.99-1.04.62-.65.91-1.4.94-2.32.02-.77-.42-1.67.39-2.32-.15-.92.32-1.91-.3-2.78-.19-.26-.19-.5.05-.71.38-.33.35-.8.17-1.12-.86-1.54-.17-2.66.91-3.7.91-.88,1.79-1.77,2.21-3.03.73-2.17,1.83-4.25,1.51-6.64-.17-1.24.7-2.33.42-3.57.67-.6.39-1.4.4-2.11.01-.67.07-1.29.4-1.92.26-.51-.18-1.17.3-1.76.24-.3.14-.91.14-1.38.01-2.7,0-5.4,0-8.1,0-1.2.04-2.32.72-3.45.64-1.07.85-2.49.48-3.7-.61-2.03-.13-4.07-.39-6.07-.4-3.05-.62-6.15-1.66-9.07-.6-1.68-1.33-3.33-2.15-4.92-.61-1.18-.9-2.39-1.22-3.66-.46-1.83-.42-3.77-1.18-5.52.3-1.24-.26-2.4-.47-3.56-.29-1.57-.16-3.24-1.13-4.73-.5-.76-.81-1.54-1.75-1.79-1.12-.3-.6-1.52-1.22-2.09.1-2.12-1.06-3.85-1.8-5.69-1.62-4.05-4.36-7.48-6.61-11.17-.47-.77-1.1-1.46-1.61-2.24-.71-1.09-.96-2.26-1.19-3.47-.21-1.15-.66-2.12-1.57-2.9-.31-.26-.62-.2-.92-.31-.5-.17-.84.55-1.2.25-.74-.62-1.45-1.3-2.05-2.06-.27-.34-.24-.97.01-1.35.26-.38.44-.61.07-1.03-.33-.38-.3-1.15-.94-1.16-.92-.01-1.7-.94-2.83-.1-.71.53-1.85-.08-2.47-.83-.57-.69-1.21-1.49-1.37-2.32-.23-1.27-1.04-1.74-2-2.29-.63-.36-1.49-.5-1.47-1.66.01-.49-.78-1.09-1.33-1.48-1.27-.91-2.54-1.86-3.94-2.52-.75-.36-.98-1.3-1.94-1.36-.34-.02-.3-.72-.17-.9.65-.86-.05-1-.58-1.1-.53-.1-1.11.01-1.66-.03-.58-.05-1.2.22-1.74-.35-.19-.2-.72-.13-1.11.18-.43.35-1.05.33-1.51.02-1.57-1.04-3.34-1.64-5.07-2.32-1.4-.54-2-1.09-2.05-2.54-.02-.64-.29-.95-.82-1.24-1.48-.82-3.12-1.18-4.72-1.63-1.48-.42-2.83-1.16-3.85-2.19-2.44-2.47-5.48-4.23-7.81-6.84-.81-.91-1.99-1.5-3.35-1.38-1.7.15-3.22-.34-4.7-1.2-.75-.44-1.6-.77-2.49-1.02-1.13-.32-2.16-1.01-2.9-2.01-.45-.61-1.02-.79-1.77-.77-.95.03-2.03.34-2.82-.16-.8-.51-1.83.26-2.46-.64-.04-.06-.27-.02-.4,0-2.88.39-5.32-1.2-7.98-1.81-.12-.03-.22-.27-.3-.26-1.86.37-3.53-.53-5.25-.9-2.18-.48-4.49-.18-6.56-1.19-1.5.22-2.9-.72-4.39-.4-.8.17-1.32-.49-2.12-.48-1.81.04-3.47.87-5.26.88-.68.68-1.6.18-2.3.46-.78.31-1.54.43-2.34.36-1.47-.13-2.98.37-4.42-.37-.28-.14-.81-.2-1.16.14-.15.14-.35.37-.51.23-.92-.8-1.48.05-2.22.37-2.06.9-4.15,1.72-6.38,2.17-1.43.29-2.84.83-4.18,1.42-.74.32-1.51.2-2.27.55-.94.43-2.23-.33-3.17.33-.85.6-1.91.34-2.74.95-.32.23-.94.02-1.43.04-1.22.06-2.36.33-3.19,1.32-.09.11-.2.19-.29.3-1.12,1.37-2.54,1.87-4.3,2.2-2.51.47-5.12.81-7.47,1.99-1.24-.09-1.94.78-2.69,1.54-.8.82-1.54,1.88-2.64,2.14-1.46.35-2.75,1.07-4.2,1.45-1.64.44-3.17,1.36-4.71,2.15-.79.4-1.55.72-2.45.62-.48-.05-.9-.08-.98.66-.03.34-.74.27-.91.14-.87-.67-1.6-.6-2.3.21-1.86.18-2.35,2.13-3.74,2.92-.28.16-.55.43-.45.85.03.13.06.36,0,.4-1.73,1.15-2.58,3.49-5.14,3.61-.79.04-1.78.73-2.26,1.41-.69.97-1.31,2.04-1.75,3.21-.9,2.39-1.85,4.76-3.88,6.5-.6.52-.93,1.19-1.26,1.96-.68,1.59-1.75,3.03-2.72,4.48-1.04,1.55-2.08,3.12-3.52,4.36-1.16,1-1.04,2.48-1.47,3.76-.1.3.02.63-.28.93-1.43,1.41-2.43,3.18-3.78,4.68-1.21,1.34-2.7,2.36-3.85,3.74-.63.76-1.33,1.41-1.7,2.42-.55,1.49-1.38,2.89-2.12,4.31-.66,1.28-1.66,2.35-2.46,3.54-.75,1.11-1.27,2.24-1.61,3.5-.25.92-.66,1.85-1.54,2.2-1.47.58-1.62,1.85-1.74,3.04-.09.93-.29,1.82-.45,2.73-.14.84.2,1.76-.43,2.53.31,2.14-1.23,3.82-1.49,5.84-.07.52-.14,1.05-.15,1.58-.01.49-.48.73-.47,1.28.02,1.07-.35,2.06-1.23,2.8-.64.54-.57,1.23-.18,1.81.32.47.26.96.17,1.37-.56,2.73-1.06,5.5-1.88,8.16-.34,1.1.23,1.78.51,2.55.65,1.84.65,2.01.18,4.38-.34,1.72-.67,3.43-1.27,5.09-.07.18-.02.41,0,.62.23,3.77-.59,7.48-.47,11.26.06,1.97.51,3.82,1.38,5.46,1.61,3.04,2.57,6.29,3.56,9.54.33,1.08.37,2.39-.3,3.55-.38.65-.57,1.42-.85,2.14.68.66.11,1.65.53,2.26.46.68.27,1.32.28,1.96.01.62.46,1.03.49,1.69.12,2.68.73,5.3,1.51,7.87.17.57.16,1.23.08,1.83-.18,1.28.37,2.36,1,3.33.86,1.33,1.92,2.54,2.91,3.78.29.36.63.63.76,1.15.19.73,1.07.41,1.53.75.64.47,1.06.23,1.58-.23,1.11-.97,2.16-.09,3.07.36,1.34.66,1.48.81,2.57-.25.53-.53,1.25-.69,1.65-.42.79.52,1.57.35,2.35.35,4.02.03,8.03.09,12.05-.03,1.38-.04,2.61.61,3.99.49,1.19-.11,2.32-.45,3.49-.63,2.14-.31,4.18-1.51,6.41-1.03,1.81.39,3.69.06,5.43.46,2.53.57,5.03.09,7.56.4.58-1.56-.25-2.72-.97-3.87-.27-.43-.65-.8-1.33-.81-.46,0-.95-.38-1.35-.69-.49-.37-.94-.82-.75-1.55.02-.06,0-.14,0-.21.14-1.13-.24-2.29.27-3.42.48-1.05,1.29-1.84,1.97-2.7.63-.79,1.08-1.66,1.45-2.53.54-1.3.93-2.65,1.58-3.92.32-.62.54-1.3.74-1.98.22-.73-.42-1.26-.68-1.82-.28-.59-.34-.81.08-1.35,1.62-2.09,2.62-4.43,2.95-7.1.08-.68.14-1.61,1.14-2.02.42-.17.81-.94.85-1.46.12-1.73,1.05-3.19,1.41-4.84.55-2.48,1.77-4.82,1.53-7.46-.03-.32.14-.7-.19-.96-.22-.17-.29-.55-.76-.15-.96.82-1.07.82-1.96-.12-.5-.53-1.02-.56-1.64-.59-.74-.04-1.06.31-1.29.98-.12.35-.54.6-.81.91-.37.44-.79.81-1.41.6-.59-.2-1.11-1.17-1.09-1.8.01-.28.14-.49.23-.74.23-.63.6-1.44.38-1.94-.38-.88.19-1.91-.6-2.67-.69-.66-1.3-1.4-2.06-2.22.96-.96,1.95-1.96,2.95-2.94.33-.33.4-.54.13-1.02-.71-1.26-1.2-2.62-2.36-3.6-.6-.51-.62-1.24-.33-2.21.02-.06-.02-.14,0-.21.2-.61.24-1.51.65-1.75.58-.33,1.2-.78,1.9-.9.74-.12,1.32-.47,1.91-.92,1.3-.99,2.61-2.02,4.05-2.75.69-.35.97-.8,1.26-1.36.25-.49-.22-1.4-.75-1.64-2.58-1.17-5.07-2.44-6.28-5.3-.34-.8-.27-1.65-.66-2.43-.29-.58-.41-1.26-.93-1.68-1-.8-1.24-2.01-1.52-3.1-.21-.81-.42-1.64-.71-2.42-.13-.34-.22-.66-.16-.96.23-1.18-.3-2.26-.52-3.35-.12-.63-.32-1.27-.32-1.92-.01-2.63-.06-5.26.03-7.89.02-.62-.28-1.13-.21-1.79.18-1.72,1.51-2.85,1.98-4.39.13-.42.63-.77.65-1.17.04-1.15,1.09-1.35,1.66-1.99.14-.16.39-.17.51-.26.93-.8,1.7-2,2.76-2.37,1.06-.38,2.25-.58,3.31-1.04,1.16-.51,2.2-1.21,3.05-2.19.63-.73,1.36-1.38,2.05-2.06-.41-.67-1.33-.66-1.75-1.33-1.07-1.69-2.5-3.17-3.08-5.16-.04-.12-.16-.24-.15-.35.22-2.39-.74-4.71-.41-7.1.11-.83.21-1.74.63-2.43.61-1,.61-2.01.61-3.08,0-1.11-.07-2.22.02-3.32.12-1.49-.4-2.74-1.3-3.82-.69-.83-.26-1.69-.33-2.54,0-.05.21-.13.33-.16.82-.2,1.64-.38,2.47-.57.4-1.13,1.66-.32,2.3-1,.17-.18.65-.09.99-.09,1.67.04,3.26-.51,4.87-.72,1.78-.23,3.59-.88,5.41-.51,1.38.28,2.95.49,4,1.3,1.33,1.03,3.05,1.12,4.29,2.31.85.81,1.41,1.65,1.44,2.71.09,2.7.16,5.41-.02,8.1-.12,1.81-1.11,3.4-2.07,4.95-1.31,2.1-2.36,4.32-2.46,6.88-.02.55.19,1,.38,1.51.27.72.66.93,1.36.91.83-.03,1.66,0,2.49,0,1.8,0,1.83-.05,3.38.85.66.39,1.17.66,1.75-.02,2.52-.54,4.86-1.74,7.35-2.29,2.19-.49,4.09-1.52,6.07-2.42,1.53-.69,3.2-.95,4.77-1.52,1.46-.53,3.01-.69,4.49-1.2.55-.19.91-.33,1.23-.84.57-.91,1.03-1.89,2.12-2.45.8-.41,1.11-1.43,1.6-2.21.65-1.02,1.52-1.78,2.77-1.58,1.25.2,2.03-.93,3.19-.89.32.01.58-.7,1.01-.25.4.42,1.06.69.94,1.48-.06.41-.1.86.01,1.24.12.39.08,1.23,1,.55.55-.41,1.48.25,2.1-.46.14-.16,1.46.5,1.43.72-.11.77.47,1.34.48,2.12.01,2.49-.49,4.91-.85,7.35-.06.4-.25.61-.48.84-.49.49-.95,1.02-1.48,1.46-.69.58-.77,1.28-.37,1.98.94,1.62,1.48,3.41,2.3,5.08.26.54.6.89,1.24.78,1.78-.3,3.46.58,5.23.43.59-.05,1.12.32,1.68.47,1.93.51,3.84,1.07,5.75,1.65.66.2,1.31.64,1.65,1.53.93,2.46,2.75,4.35,4.52,6.22,1.39,1.46,2.59,3.07,3.79,4.68.37.49.62,1.1.7,1.79.07.59-.98.9-.22,1.62.45.43.13,1.18.16,1.78.04.62.08,1.26-.01,1.87-.11.72.65,1.15.47,1.92-.14.56.24,1.17.31,1.7.2,1.51.25,3.1-.42,4.56-.38.83-.77,1.65-.75,2.6.02.87-.59,1.6-.44,2.53.19,1.14-.32,2.28-.92,3.12-1,1.39-1.65,2.93-2.36,4.44-.5,1.06-1.2,1.85-2.26,2.36-1.08.51-2,1.27-2.88,2.06-.54.49-.94,1.12-1.4,1.67-.33.4-1.13.53-1.65.94-.94.75-1.91,1.47-3.24,1.19-1.26.76-2.9.05-4.11,1.14-.47.43-1.29.17-1.94.26-1.89.27-3.6,1.26-5.59,1.15-.77-.05-1.3-.64-2.12-.51-.69.11-1.5.27-2.11-.38-1.98.29-3.72-.92-5.68-.86-1.19.04-2.08-.89-2.84-1.58-2.12-1.94-4.57-3.4-6.82-5.13-2.01-1.55-3.89-3.25-4.45-6-.26-1.29-.93-2.53-1.59-3.69-.94-1.63-1.51-3.39-2.21-5.11-.25-.62-.22-1.1-.07-1.7.39-1.57,1.07-3.1,1.04-4.75,0-.56.67-.75.45-1.28-.3-.74.54-1.19.44-1.91-.1-.68,0-1.38-.03-2.07-.03-.95.36-1.77.75-2.6.25-.52.48-1.05.74-1.56.26-.51.36-1.13.03-1.51-.29-.32-.79-.03-1.25.17-1.46.64-1.51.57-1.5,2.04,0,1.36-.15,2.66-1.22,3.65.14.79-1.02.92-.88,1.71-.82.8-1.49,1.87-2.94,1.44-1.14-.34-1.93.67-2.96.89-2.05.43-2.38,1.04-2.37,3.19,0,1.23-.44,2.33-1.03,3.31-.71,1.19-.73,2.24-.28,3.53.34.96.79,1.9.95,2.95.06.36.28,1.02.79,1.32,1.58.94,1.93,2.67,2.4,4.19.44,1.41.99,2.79,1.34,4.24.13.53.33,1.14.82,1.52,1.9,1.47,2.78,3.69,4.11,5.58.65.93,1.62,1.56,2.09,2.66.59,1.39,1.45,2.62,2.45,3.77.65.75.47,1.85.84,2.76.3.75.61,1.58.52,2.51-.08.82.59,1.62.37,2.52-.19.83.26,1.55.41,2.32.16.8-.02,1.58.32,2.45.4,1.02.11,2.32.09,3.5-.01.64-.01,1.26.62,1.61,1.16.65,1.28,1.94,1.38,2.94.16,1.6.78,3.03,1.17,4.54.26,1,.22,1.92-.29,2.64-.97,1.36-1.71,3.01-3.76,3.26-.64.08-1.31.73-1.19,1.66.03.2,0,.42,0,.62.07,2.15-.36,4.22-.76,6.32-.29,1.53-.27,3.21.31,4.81.73,1.99,1.34,4.01,2.46,5.85.28.46.49.78.98,1.1,1.17.76,2.17,1.79,3.27,2.67.38.31.48.69.37,1.09-.33,1.17-.38,2.45-1.35,3.67ZM107.94,64.28c.06-.18,0-.24-.2-.19-.18.05-.37.05-.53.12-.13.05-.1.2.07.26.25.09.49.07.9-.76-.08.07-.19.11-.23.2-.08.17,0,.26.17.17.08-.04.14-.15.19-.24,0-.02-.08-.08-.37.43ZM108.17,111.89c.18.06.24,0,.19-.2-.05-.18-.05-.37-.12-.53-.05-.13-.2-.1-.26.07-.09.25-.07.49.54.58-.4.41.12,1.05-.41,1.37-.3.18-.03.34.11.35.17.01.49-.09.5-.16.03-.5.22-1.03-.54-1.48ZM102.12,116.89c-.28-.11-.38.14-.49.28-1.38,1.78-2.7,3.61-4.13,5.34-1.17,1.41-2.54,2.62-3.7,4.06-1.58,1.95-3.52,3.6-5.11,5.57-1,1.23-2.23,2.27-3.35,3.4-.78.78-1.87,1.45-2.23,2.39-.39,1.03-.09,2.32-.09,3.5,0,.07.01.14,0,.21-.1.52.39.67.63,1.01.62-.71,1.19-1.46,1.79-2.15,2.17-2.47,4.26-5,6.24-7.62,1.03-1.35,2-2.76,3.02-4.12,1.07-1.42,1.91-3.02,3.07-4.33,1.77-1.99,2.69-4.49,4.33-6.54.17-.21.02-.67.26-1.4-.08.07-.19.11-.23.2-.08.17,0,.26.17.17.08-.04.14-.15.19-.24,0-.02-.08-.08-.37.27ZM109.6,164.61c0,.69,0,1.38,0,2.08,0,.33.08.67-.26.93-1.18.94-1.75,2.41-2.93,3.35-.32.26-.74.53-.86.88-.36,1.04-1.31,1.53-1.93,2.31-.27.34-.59.49-1.06.47-1.04-.05-2.08.06-3.11-.04-.96-.09-1.84,1.05-2.82.14-.12-.11-.18-.1-.3.06-.4.53-.96.9-1.3,1.53-.83,1.56-1.8,3.02-2.93,4.4-1.05,1.28-1.76,2.74-1.64,4.51.05.68.36,1.3.4,1.9.12,2.32,1.18,4.37,1.74,6.57.18.71.69,1.28,1.6,1.28,1.54-.01,3.08.18,4.61.31,1.6.13,3.16.77,4.8.52.13-.02.32-.05.4.02,1.11,1,2,0,2.82-.43.85-.46,1.81-.75,2.56-1.31.66-.49,1.44-.54,1.91-.3,1.13.58,2.26.25,3.38.35.47.05,1-.08,1.42.09,1.86.76,3.79.11,5.67.33,1.2-.67,2.39-.61,3.61-.02.19.09.6.17.75-.12.12-.22.18-.57.08-.78-.59-1.23-1.25-2.43-2.11-3.48-.69-.84-1.52-1.51-2.72-1.43-.53.03-.89-.43-1.48-.47-.72-.05-1.33-1.55-1.07-2.28.25-.72.48-1.48.89-2.12,1.02-1.59,1.18-3.43,1.49-5.19.43-2.43-.43-4.85-.39-7.29,0-.54-.35-.87-.88-.92-.48-.04-.97-.03-1.45,0-.7.04-1.32.01-1.84-.61-.26-.32-.75-.5-1.18-.62-1.1-.31-1.76-1.17-2.55-1.88-.36-.32-.41-.66-.41-1.09.01-1.03.34-2.27-.12-3.04-.46-.79-.08-1.34.16-1.54.92-.76.75-1.62.35-2.42-.45-.9-.39-1.9-.79-2.79-.26-.58-.4-1.22-.66-1.8-.1-.21-.31-.45-.65-.41-.4.04-.3.34-.37.59-.49,1.66-.83,3.36-1.55,4.96-.23.51-.32,1.22.27,1.67.45.34.49.77.47,1.27-.03.62,0,1.24,0,1.87ZM90.51,86.94c-.22-1.57-.24-3.44-1.76-4.85-1.2-1.11-2.28-1.36-3.53-.42-.59.44-1.23.74-1.82,1.14-1.22.84-2.27,1.79-2.51,3.42-.13.91-.38,1.8-.43,2.74-.03.54-.62,1.15-.34,1.68.52.98.37,2.13,1.08,3.1.76,1.03.69,2.32.36,3.62-.31,1.2-.94,2.49-.57,3.67.39,1.27.29,2.59.75,3.84.53,1.44.72,3.05,1.43,4.38.61,1.12,1.26,2.27,2.01,3.33.83,1.18,2.27,1.69,3.21,2.78.6.7,1.45.72,2.23.25.35-.21.63-.46,1.08-.41,1.09.11,2.05-.4,2.97-.84,5.91-2.79,8.97-4.76,14.71-8.63,2.72-1.83,5.24-3.87,7.66-6.06.29-.26.48-.77.96-.66.86.2,1.5-.44,2.32-.51.65-.05,1.4-.24,2.07-.47,2.6-.87,3.57-3.04,4.25-5.43.16-.58-.29-1-.38-1.5-.1-.53-.48-.37-.73-.5-.57-.29-4.11-.97-4.44-.73-.33.24-.72.32-1.03.54-2.17,1.52-4.1,3.32-5.41,5.62-.39.69-1.01,1.09-1.45,1.15-.92.13-1.74.63-2.7.57-.52-.03-1.12-.21-1.5.38-.78-.25-1.4.35-2.09.51-1.43.33-2.89.61-4.29,1.14-1.91.72-3.9,1.17-5.8,2.04-2.47,1.13-3.36,1.52-4.43,4.57-.11.32-.21.61-.24.94-.04.56-.48.34-.78.38-.35.04-.45-.15-.47-.48-.1-1.15.37-2.2.68-3.26.16-.55.2-1.09.12-1.59-.12-.69.75-1.1.43-1.69-.76-1.43-.23-2.94-.4-4.4-.04-.33.04-.63-.12-.99-.51-1.18-.78-2.46-1.26-3.63-.34-.83-.46-1.73-.2-2.34.31-.75.26-1.43.36-2.41ZM113.17,149.37c.49-.81.93-1.59,1.42-2.33.21-.32.47-.81.93-.65.64.22.42.98.26,1.23-.52.84-.67,1.8-1.14,2.65-.72,1.31-1.41,2.62-1.34,4.23.07,1.81.92,3.37,1.4,5.04.18.62.88.74,1.71.58.33-.06.69-.1,1.02-.03.71.14,1.26-.32,1.9-.44.24-.04.32-.46.66-.4,1.43.24,2.75-.68,4.19-.42.27.05.64.12.82-.01.86-.63,1.9-.13,2.73-.44.99-.37,1.96-.35,2.96-.37.14,0,.28.01.42,0,.54-.06.86-.36.91-.9.03-.41,0-.83,0-1.25.09-4.17-.61-8.31-.48-12.5.05-1.5-.35-3.07-1.15-4.49-.26-.47-.66-.78-.92-1.27-1.09-2.09-2.49-4.03-4.03-5.79-1.24-1.43-2.35-2.99-3.75-4.3-.37-.35-.66-.82-.96-1.23-.85-1.16-1.95-2.15-3.05-3.09-.21-.18-.61-.51-1.02-.49-1.47.07-2.95-.2-4.41.39-1.37.55-2.28,2.18-2.31,3.69-.04,1.84.76,3.59.47,5.44-.04.27-.11.62.01.82.56.87.45,1.83.38,2.75-.08.97.32,1.83.41,2.74.1,1.03,0,2.07.03,3.11,0,.32-.15.69.16.97.15.14.28.39.45.41.13.01.3-.24.43-.39.08-.09.17-.21.19-.33.43-1.95,1.2-3.79,2.02-5.6.17-.37-.14-.83.28-1.13.21-.15.33-.44.67-.4.4.05.32.33.36.6.18,1.1-.32,2.07-.58,3.09-.21.81-.46,1.61-.67,2.42-.05.2-.01.45.2.52.17.06.39.08.56-.11.37-.41.78-.79,1.17-1.18.49-.49.98-.97,1.47-1.47.17-.18.39-.16.56-.09.22.09.16.34.2.53.13.62-.39.84-.71,1.16-2.17,2.16-3.65,4.78-4.99,7.49-.19.38-.23.76.12,1.26ZM92.7,144.84c.41.31.62.59.84.61.79.07,1.59.25,2.37-.13.5-.25,1.11.06,1.22.52.16.7-.56.4-.78.67-.43.53-1.03.16-1.55.26-.51.1-1.1-.23-1.53.32-.18.23-.74-.06-.71.5.02.34.01.62.27.93.67.8,1.67,1.03,2.5,1.53.48.29,1.15.5.91,1.04-.21.47-1.08.42-1.45.12-.53-.43-1.04-.22-1.55-.29-.28-.04-.5.03-.73.24-.7.64-1.36,1.33-1.59,2.25-.56,2.25-1.52,4.36-2.22,6.56-.26.82-.07,1.24.69,1.34.47.06.97-.02,1.4.12,1.26.41,2.5.81,3.86.73.38-.02.79-.13,1.19.13,1.05.68,2.25.84,3.44.66.8-.12,1.53.25,2.08.52.96.47,1.87.36,2.77.29.59-.05,1.39-.32,1.65-.94.53-1.3,1.11-2.65,1.26-4.02.1-.93.55-1.78.5-2.73-.05-1.04-.09-2.08.01-3.11.08-.83.31-1.66.61-2.44.72-1.9,1.51-3.73.66-5.86-.31-.78-.16-1.8-.02-2.67.16-1-.56-1.76-.46-2.74.31-3.14-.69-6.23-.4-9.37,0-.07.02-.15,0-.21-.05-.12-.1-.3-.19-.32-.18-.05-.4-.1-.56.1-.21.26-.42.45-.51.83-.97,3.82-3.27,7.08-4.56,10.77-.16.45-.55.39-.93.03-.29-.28-.35-.57-.31-.92.2-1.79-.08-3.35-1.71-4.5-.7-.49-.53-1.55.17-2.08.28-.21.88-.07.7-.72,1.09-.91,1.63-2.25,2.52-3.31.67-.79.69-1.8,1.19-2.64.25-.41-.05-.91-.48-1.22-.26-.19-.63-.19-.69.07-.24,1.27-1.37,2.02-1.75,3.23-.3.97-.81,1.9-1.37,2.74-1.52,2.29-3.13,4.51-4.67,6.79-.69,1.02-1.22,2.14-1.94,3.13-.29.4-.4.81-.26,1.12.26.54.86.16,1.3.25.05.01.13-.02.18-.06.99-.7,2.12-.21,3.18-.34.09-.01.26.13.28.23.04.19.04.55-.15.52-.54-.08-.73.56-1.27.5-1.16-.12-2.05.71-3.41.95ZM152.07,57.16c-.97,0-2.94.75-3.73,1.21-1.12.65-1.61,1.87-2.6,2.64-.47.36-.77.8-.88,1.51-.16,1.01-.77,1.75-2.1,1.62-.81-.07-1.62.58-2.52.37-.63.86-1.63.32-2.45.6-1.88.66-3.64,1.59-5.52,2.22-1.12.38-2.16.8-3.13,1.48-.56.4-1.21.66-1.99.72-1.62.14-3.52.88-4.19,2.67-.32.84-.74.72-1.16.51-.52-.26-.99-.61-1.57-.72-1.43-.28-2.79.29-4.18.46-1.24.16-2.27,1.78-2.29,3.12-.02,1.45.04,2.91-.02,4.36-.06,1.66.71,2.89,1.79,4.04.56.6,1.27.69,1.82.35,1.05-.65,2.21-1.05,3.33-1.5,1.15-.46,2.26-1.04,3.2-1.75,1.47-1.11,3.26-1.74,4.56-3.13.29-.31.96-.55,1.61-.61.87-.07,1.86-.31,2.54-.82,1.42-1.07,3.03-1.7,4.59-2.48.34-.17.74-.28,1.02-.54,2.06-1.91,4.69-3.07,6.58-5.24.84-.97,2.27-1.69,3.58-1.2,1.63.62,3.23.19,4.83.34.46.04.87-.41.83-.73-.22-1.58.64-3.04.45-4.61-.02-.14.05-.31-.01-.41-.3-.49-.36-1.13-.84-1.52-.53-.43-.92-.05-1.43.15-.96.36-1.75-.11-2.22-1.04.67-.67,1.31-1.31,2.09-2.09ZM105.44,51.08c.39-.95-.53-1.91-.39-2.98.11-.85-.38-1.33-.92-1.68-.52-.34-1.08-.66-1.82-.63-1.8.08-3.6.05-5.4.02-.51,0-.94-.31-1.55-.04-.52.23-1.23,0-1.85.06-1.07.11-2.05,1-2.19,1.96-.06.4-.25.77-.32,1.1-.21.98-.34,2.08.03,3.02.29.75,1.33.74,1.97,1.18.54.38,1.19.13,1.79.19.26.02.61-.07.67.28.18,1.1.83,2.22.31,3.3-.23.47-.34.9-.27,1.33.17,1.05-.36,1.94-.58,2.89-.05.22-.27.41-.28.71-.01.5.24.7.75.64.67-.09.8-.54,1-1.08.12-.31.48-.81.95-.56.31.17.69.44.64.96-.05.47-.15.87-.35,1.31-.2.44-.95,1.02-.12,1.75.29.25.18,1.16-.43,1.62-.44.33-.8.77-1.18,1.16-.28.29-.7.56-.8.91-.15.5.33.94.45,1.46.26,1.11,1.23,1.27,2.35.78.33-.15.58-.33.8-.56.44-.45.94-.6,1.56-.78,2.43-.7,2.92-1.24,4.2-3.71.71-1.37.89-2.95,1.81-4.24.4-.57.9-1.15.84-1.93-.07-.86-.99-.77-1.43-1.23-.32-.33-.55-.91-1.08-.85-.42.05-.85.31-1.19.59-.32.25-.7.29-1.03.55-1.23.95-2.3,1.08-3.59.48-.73-.34-1.44-.9-1.6-1.7-.11-.58-.56-1.32-.39-1.65.3-.59.23-1.16.38-1.72.07-.26.16-.8.95-.47.85.35,1.96.43,2.91-.19,1.03-.67,2.06-.62,3.11.06.57.37,1.24.08,1.3-.51.05-.55.01-1.11.01-1.83ZM120.9,87.07c.29,1.05,1.11.7,1.63.9,1.36.51,2.93,1.11,4.27.58,1.91-.77,3.94-1.12,5.86-1.89,1.29-.52,2.36-.93,3.29-2.07,1.48-1.81,3.28-3.37,4.94-5.03.23-.23.41-.55.83-.51,1.16.11,2.07-.73,3.18-.84.51-.05.83-.4.85-.96.03-1.34-.06-2.67.38-3.99.26-.78-.26-1.15-1.05-.77-.75.36-1.54.63-2.23,1.14-1.04.76-2.28,1.17-3.38,1.87-2.24,1.42-4.17,3.24-6.32,4.75-.27.19-.45.42-.84.49-2.18.42-2.18.43-3.58,1.85-.76.77-1.52,1.51-2.72,1.46-.44.84-1.51-.02-1.98.73-1.43.29-2.21,1.44-3.11,2.28ZM134.43,110.28c.3-2.5-.66-4.32-.32-6.24.08-.41-.4-.49-.44-.87-.07-.67-.47-.53-.82-.21-.58.51-.83,1.17-.83,1.94.01,1.52.07,3.05-.02,4.57-.06,1.03.21,1.99.47,2.93.12.42.31.82.41,1.28.27,1.25.77,2.44,1.4,3.57,2.41,1.47,4.1,3.8,6.48,5.36,1.53,1,2.81,2.44,4.39,3.47.51.34.78.43,1.17-.05.29-.36.57-.67.76-1.14.5-1.24.3-1.75-1.03-1.79-1.15-.04-2.29-.35-3.1-1.01-1.3-1.07-2.68-2.12-3.78-3.38-.99-1.13-2.21-2.17-2.82-3.58-.77-1.76-2.3-3.29-1.94-4.87ZM156.24,128.5c.65,0,1.31.2,1.73-.04,1.34-.75,2.92-.68,4.23-1.33.8-.4,1.74-.07,2.41-.71,1.85.07,3.15-1.01,4.6-1.97,1.29-.86,2.22-2.09,3.56-2.89,1.63-.98,2.39-2.79,3.26-4.43.21-.39-.09-.61-.33-.86-.29-.29-.54-.32-.86-.04-1,.9-1.64,2.06-2.36,3.18-1.12,1.74-1.73,2.96-4.4,3.75-.73.22-1.61.03-2.09.4-.89.71-2.07-.11-2.81.78-1.02-.11-1.97.2-2.95.4-1.02.21-2.02.43-3.01.77-1.21.41-2.47.89-3.68-.18-.46-.4-1.11-.23-1.38.32-.29.6-.99,1.18-.44,1.96.14.21.45.49.62.45,1.38-.27,2.62.71,3.89.44ZM84.06,133.5c.98-1.18,2.17-2.07,3-3.37.63-.99,1.7-1.67,2.68-2.41,1.94-1.46,2.81-3.76,4.02-5.77.35-.59.93-1.23.85-2.14-.53.27-1.02.36-1.38.74-2.06,2.2-4.99,3.25-7.07,5.42-.78-.13-.92,1.04-1.71.86-.74-.17-1.1.34-1.57.73-.58.48-.72,1.04-.73,1.79-.03,1.65.64,2.94,1.91,4.15ZM176.91,104.5c0-.55-.01-1.1,0-1.65.01-.5-.38-.87-.68-.89-.7-.06-1.41-.14-2.13.33-.55.36-.76.68-1,1.28-.33.8-.3,1.55-.35,2.34-.04.6.12,1.2-.15,1.8-.69,1.51-.91,3.19-1.74,4.66-.41.72-.24,1.06.52,1.7.51.43,1.35.49,1.82.08.3-.26.56-.58.8-.91.76-1.04,1.21-2.24,1.67-3.44.65-1.71,1.29-3.41,1.24-5.27ZM98.63,77.81c-.2.11-.32.31-.23.5.11.23.29.55.49.61.83.23,1.15.92,1.11,1.58-.05.94.48,1.48,1.09,1.82.49.27,1.03.51,1.53.79.75.41.26,1.22.53,1.85.77,1.82,1.51,3.73,1.81,5.67.29,1.82.77,3.61.89,5.46.03.39.23.46.53.43.22-.03.3-.18.32-.42.08-1.02-.3-1.97-.38-2.95-.12-1.47-.75-2.89-.46-4.39-.72-1.06-.1-2.52-1.08-3.5-.34-.34-.08-.79-.17-1.18-.3-1.37.53-2.64.4-3.98-.13-1.39.51-2.56.86-3.81.38-1.34,1.23-2.31,2.51-2.87.06-.03.1-.1.15-.14.24-.19.34-.45.17-.7-.19-.27-.46-.25-.7-.02-.69.68-1.41,1.34-2.05,2.06-.78.88-1.47,1.75-1.83,2.98-.61,2.12-1.25,2.42-3.08,2.3-.43-.03-.46-.22-.63-.56-.27-.53-.82-.9-1.24-1.36-.17-.19-.36-.16-.55-.17ZM177.02,91.79c-.26-.54.17-1.28-.29-1.42-.95-.31-.99-1.32-1.7-1.81-.73-.51-1.29-1.24-1.93-1.88-.52-.53-1.11-.86-1.87-1-.81-.15-1.74-.33-2.32-.84-1.46-1.28-3.29-1.77-4.92-2.69-.89-.5-1.88-.81-2.81-1.22-.62-.27-1.2-.19-1.78-.18-.26,0-.51.38-.77.59.2.2.36.45.59.57.34.18.73.09,1.13.27,1.56.7,2.88,1.75,4.27,2.7,1.66,1.13,3.38,2.19,5.25,2.85,1.99.71,3.81,1.62,5.02,3.32.57.79,1.03,1.04,2.12.74ZM95.85,129.91c-1.09,1.35-2.04,2.42-2.86,3.58-1.31,1.87-2.68,3.7-3.84,5.67-.63,1.07-1.44,2.04-2.19,3.04-.33.44-.33.83,0,1.28.35.47.86.56,1.26.33.68-.38,1.48-.69,1.84-1.47.54-1.17,1.49-2.03,2.22-3.04.74-1.03,1.62-1.93,2.39-2.93.93-1.19.55-2.65,1.13-3.91.28-.61.05-1.46.05-2.56ZM153.24,81.78c-.26-.26-.39-.52-.56-.54-2.34-.31-4.65-.07-6.82.86-1.12.48-2.04,1.47-3.18,1.8-.93.27-1.68.69-2.08,1.41-.58,1.04-1.41,1.82-2.26,2.57-.98.87-1.49,2.08-2.45,2.95-.3.27-.4.79-.51,1.22-.05.18.16.32.41.32.34,0,.45-.28.64-.46.94-.92,1.73-2.05,2.82-2.73,1.38-.86,2.46-2.07,3.77-2.91,1.37-.88,2.58-1.87,3.72-3,.24-.23.42-.54.84-.47,1.15.19,2.24-.35,3.35-.37.84-.02,1.54-.27,2.31-.65ZM166.09,90.05c.34.34.61.81,1.01.97.99.41,1.48,1.19,2.05,2.03,1.27,1.89,2.28,3.92,3.57,5.8.42.61.89.91,1.47.95.75.06,1.36-.42,1.85-.98.08-.1.03-.4-.06-.54-1.4-2.12-2.78-4.25-4.26-6.31-.49-.68-1.08-1.43-2.13-1.33-.33-.66-1.15-.12-1.6-.7-.27-.35-1.12-.19-1.89.12ZM130.92,165.96c.83-.17,1.46.16,2.01-.31,1.19-1.01,1.96-2.33,2.76-3.63.13-.2.11-.53.08-.79-.04-.38-.42-.43-.61-.29-.71.52-1.15,1.26-1.46,2.08-.18.46-.42.82-1.01.81-1.52-.02-3.04.05-4.56-.02-1.46-.07-2.99.4-4.39-.4-2.04.29-4.01-.62-6.04-.41-.35.04-.96-.3-1.02.32-.08.87.67.38,1.04.5.12.04.31-.03.4.03.96.69,2.1.63,3.18.87,1.2.27,2.37.34,3.57.35.35,0,.74-.11,1.03.02,1.69.75,3.56.22,5.01.87ZM160.29,120.66c-.02,1.07.18,1.41,1.06,1.59.3.06.63.03.98-.11,1.06-.44,2.2-.7,3.27-1.13,1.67-.67,3.24-1.56,4.79-2.47.31-.18.26-.41.29-.67.11-.99-.56-1.38-1.25-1.86-.66-.47-1.17-.25-1.75.03-.51.24-.92.65-1.14,1.12-.57,1.22-1.48,1.74-2.81,1.82-.89.06-1.77.38-2.64.63-.5.15-1.09.31-.81,1.05ZM153.61,77.4c.14-1.75-.35-3.17-.75-4.62-.18-.66-.16-1.36-.81-1.72-.55-.31-1.16-.52-1.77-.7-.32-.1-.69-.06-.9.3-.33.55-.75,1.05-.73,1.76.02,1.24-.01,2.48.01,3.71.02.98.31,1.25,1.35,1.27,1.16.02,2.32,0,3.6,0ZM137.44,107.27c0,.88-.02,1.71,0,2.54.02.43.73,1.01.96.82.53-.43,1.13-.86,1.44-1.43.21-.39.13-.97-.14-1.52-.85-1.76-.99-3.72-1.42-5.6-.21-.93.07-1.82.59-2.64.61-.98,1.15-2,1.77-2.98.25-.39.08-.6-.18-.86-.47-.48-.93-.41-1.42-.05-1.54,1.13-1.78,2.84-2.02,4.54-.34,2.44.54,4.83.41,7.21ZM90.07,60.98c0,.76.08,1.53-.02,2.28-.11.79.32,1.41.48,2.1.3,1.24.58,2.55,1.59,3.48.4.37.9.26,1.14-.25.24-.51.24-1.03-.02-1.54-.29-.57-.54-1.17-.89-1.7-.39-.57-.31-1.04.19-1.42.46-.35.68-.94.41-1.24-.9-1.03-.04-1.69.37-2.45.15-.28.56-.41.5-.83-.04-.31.1-.79-.44-.71-.96.15-1.67-.2-2.37-.82-.34-.3-.92.12-.93.6-.01.83,0,1.66,0,2.49ZM101.47,78.28c.24-.28.61-.52.62-.77.03-.81.48-1.47.69-2.21.49-1.7,1.89-2.72,3.06-3.91.97-.99,1.8-1.99.86-3.46-.09-.15,0-.41-.02-.61-.02-.31.13-.72-.43-.73-.41,0-.3.32-.42.54-.19.35-.33.67-.43,1.07-.18.76-.53,1.61-1.27,1.92-.63.26-1.28.56-2.02.65-1.27.16-2.34.78-3.2,1.74-.11.12-.15.42-.08.54.16.27.47.3.68.06.37-.4.79-.67,1.3-.88.86-.36,1.19-.35,1.56.24.34.54.2,1-.28,1.42-.47.41-.88.88-1.33,1.31-.48.46-.5,1.05-.03,1.39.6.43.44,1.08.73,1.69ZM156.32,122.69c.91.02,1.39-.42,1.48-1.37.07-.7-.39-1.1-1.31-1.12-.83-.02-1.66-.06-2.48,0-1.37.12-2.6-.33-3.79-.86-1.28-.57-2.77-.67-3.88-1.65-.04-.03-.14,0-.2,0-.58-.14-.94.23-1.18.63-.22.35.24.57.38.85.5.95,1.53,1.14,2.34,1.36.79.22,1.68.4,2.5.44,1.43.06,2.64.57,3.92,1.07.7.28,1.39.75,2.22.64ZM147.37,86.4c-1.59,1.59-3.24,2.79-4.99,3.88-1.5.94-1.58,1.57-.46,2.62.39.36.6.29,1.02.01.63-.42,1.39-.63,2.07-.98,1.17-.6,2.35-1.19,3.22-2.24.28-.33.39-.63.46-1.06.16-1.09-.51-1.59-1.32-2.22ZM126.55,161.74c1.22,0,2.12-.05,3.01.02.75.06,1.33-.14,1.76-.76.26-.37.97-.63.65-1.11-.23-.36-.87-.5-1.36-.62-.39-.1-.97-.19-1.21.01-.67.59-1.42.32-2.13.38-.41.04-1.02-.17-1.2.04-.67.77-1.61.05-2.28.53-.75.54-1.58.15-2.37.27-.13.02-.3-.04-.4.02-.1.05-.17.2-.2.32-.05.21.05.49.24.48,1.96-.11,3.84.82,5.49.43ZM126.14,167.65c-.7-.62-.89-1-1.42-.93-.48.06-1.08.19-1.43-.02-1.1-.66-2.27-.43-3.37-.34-1.19.1-2.21-.56-3.36-.46-.26.02-.64-.08-.7.23-.06.3-.14.65.12.97,1.11,1.39,2.63,1.98,4.27,1.65,1.13-.23,2.33-.27,3.4-.78.66-.32,1.34-.5,2.49-.32ZM180.2,99.91c.37-1.25-.28-2.52-.4-3.85-.05-.6-.88-1-1.42-.8-.4.15-.58.75-.4,1.28.29.85.57,1.68,1.13,2.45.46.64.79,1.66.62,2.37-.19.79-.41,1.56-.31,2.34.12.86-.33,1.58-.52,2.3-.4,1.54-.23,3.29-1.37,4.61-.41.47.15.59.32.71.29.22.5-.21.55-.35.65-1.81,1.51-3.58,1.77-5.48.11-.79.71-1.63.42-2.28-.48-1.07-.26-2.12-.39-3.31ZM162.49,88.62c.14,0,.28,0,.42,0,.26,0,.58.08.7-.24.11-.29-.1-.5-.3-.7-1.05-1.01-2.45-1.48-3.63-2.29-.47-.32-1.35-.14-2.02-.05-.25.03-.55.41-.66.7-.29.75.36,1.76,1.28,1.71.92-.05,1.72.29,2.51.54.58.18,1.13.32,1.72.34ZM87.13,163.79c.09.71-.1,1.2.2,1.7,1.62,0,3.31.26,4.89-.07,1.69-.36,3.34-.27,5-.35.06,0,.15-.02.17-.06.07-.11.14-.23.14-.35,0-.12-.07-.33-.14-.34-.33-.05-.67-.07-1-.07-1.65,0-3.37.28-4.94-.09-1.42-.33-2.77-.22-4.33-.37ZM143.25,115.55c.06-.91-.3-1.65-.91-2.3-1.1-1.18-1.61-1.25-2.84-.31-.32.25-.54.48-.25,1,.56,1.02,1.33,1.83,2.25,2.49.37.26.76.32,1.32.07.6-.27.34-.62.43-.96ZM86.63,169.71c.57.47,1.06-.65,1.84-.49,1.42.29,2.74-.69,4.18-.42.2.04.34-.14.34-.4,0-.26-.13-.43-.33-.41-1.77.26-3.44-.62-5.22-.47-.77.07-1.25.35-1.73.86-.29.31-.24.65-.18.96.09.49.54.24,1.11.37ZM97.77,171.72c-1.31,0-2.62,0-3.92,0-.37,0-.48.19-.45.5.02.22.14.34.4.34.83-.01,1.76-.25,2.46.04,1.6.68,3.22.17,4.81.37.61.08.65-.26.65-.73,0-.49-.25-.54-.64-.53-1.1.02-2.2,0-3.3,0ZM99.59,170.47c1.39,0,2.69-.05,3.98.03.49.03.76-.3,1.05-.48.88-.52,1.66-1.2,2.51-1.85-.47-.26-.82-.22-1.22-.05-1.73.75-3.47,1.47-5.39,1.52-.46.01-.65.35-.94.83ZM156.5,101.08c-.42,0-.76.04-1.09,0-.93-.15-1.4.53-1.73,1.12-.37.65.3,1.08.71,1.51.23.24.43.51.64.76,1-.91,1.73-1.82,1.47-3.38ZM110.88,107.57c.37.27.82.29,1.11.03.78-.72,1.76-1.12,2.58-1.75.72-.57,1.41-1.23,1.67-2.18.03-.11-.01-.32-.09-.36-.16-.08-.47-.17-.54-.1-1.39,1.65-3.45,2.59-4.73,4.37ZM102.74,131.41c-.69.55-.9,1.44-1.57,2.03-.62.54-.39,1.37-.15,2.05.22.62.89.67,1.25.11.41-.64.76-1.32,1.07-2.01.1-.21.07-.68-.06-.76-.58-.35-.11-1.06-.55-1.42ZM105.44,127.21c1.36-1.77,1.75-3.57,2.9-4.91.04-.05-.04-.27-.12-.35-.08-.08-.29-.14-.36-.09-.65.44-1.42.81-1.89,1.4-.48.6-.67,1.42-.54,2.26.06.39.01.8.01,1.68ZM97.39,94.43c-.26.12-.3.33-.25.53.14.51.61.83.89,1.26.49.76.86,1.66,1.65,2.23.2.15.42.19.56.11.13-.07.19-.33.21-.51.04-.26-.08-.49-.19-.74-.52-1.24-1.68-1.92-2.51-2.87-.06-.07-.26,0-.36,0ZM103.13,167.09c1.33.56,2.46-.52,3.75-.37.17.02.28-.27.23-.48-.03-.12-.11-.29-.2-.31-.19-.05-.41,0-.61-.02-1.07-.1-2.01.58-3.12.47-.58-.06-1.77-.56-1.77.45,0,.72,1.15.13,1.74.27ZM162.55,101.51c-.94.62-.49,1.59-.61,2.42-.08.54.12,1.12.55,1.16.49.05.78-.58,1.11-.97.07-.08-.01-.27.01-.4.2-1-.31-1.66-1.06-2.21ZM104.38,116.91c-.97,1.76-2.01,3.53-1.67,5.72.46-1.93,2.23-3.41,1.67-5.72ZM151.59,94.93s-.29-.12-.47-.3c-.33-.33-.78-.31-1.09-.09-.49.36-.9.83-1.3,1.29-.19.22-.05.46.13.7.29.38.65.47,1.07.39.39-.07,1.61-1.35,1.67-1.99ZM156.72,60.21c-1.13,1.73-.3,3.45-.73,5.49,1.36-1.91,1.89-3.48.73-5.49ZM147.83,106.08c0-.7-.02-1.23,0-1.77.02-.36-.09-.62-.35-.88-.36-.36-.67-.36-.9.08-.41.77-.57,1.58-.34,2.45.45.23.93.08,1.59.13ZM158.3,95.68c.37,0,.51,0,.64,0,.55-.04.96-.36.9-.88-.05-.46-.42-.8-1.01-.79-.49,0-.92,0-1.3.4-.13.13-.54-.01-.57.38-.03.42.31.64.57.78.27.15.66.09.76.1ZM103.37,55.79c-1.29,0-2.51,0-3.72,0-.38,0-.46.22-.43.51.02.21.15.33.41.33.96-.02,1.92,0,2.87-.01.43,0,.64-.33.86-.82ZM99.87,126.84c.95-.96.78-2.39,1.41-3.48.02-.03-.16-.22-.26-.24-.2-.05-.52-.02-.52.18.01,1.08-.74,1.93-.86,2.96-.02.19-.06.42.24.59ZM134.94,158.6c.01-.22.06-.52-.3-.58-.27-.04-.52,0-.54.38-.03.53-.62.67-.81,1.08-.1.22-.07.55.3.6.91.14,1.36-.34,1.35-1.48ZM114.92,108.43c.05-.28-.13-.26-.33-.3-.67-.13-1.07.43-1.61.61-.12.04-.57.2-.33.55.15.21.38.44.61.49.42.08,1.59-.93,1.66-1.35ZM152.72,87.84c.13-.18.24-.48.44-.59.83-.42.06-.89.02-1.3-.04-.4-.56-.24-.88-.23-.39.01-.3.35-.34.61-.09.6.08,1.08.75,1.51ZM114.09,111.05c-.27,0-.56-.07-.8.02-.33.11-.79.29-.62.72.12.31.52.77.93.42.36-.31.7-.3,1.09-.33.21-.01.33-.15.33-.4,0-.25-.11-.38-.32-.41-.2-.03-.4,0-.6,0ZM105.68,111.26c.44,1.24-.35,2.39,1.21,3.24-.46-1.2.31-2.32-1.21-3.24ZM95.55,121.75c.95-.67,1.69-1.48,1.54-2.94-1.01.88-1.25,1.91-1.54,2.94ZM133.24,97.76c.21.04.33-.13.5-.24.42-.28.43-.69.36-1.09-.05-.29.73-.42.17-.73-.36-.2-.65.18-.82.45-.24.37-.42.79-.58,1.21-.09.23.11.36.36.4ZM98.83,118.03c.76.24,1.1-.19,1.18-.75.06-.42.99-.75.26-1.18-.74-.43-.57.49-.82.77-.27.31-.4.74-.62,1.16ZM91.15,54.99c.78.64,1.57.67,2.22,1,.17.09.33.26.42,0,.05-.15-.01-.4-.12-.54-.67-.84-1.53-.42-2.52-.47ZM97.94,127.12c-1.13.83-.78,1.74-.73,2.7,1.05-.68.72-1.59.73-2.7ZM112.01,119.05c-.7.62-1.34,1.3-1.09,2.42,1-.59.73-1.63,1.09-2.42ZM113.23,114.37c-.11.08-.26.13-.3.23-.09.22.5,1.36.73,1.43.11.03.28,0,.36-.07.3-.27.22-.71.11-.93-.16-.31-.41-.71-.9-.66ZM151.85,108.93s-.2.07-.27.26c-.14.38.17.59.4.83.28.29.55.29.83,0,.14-.14.41-.37.39-.41-.14-.22-.33-.43-.55-.57-.15-.09-.38-.06-.8-.11ZM159.31,109.8c.39.11.56-.07.57-.52,0-.46-.03-.78-.64-.73-.39.03-.63.07-.63.54,0,.46.03.83.69.71ZM102.48,97.74c.32.06.51-.14.45-.3-.16-.47-.39-.91-.64-1.34-.04-.06-.41-.11-.52.13-.28.6.11,1.37.7,1.5ZM115.89,88.32c-1.47-.48-1.36.96-2.07,1.27.06.09.12.26.18.26.73.02.95-.69,1.42-1.03.16-.11.27-.28.47-.5ZM108.23,95.81c.05-.85,1-1.37.18-2.17.24.73-.98,1.14-.18,2.17ZM102.54,113.58c.26-.26.61-.6.88-.86-.57.03-.86.43-.88.86ZM110.43,113.14c-.05-.12-.09-.33-.14-.33-.36,0-.45.36-.69.54.11.07.21.18.32.19.28.03.53-.03.51-.4ZM111.68,116.46c.02-.2-.03-.38-.27-.34-.06.01-.12.21-.14.33-.03.2.02.38.27.34.07-.01.1-.21.14-.33Z"/>
        <path class="cls-1" d="M192.79,55.96c-.33-2.24-.59-4.26-.94-6.27-.1-.55-.38-1.07-.75-1.56-1.12-1.47-2.37-2.8-3.69-4.08-1.42-1.37-2.73-2.85-4.37-3.98-.44-.3-.81-.75-1.12-1.19-.28-.39.1-.98.59-.95.33.02.64-.07.99.11.94.47,1.95.64,3.02.76,1.54.17,3.07.57,4.53,1.07.61.21,1.43-.25,1.85.54.3.57.6,1.14.88,1.71.88,1.81,1.68,3.67,3.08,5.17-.11.66.34.68.76.6,1.02-.2,2.03-.44,3.04-.68.12-.03.25-.16.35-.13,1.38.28,2.64-.45,3.98-.43,1.32.02,2.64-.11,3.94.04.94.11,1.86.5,2.74.89,1.23.55,2.34,1.3,3.68,1.67.51.14,1.01.32,1.52.29.49-.03.75.22,1.05.51.18.18.15.38.09.56-.03.09-.22.2-.32.18-1.5-.21-2.89.69-4.4.43-.38-.07-.79.12-1.15-.26-.29-.3-.78-.3-1.09.01-.3.3-.67.35-.93.23-.81-.37-1.58.05-2.37.03-.83-.03-1.68-.11-2.49.01-2.3.36-4.63.52-6.82,1.59-1.86.91-3.46,2.27-5.65,3.13Z"/>
        <path class="cls-1" d="M151.93,45.93c.38-.96,1.09-1.06,1.63-1.34.71-.36,1.45-.64,1.95-1.29.29-.39.66-.46,1.09-.4,1.98.26,3.48.56,4.95,2.17.38.42.89.73,1.36,1.06.25.18.46.03.72-.1.48-.24.93-.48,1.29-.9.66-.74,1.49-1.05,2.49-1,1.11.05,2.22.03,3.32,0,.92-.02,1.67.29,2.32.92.67.65,1.23,1.43,2.17,1.78.55.21.46.77.43,1.33-1.12-.17-2.02-.9-3.11-1.19-3.07-.84-3.13-1.03-5.52-.3-.99.3-1.99.94-2.51,1.85-.27.48-.58.88-.95,1.26-.86.88-1.45.91-2.11-.16-.8-1.31-1.98-2.23-2.97-3.33-.09-.1-.22-.18-.29-.3-.44-.72-1.28-.85-1.81-.56-1.46.81-2.92.04-4.46.49Z"/>
        <path class="cls-1" d="M173.24,62.42c1.47.02,2.57.34,3.47,1.26,1.05,1.07,1.49,1.21,2.77.39,1.1-.7,2.21-.87,3.41-.79,1.38.09,2.48.76,3.44,1.73.18.18.16.39.1.56-.08.22-.32.2-.53.2-.28,0-.49-.09-.74-.23-2.14-1.24-4.04-.6-5.77.88-.36.31-.73.54-1.16.73-.9.4-1.42.42-1.67-.32-.31-.94-1.05-1.43-1.68-1.99-.8-.71-1.88-1.14-2.91-.52-.48.29-1.16-.1-1.44.55-.2-.15-.44-.26-.58-.45-.2-.28.12-.23.26-.32.61-.37,1.27-.7,1.79-1.16.45-.4.89-.59,1.23-.51Z"/>
        <path class="cls-1" d="M45.19,231.54c.05.28-.19.49-.31.41-.81-.55-1.89-.24-2.7-1.04-.69-.68-.65-1.55-1.12-2.25-.1-.16-.16-.57.11-.75.29-.2.69-.19.95-.02.34.21.6.57.89.86.63.63,1.24,1.29,1.91,1.89.31.28.28.59.27.91Z"/>
      </g>
      <g>
        <path class="cls-1" d="M1309.48,111.43c2.21.5,4.07,1.91,6.56,2.19,1.89.22,3.54,2.02,4.7,3.66.96,1.37-.76,2.67-1.44,2.96-2.94,1.24-4.11,4.47-6.92,5.72-3.25,1.44-5.07,4.54-7.73,6.65-.76.6-.64,1.4-.32,2.02.53,1.04,1.86.9,2.43.52,2.51-1.7,5.7-2.01,8.02-4.02.43-.37.78-.29,1.02.12.31.52.67.83,1.28,1.06,3.35,1.24,3.45,4.12,1.27,6.94-1.42,1.84-2.62,4.11-3.62,6.33-.33.74-.12,1.45.73,2.11,1.28,1,2.3,2.34,3.37,3.58.74.86.83,2.12.05,2.71-1.23.91-1.27,2.06-1.34,3.28-.1,1.81-1.31,2.89-2.71,3.47-2.46,1.03-5.05,1.56-7.74,1.98-3.5.55-7.17,1.4-9.73,4.48-.89,1.08-2.16,1.13-3.32-.17-1.86-2.08-1.38-5.1-3.17-7.28-.63-.77-.71-2.77.69-3.85.51-.39.71-.91.72-1.52.08-2.91.17-5.83.21-8.74.01-.73.05-1.63-1-1.7-.86-.05-2-.41-2.42.68-.82,2.09-2.94,2.64-4.42,3.92-1.34,1.16-3.82-.36-4.01-2.54-.26-3.15-.4-6.34-.11-9.48.12-1.36,1.2-2.84,2.24-3.85,1.33-1.3,2.3-2.6,2.95-4.4.6-1.66,2.3-2.88,1.89-4.99-.2-1.05-.05-2.35-1.44-2.57-1.56-.25-2.83-2.76-4.79-.3-2.22,2.8-4.81,5.16-6.11,8.77-.84,2.33-3.14,4.23-5.06,6.03-.68.63-2.14.55-3.19-.34-1.99-1.69-3.48-4.06-6.33-4.64-.76-.15-1.83-4.21-1.36-4.9.91-1.32.31-3.3,2.39-4.25.88-.4,1.74-.98,2.61-.82,4.81.88,6.58-2.91,9.12-5.66,2.68-2.9,3.82-6.7,6.11-9.83,1.06-1.44,1.77-3.16,2.43-4.89.68-1.78,2.15-3.17,2.74-5.06.97-3.09,3.33-5.45,4.52-8.52.71-1.82,1.13-3.95,2.96-5.57,1.72-1.53,2.13-4.49,3.52-6.37,2.96-4.03,1.38-8.36,1.76-12.54.25-2.69,1.23-3.86,3.87-4.03,3.66-.23,5.39.32,6.03,3.42.48,2.31.5,4.7,1.67,6.85.27.49.27,1.03.88,1.38,1.58.91,1.36,2.37.26,3.25-1.39,1.11-1.47,2.55-.58,3.37,1.15,1.06,2.59,2.87,4.63,1.19,1.79-1.47,3.56-1.35,5.25.11,1.17,1.01,2.43.72,3.74.54,1.55-.21,2.52.04,2.94,2.01.61,2.87,4.43,3.76,6.5,2.2,1.58-1.19,3.05-2.41,5.19-2.33,1.58.06,1.87-1.88,3.33-2.28.58-.16-.11-.94-.76-.97-1.41-.07-2.83-.04-4.24-.15-1.19-.09-1.78-.09-.73-1.68,1.12-1.7,2.68-3.43,2.58-5.77-.11-2.35-1.48-4.09-2.78-5.88-1.14-1.56-1.59-3.35-1.41-5.22.21-2.27,1.22-4.46,3.59-4.74,3.62-.43,7.45-.96,10.61,1.81,2.59,2.26,4.16,4.91,5.45,8.27,1.09,2.84,1.28,5.41,1.34,8.18.03,1.33.67,1.8,1.88,1.64,3.57-.48,7.17.21,10.8-1.11,2.44-.88,5.43-.21,8.18-.25,1.11-.02,1.97,1.17,2.05,1.53.45,2.13,2.06,3.63,3.08,5.31,1.38,2.27.61,4.97,2.36,7.06,1.09,1.31-.01,2.92-1.87,3.04-1.66.11-3.33.04-5,0-3.68-.06-7.02,1.06-10.11,2.95-1.71,1.04-2.91,2.43-2.71,4.64.1,1.17,0,2.06-1.35,2.81-2.04,1.14-2.92,3.69-5.2,4.77-.93.44-.82,4.2.14,4.54,1.47.52,1.83,1.94,2.45,2.89.85,1.3,1.34,3.17-.58,4.58-1.99,1.46-3.06,3.9-5.3,5.18-.76.43-.71,1.49-.51,2.31.25,1,1.13.87,1.85.74,1.31-.23,2.89.22,3.62-1.56.29-.7,1.35-.68,1.79-.38,2.63,1.76,5.85,2.8,7.72,5.49.77,1.1.78,3.15.04,4.09-2.26,2.84-3.09,6.65-6.21,8.88-1.07.76-.6,2.69.41,3.51,1.48,1.19,2.99,1.94,4.93,2.2,1.64.22,2.09,2.28,2.45,3.38,1.08,3.26-.14,6.46-1.81,9.35-.26.45-1.36.56-2.08.59-1.83.08-3.67.09-5.5.01-4.01-.17-7.61.95-11.09,2.93-1.8,1.02-1.13,3.15-2.69,4.35-1.41,1.09-5.77,1.78-7.18.61-2.37-1.96-3.82-4.7-6.15-6.72-2.82-2.44-3.7-5.78-3.61-9.51.1-3.99-.16-7.99-.18-11.99-.01-2.09-.56-4.29,1.19-6.13.4-.42.22-1.44.23-2.19.05-3.5.05-7,.13-10.5.03-1.46.02-2.83,1.38-4.03,1.25-1.1.5-3.56-.84-4.83-3.68-3.49-5.03-8.58-.55-12.43,1.16-1,2.84-.87,4-2.11,2.26-2.4,5.86-2.75,8.3-5.19.93-.93,3.02-1.4,4.61-1.8,1.48-.37,2.42-1.36,3.4-2.17,2.17-1.78,3.29-1.94,5.48-.02,1.14,1.01,3.93.83,4.81-.42.73-1.04,2.02-1.24,2.81-2.25.71-.9.61-1.64.39-2.51-.23-.91-1.01-1.1-1.77-1.06-3.67.17-7.38-.82-10.99,1.01-1.36.69-3.28.23-4.94.38-1.64.15-2.96.68-4.52,1.64-3.94,2.41-7.57,5.95-12.99,5.32-1.8-.21-3.27,1.54-3.37,3.72-.13,2.91-.47,5.84-.27,8.73.18,2.55-1.01,4.61-1.64,6.87-.32,1.16-1.3,1.27-2.19,1.21-1.55-.1-3.37.72-4.56-.96-2.49-3.5-4.39-3.5-6.65.21-.4.66-1.45.59-1.43,1.73ZM1309.02,96.5c-.14,3.06.85,4.24,2.8,3.28,1.23-.61,2.83-1.36,2.69-3.34-.08-1.15.14-2.24.94-3.24,1.09-1.34-.66-1.76-1.1-2.59-.39-.73-1.17-.7-1.68-.14-1.65,1.83-4.14,3.19-3.66,6.03ZM1343.03,143.95c.1.99-.08,1.82.84,1.91.86.08,1.94.37,2.44-.62.78-1.53,2.01-2.36,3.58-2.88,1.96-.65,1.57-2.88,2.63-4.18.26-.32-.63-.57-1.1-.65-1.63-.29-2.95.24-4.13,1.42-1.62,1.62-3.22,3.24-4.26,4.99ZM1293.77,105.99c.61.41-.38,3.17,1.93,1.12,2.14-1.91,5.04-3.21,5.45-6.54.08-.66,1.6-1.09.53-1.76-.83-.51-1.91-.59-2.8.6-1.1,1.46-2.44,2.82-3.93,3.87-1.07.75-.84,1.68-1.19,2.72ZM1294.06,129.7c-.1-1.09.38-2.16-.46-2.6-1.24-.64-1.06.88-1.61,1.33-.32.26-.88.36-1.02.67-.64,1.4-1.1,3.08.09,4.18,1.12,1.03,1.52-1.06,2.58-1.3.33-.07.32-1.67.42-2.28ZM1346.44,105.27c-.1-.54-.27-1.63-.61-1.38-.91.68-2.58.54-2.72,2.01-.08.87-.66,2.65,1.17,2.2.99-.24,2.38-1.18,2.15-2.84ZM1344.98,122.35c.13-1.22.11-2.04-.97-1.97-1.39.09-1.8,1.43-2.14,2.37-.35.99.8.97,1.52,1.06,1.48.19,1.57-.83,1.59-1.46ZM1302.62,145.26c.03,1.06-.03,2.1.57,1.85.95-.4,1.96-1.24,2.38-2.15.35-.75-.78-.77-1.41-.85-1.3-.17-1.58.58-1.54,1.15ZM1305.5,121.88c1.4.13,2.04-.19,1.86-1.34-.08-.53-.12-1.55-.79-1.18-.84.46-2.27.63-2.29,1.89-.02.85,1,.6,1.22.64Z"/>
        <path class="cls-1" d="M1098.22,75.66c1.41,1.2,2.8.92,4.05.81,4.16-.36,5.25,2,7.49,5.13,2.1,2.92.78,6.1,1.95,8.77,1.04,2.39,2.05,4.85,1.02,7.04-1.22,2.6-1.01,5.15-1.14,7.74-.18,3.57-.09,7.16-.14,10.74-.03,2.03.71,2.96,2.97,2.85,3.15-.15,6.33.16,9.49.12,2.09-.03,2.83.95,2.78,2.88-.07,2.5-.06,5-.17,7.49-.05,1.21.1,2.67-1.45,3.14-1.63.49-3.63.72-4.75-.47-1.11-1.17-2.19-1.24-3.49-1.37-1.95-.19-3.86-.11-5.82-1.01-1.35-.62-2.82.86-2.79,2.48.04,2.57-.84,5.23.92,7.7.68.95.59,2.54-.02,3.63-1.49,2.7-.78,5.08-.1,7.91.86,3.58,1.12,7.56-.47,11.19-.56,1.28-.62,2.68-1.88,3.88-1.55,1.47-3.91,2.19-4.7,4.5-.1.29-.67.52-.92,1.01-1.74,3.34-6.46,3.95-8.53.8-2.04-3.12-5.43-5.05-7.07-8.37-1.67-3.38-4.71-5.53-6.98-8.36-1.07-1.32-1.23-2.94-2.25-4.27-.71-.91-.44-2.69,1.57-2.8.82-.04,1.22-.44,1.21-1.25,0-.66.06-1.48-.87-1.53-2-.09-2.87-1.87-4.15-2.89-2.23-1.77-2.11-3.82.31-5.21,2.76-1.59,5.53-3.57,9.12-2.69,1.16.28,2.31-.02,2.99,1.57.25.58,1.13,1.6,2.16,2.07,2.7,1.24,2.62,3.81,2.63,6.28.01,2.1-1.17,3.02-2.97,3.94-1.4.71-2.68,2.29-2.1,4.22.44,1.45,1.54,2.35,3.19,2.53,1.27.14,2.71-.15,3.7,1.09.12.16.77.16.91,0,1.64-1.8,4.36-2.7,4.09-6.02-.28-3.47-.02-6.99.05-10.49.04-2.04-.06-3.99,1-6,1.35-2.56.16-4.12-2.72-4.13-3.16-.01-6.33.12-9.49.19-1,.02-1.97,0-2.6,1.08-.49.84-1.49.71-2.28.68-3.07-.11-5.64,1.16-8.09,2.8-.2.13-.45.27-.67.27-3.25-.05-5.47,2.31-8.21,3.42-1.63.66-3.47.43-5.2.33-2-.12-2.92.64-2.92,2.7,0,5.25-.12,10.5.33,15.74.06.67.03,1.36.68,1.78.86.57.9,1.12,0,1.7-.74.48-.63,1.28-.74,2.02-.15,1,.41,2.44-.96,2.79-1.4.36-2.84.31-4.26-.6-1.36-.87-1.74-2.37-2.88-3.37-2.92-2.56-3.6-5.97-3.56-9.77.1-9.58-.11-19.16-.05-28.74.01-2.25-.87-2.93-2.95-2.86-3,.1-6,.06-8.99.03-2.24-.03-4.21-.58-5.12-2.95-.18-.46-.62-.5-.97-.69-3.09-1.67-2.72-4.6-2.26-7.26.27-1.58,1.85-2.53,3.61-2.6,1.08-.04,2.19-.1,3.24.12,3.41.69,5.56-2.09,8.41-2.9,2.37-.68,2.99-3.16,4.74-4.48.34-.26.34-1.07.36-1.63.06-1.33-.06-2.67.06-4,.26-2.92-.24-5.84,1.06-8.78.72-1.64.94-4.04-.61-5.92-.64-.78-.51-1.92-.49-2.91.03-1.27-.44-3.01,1.26-3.39,1.75-.39,3.4-.43,5.3.82,2.61,1.71,4.05,4.46,6.59,6.17.96.65,1.46,2.23,2.14,3.28,2.47,3.83,1.65,7.91,1.76,11.95.04,1.52,1.29,2.08,2.2,2.93.69-1.05,2.4-1.15,2.55-2.66.3-3.01.85-5.89,3.24-8.07.25-.23.27-.79.27-1.19.04-2.33.85-3.87,3.53-3.66,1.02.08,1.55-.53,1.61-1.51.06-1.06-.76-1.04-1.51-1.21-2.65-.6-4.7-5.23-3.47-7.77.13-.27.43-.68.62-.66,3.59.34,5.86-2.62,8.93-3.56,2.06-.63,2.75-3.27,1.36-4.95-.82-.99-2.68-1.73-2.3-2.93.29-.91,1.59-1.87,2.57-2.71,2.05-1.75,3.35-1.98,5.52-.16.96.8,2.07.59,3.1.53,2.29-.15,4.03.68,5.01,2.69.77,1.58,2.07,1.15,2.94.69,1.2-.63.74-1.9.14-2.81-1.85-2.76-.82-5.16,2.46-5.51,1.29-.14,2.7.18,3.52-1.3.22-.39.88-.43,1.1-.09,1.15,1.75,3.33,1.78,4.81,3.03,2.05,1.74,2,5.82-.34,7.23-.69.41-1.22,1.02-1.89,1.46-1.29.85-3.14,1.99-.63,3.85,1.01.75,2.18,2.09,1.26,3.58-.86,1.39-2.07,2.6-4.01,2.33-1.43-.2-2.11.87-3.08,1.61-.94.71-2.43.23-3.87,1.16ZM1056.84,120.76s.02,0,.03,0c0,2,.05,4-.01,6-.05,1.7.62,2.42,2.38,2.25,2.64-.24,5.07-.56,7.65-1.77,4.19-1.97,9.18-1.58,13.62-3.25,1.31-.49,2-.93,2.02-2.28.01-1,.07-2,.02-2.99-.17-3.61-.43-3.77-3.9-2.41-.33.13-.58.11-.92.03-1.84-.43-3.36.56-3.61,2.4-.33,2.35-1.65,3.42-4,3.38-3.12-.05-7.76-4.94-7.4-7.89.04-.37.45-.67.61-1.04.23-.52.49-1.07.54-1.62.07-.9.45-2.13-.27-2.62-1.25-.84-.81,1.07-1.55,1.27-.24.07-.49.11-.72.19-3.46,1.26-5.16,3.56-4.51,7.37.17.97.02,2,.02,2.99ZM1102.94,97.29s-.03,0-.05,0c0-1.41-.02-2.83,0-4.24.02-1.41-.12-2.87.17-4.23.47-2.17-1.22-3.1-2.44-3.26-1.33-.18-2.84.83-4.22,1.44-.33.15-.25.81.13,1.09,2.86,2.16,1.34,5.14,1.5,7.81.04.69-.49.86-1.03,1.16-1.42.8-1.4,2.13-.08,2.94,2.37,1.45,3.47,4.2,2.59,7.46-.59,2.17-2.27,3.18-4.64,3.04-.81-.05-1.68-.01-2.28,1.07-1.2,2.18-1.4,4.47-1.55,6.86-.12,1.94,1.12,3.02,2.45,2.99,1-.02,2.54-1.06,2.45-2.82-.07-1.41-.09-2.83-.05-4.24.03-.91.25-1.66,1.21-2.25,5.03-3.07,6.3-3.59,5.86-8.83-.17-1.98-.03-3.99-.03-5.99ZM1078.18,107.06c.42-.06.83-.11,1.23-.16.65-.09,1.4-.06,1.47-.97.06-.73.24-1.56-.48-2.05-.73-.5-1.19.16-1.71.55-.25.19-.6.27-.91.34-.78.18-1.83.1-1.61,1.35.2,1.17,1.27.77,2.01.96ZM1079.19,96.83c.93.05,1.92,0,1.74-1.5-.08-.71-.06-1.82-1.05-1.57-.92.24-1.98.88-2.25,1.96-.26,1.08.61,1.14,1.55,1.11Z"/>
        <path class="cls-1" d="M969.49,115.4c3.23-.29,4.61,2.28,6.49,4.13,2.05,2.01,2.35,4.65,1.31,6.82-1.12,2.35-3,4.49-6.34,4.27-2.11-.14-4.48-.57-6.1,1.65-.27.37-.85.59-.79,1.13.37,3.61-1.77,6.85-1.4,10.49.21,2.05-.11,4.16-.13,6.24-.02,3-2.16,4.54-4.43,5.34-2.05.72-3.76-1.08-5.56-2.17-3.05-1.86-4.12-5.29-6.58-7.62-.79-.74-1.46-2.09-2-3.27-1.05-2.3-3.1-2.46-4.92-.77-1.47,1.38-3.29,2.27-4.25,4.28-.53,1.11-.77,1.87-.17,2.92,1.03,1.81.52,4.36-1.03,5.41-1.15.78-4.12-.08-5.29-1.1-3.11-2.69-4.32-6.48-6-9.98-.53-1.1-.13-2.63-.24-3.95-.05-.56-.21-1.21-.87-1.4-.6-.17-.77.56-1.12.72-1.87.84-1.44,3.17-3.04,4.31-1.59,1.12-2.62,1.64-4.18.04-1.91-1.96-3.24-4.24-4.12-6.76-.77-2.21.32-4.52,2.47-5.93,1.93-1.26,2.24-3.63,3.65-5.29,2.21-2.6,3.84-5.62,5.54-8.59.82-1.43,1.88-2.53,1.57-4.25-.18-1.01-.53-1.74-1.84-.92-1.81,1.14-4.05.38-5.3-1.43-2.74-3.97-1.86-9.69,1.59-13.1,1.32-1.3,2.96-3.01,3.6-5.22.56-1.96,2.53-3.4,3.85-4.58,1.59-1.41,1.95-3.18,2.77-4.65,2.5-4.48,5.44-8.57,8.88-12.32,1.19-1.3,4.67-.02,4.81,2.21.34,5.29.74,10.68-.26,15.92-.37,1.91-2.15,3.63-3.52,5.23-.71.83-.84,1.15-.08,1.97.78.84.34,2.08.52,3.13.22,1.25.74,1.99,1.93.89.91-.83,1.96-.8,3.03-.84,3.68-.13,7.59-3.28,8.46-6.81.06-.24.03-.61.18-.71,3.1-2.03,1.54-5.16,1.87-7.83.15-1.24.39-2.36,1.09-3.49.95-1.54-.42-6.67-1.85-7.98-1.24-1.14-1.86-6.1-.94-7.6.65-1.06,4.14-1.74,5.85-.8,2.53,1.39,5.03,2.86,7.53,4.3,1.81,1.04,1.85,2.22,1.77,3.8-.15,3.22-.1,3.29,3.09,3.54,2.52.2,3.58,2.48,5.28,3.81.46.36.51,1.96-.66,2.81-2.24,1.61-1.51,6.75,1.02,7.97.85.41,1.07-.08,1.15-.71.23-1.92,1.47-3.04,2.87-4.19,1.51-1.24.96-5.47-.71-6.65-1.84-1.3-2.94-4.01-2.01-5.73,1.01-1.87,2.39-3.44,4.96-2.8.71.18,1.55.3,2.23.1,3.24-.99,5.51,1.42,8.06,2.45,2.13.86,4.1,2.47,5.73,4.35,2.27,2.62,2.4,6.04.71,8.84-2.48,4.12-6.12,5.35-10.56,5.04-1.94-.13-3.1.85-4.37,2.16-1.49,1.54-3.07,2.98-4.44,4.64-.26.31-.71.47-.5.98.2.47.72.56,1.06.43,2.33-.86,5.12-.79,6.9-2.75.76-.84,1.79-1,2.53-1.26,2.33-.83,3.94-3.13,6.68-3.09,1.28.02,2.37-1.07,2.99-1.86,1.32-1.67,3.29-2.93,3.74-5.31.2-1.1,1.82-2.37,2.27-2.12,1.32.73,3.5.47,3.85,2.56.35,2.05,1.99,3.39,2.9,5.11.85,1.6,1.4,3.41,2.5,4.99,1.29,1.85-.74,5.19-3.18,5.19-2.7,0-4.43,1.87-6.55,2.74-2.32.96-4.86.9-7.12,2.25-2.16,1.29-4.64,3.52-4.7,6.09-.12,5.31,1.18,10.38,2.47,15.46.18.71.17,1.48.19,2.23.11,5.41.19,10.83.29,16.24.02,1.08.03,2.08,1.07,2.88,1.15.89,1.04,2.72.53,3.46-1.91,2.75-1.96,6.47-4.65,8.74-1.32,1.12-3.04,1.84-4.32,2.84-1.89,1.48-4.1,1.58-6.01,2.6-1.94,1.05-4.29.83-4.97-1.17-.52-1.53-1.37-2.89-1.8-4.39-.47-1.65-.5-3.31,1.26-4.6,2.85-2.08,4.72-5.09,6.87-7.83.5-.64.36-1.43.37-2.16.06-3.08-.59-6.35.23-9.21,2.13-7.46.5-15.02,1.28-22.48.1-.94.49-2.3-.53-2.75-1.27-.56-3.01-.65-4.06.28-1.02.91-2.06,1.09-3.16,1.04-2.24-.11-4.16.77-6.18,1.49-1.1.39-1.02,1.15-1.03,1.98-1.93-.6-4.37,1.02-5.92-1.4-.26-.4-.97-.11-.88.32.21,1.06-1.99.99-.96,2.39.85,1.14,1.32,2.48,3.24,2.22,2.3-.3,3.26-2.04,4.47-3.57ZM935.92,105.01c-.55,2.38-.43,4.52-.38,6.65.03,1.29.85,1.57,2,1.65,2.68.2,4.06,3.15,2.62,5.5-1.35,2.19-2.75,4.36-4.18,6.5-.74,1.1-.82,2.53-.03,3.18,1.07.88.89-.97,1.56-1.28.22-.1.53-.09.7-.24,1.42-1.26,2.99-2.61,3.49-4.38.65-2.28,2.93-3.78,2.78-6.49-.03-.5.69-2.22,1.76-2.65,1.02-.41,1.21-1.01,1.08-1.91-.18-1.22-1.25-1.1-1.96-.99-4.5.68-6.45-2.88-9.43-5.55ZM970.77,94.53c.09-.71-.17-1.03-.65-1.02-.73.02-1.55-.08-2.15.43-2.81,2.41-4.63,5.62-6.76,8.57-.35.48-.31,1.43.23,1.86.74.59.82-.47,1.25-.71,2.32-1.27,3.32-4.02,5.39-5.24,1.84-1.09.77-3.5,2.69-3.9ZM951.54,138.91c2.02-.04,2.27-.39,1.51-1.77-.52-.93-.3-1.94-.5-2.89-.27-1.27.89-3.22-.89-3.68-1.53-.39-1.75,1.76-2.71,2.62-1.05.95-1.99,2.28-1.13,3.32.97,1.18,2.69,1.76,3.73,2.38ZM966.17,82.21c-1.52-.65-2.38-1.06-3.33-.48-.15.09-.18.74-.05.84.93.68,1.8.19,3.38-.36Z"/>
        <path class="cls-1" d="M1194.03,121.94c-3.05.33-3.99-2.38-4.64-4.16-.86-2.35-.73-5.16-.58-7.75.19-3.26,2.5-5.68,4.2-8.26,1.02-1.55,1.18-2.86.34-4.88-1.82,4.22-5.07,7.03-6.98,10.64-1.58,3-4.08,5.38-5.42,8.36-.83,1.86-2.11,3.73-1.99,6.16.25,4.82-.04,9.66.05,14.49.05,2.75.25,5.41,1.1,8.21,1.02,3.37.52,7.26.36,10.9-.08,1.78-3.69,2.76-5.95,1.39-1.57-.95-3.19-.72-4.74-1.15-2.75-.76-5.71-.95-7.99-3.05-.48-.45-1.41-.38-2.11-.62-3.41-1.16-9.09-8.96-9.29-12.72-.2-3.77.74-5.06,4.53-5.55,1.94-.25,4.32-1.07,5.07-2.03,1.89-2.46,4.32-4.45,5.93-7.25,1.49-2.61.99-4.74.8-7.38-3.51,2.85-6.05,6.22-9.53,8.63-3.12,2.16-5.81,1.14-6.95-2.46-.65-2.06-1.52-4.14-2.35-6.16-1.61-3.91-1.34-6.37,1.9-9.33,1.09-1,1.43-2.59,1.93-3.86.78-2.01,1.68-3.57,3.52-4.74,1.7-1.08,1.78-3.34,3.06-4.79,1.9-2.15,2.56-5,3.96-7.36,1.3-2.19,2.26-4.49,3.47-6.69.63-1.14,2.07-.72,3.21-.66,1.14.06,1.6.79,1.61,1.82.04,2.58.02,5.16.06,7.75.01.78-.31,1.78.88,2.03.8.16,2.03.45,2.29-.3.31-.9,2.04-1.37.97-2.72-.05-.07-.17-.15-.15-.19,1.28-3.32.15-7.12,1.95-10.29.37-.65.82-1.2.87-1.95.09-1.36.52-2.51,1.49-3.55,1.72-1.87,1.97-4.68,4.24-6.31,1.99-1.43,3.51-1.15,4.26,1.29.35,1.14.31,2.39-.21,3.43-2.31,4.61-1.93,9.17.56,13.44.95,1.63,3.09,2.7,5.12,2.1,1.58-.47,2.89-1.48,3.33-3.59.96-4.67,4.1-7.08,7.88-6.54.7.1,1.43.12,1.86.98,2.26,4.53,2.44,5.23,2.12,10.1-.03.5.07,1.23-.2,1.45-2.34,1.85-1.28,4.52-1.83,6.8-.38,1.58-1.96,2.75-1.66,4.64.15.95-.13,2,.99,2.8.79-1.34.93-2.92,2.51-3.89,1.24-.76,2.1-.97,2.94-.07,1.58,1.72,3.64,2.69,5.57,3.86,1.13.69,3.12-.86,3-2.54-.14-2.03.28-3.56,2.06-4.75.6-.4,1.31-.94,1.7-.55,2.05,1.99,5.82,1.88,6.6,5.44.33,1.49,1.9,2.28,2.96,2.52,3.33.75,5.35,3.1,7.74,5.13,1.1.93,1.2,1.97,1.22,3.05.05,3.66.73,7.56-.31,10.92-.94,3.06-.37,6.48-1.78,8.97-1.44,2.54-.85,5.14-1.76,7.44-1.22,3.11-1.61,6.66-4.39,9.13-.93.83-.41,2.57-1.64,3.69-2.67,2.44-5.01,5.23-7.58,7.77-1.03,1.02-5.37.42-6.33-.84-.56-.75-1.27-.67-1.98-.81-2.44-.49-4.55-1.09-5.25-4.12-.34-1.48-1.91-2.68-2.98-3.97-.16-.19-.85-.27-.86-.22-.75,1.88-3.05,1.4-4.11,2.68-2.39,2.92-6.16,3.36-9.19,5.11-.68.39-2.34-.87-2.42-2.15-.21-3.4-1.02-6.95,1.56-9.93.21-.24.35-.71.58-.74,4.37-.63,6.16-4.61,8.42-7.38,1.64-2.01,3.89-3.95,4.8-7,.56-1.88,2.64-3.93,3.89-5.97,1.02-1.66,3.29-2.76,2.74-5.29-.16-.76-.09-1.56-1.17-1.54-.82.01-1.95-.1-2.06.94-.33,2.85-3.02,3.93-4.29,6.08-1.87,3.17-4.81,5.48-6.35,9.08-.89,2.07-1.93,4.43-3.41,6.34-1,1.3-3.05,1.06-4.06,2.47-.41-1.41-2.44-1.27-2.7-2.85-.25-1.49-.28-2.9-1.24-4.37-1.04-1.61.83-3.23,1.98-4.18,2.78-2.31,4.2-5.07,4.25-8.62,1.95-.22,3.76-2.11,3.56-3.72-.08-.64-.75-1.4-.97-.93-.75,1.63-3.52,2.19-2.54,4.7ZM1186.01,99.93c-1.49-.15-2.4.27-1.99,2-3.15-.03-4.42,1.45-3.36,3.86.28.63.99,1.15,1.23.54.6-1.53,2.77-2.33,2.1-4.43,1.64.29,2.28-.4,1.98-2.01.54-.04,1.22.1,1.26-.74,0-.15-.28-.45-.43-.46-.87,0-.66.73-.79,1.24ZM1234.87,116.47c-.22-1.01.43-2.63-1.45-2.85-1.51-.18-2.72-.52-4.31,1.08-2.02,2.04-2.3,5.06-4.65,6.69-1.69,1.18-1.32,3.64-2.97,4.85-1.09.8-1.64,1.85-2.26,3.09-.91,1.81-.91,4.19-3.16,5.39-1.9,1.02-2.3,3.71-4.6,4.6-.69.27-.51,1.54-.34,2.33.28,1.27,4.79,4.39,6.18,4.32.72-.03,1.48.12,2.12-.45,2.24-1.99,3.89-4.56,4.72-7.25.52-1.69,1.92-2.84,2.12-4.44.59-4.67,3.22-8.24,5.72-11.99,1.08-1.63,3.02-2.92,2.88-5.38ZM1167.03,142.95s-.01,0-.02,0c0-.91.04-1.82,0-2.73-.09-1.82-1.49-1.68-2.17-.9-1.14,1.3-2.02,2.93-2.64,4.56-.45,1.17,1.82,3.32,3.32,3.31,2.05-.02,1.31-1.69,1.51-2.76.09-.48.02-.99.02-1.49Z"/>
        <path class="cls-1" d="M868.59,93.3c2.63-.84,6.01.2,8.66,1.84,2.08,1.29,4.19,3.25,5.71,5.4.83,1.18,1.65,2.16,2.84,3.03,1.19.87,2.23,2.17,2.22,3.88-.02,2.58.15,5.19-.17,7.73-.22,1.74-1.34,3.07-3.23,3.79-3.08,1.17-6.28,2.14-9.27,3.35-3.22,1.3-6.49,2.13-9.72,3.23-2.74.93,1.13,1.84.51,3.03,2.19.51,2.84,2.63,4.19,4.02.71.73.79,1.89.18,2.2-2.37,1.23-3.71,3.94-6.7,4.31-2.55.32-4.26,2.29-5.97,3.99-.49.48-.58,2.06.39,2.43,2.79,1.06,2.94,3.89,4.12,5.93,2.12,3.64,2.71,7.73,2.18,11.98-.32,2.56-2.26,4.51-4.85,4.62-1.92.08-3.83-.4-5.71,1.01-1.19.89-2.79.23-3.07-1.67-.11-.74-.04-1.5-.11-2.24-.09-.92.43-2.21-.99-2.48-1.32-.25-2.51-.48-3.8.88-1.15,1.21-3.18,2.16-4.84,2.18-2.87.04-4.63,2.03-6.87,3.08-1.7.8-3.36.99-4.68.29-1.34-.71-2.94-1.89-2.52-4.04.13-.64.18-1.36.03-1.99-1.04-4.2,1.28-6.7,4.44-8.64,1.24-.76,1.02-1.72.68-2.54-.52-1.24-1.17-.13-1.89.04-3.75.86-6.5,3.79-10.51,4.5-2.16.38-5.3.14-7.06,2.59-.2.28-1.43.31-1.61.06-1.24-1.82-3.19-1.39-4.9-1.77-2.81-.63-5.42-6.24-4.25-8.88.39-.88,1.09-1.01,1.82-1.02,1.5-.02,3.02-.1,4.48.16,4.1.72,7.94-.87,11.46-2.17,3.12-1.16,6.39-1.89,9.37-3.24,1.97-.89,3.95-1.64,5.97-2.38,2.25-.82,4.33-2.1,6.78-2.4.81-.1,1.72-.08,2.01-1.13.24-.85.99-.9,1.62-.82,2.17.27,3.51-1.52,5.33-2.06,3.02-.9,4.61-4.1,7.8-4.7.89-.17.7-1.01.76-1.64.05-.58.1-1.37-.64-1.41-3.32-.17-2.93-3.41-4.37-5.13-2.06-2.46-2.07-6.29-5.48-7.9-.73-.34-1.36-.6-2.05-.43-.94.23-.82,1.15-.89,1.86-.13,1.27.14,2.48-1.36,3.42-.8.5-.92,1.96.45,2.86,1.84,1.22,3.58,2.61,5.26,4.05,1.44,1.23.55,4.8-.48,6.29-1.76,2.55-4.09,1.74-6.33,1.96-2.91.29-5.69,1.08-8.29,2.41-1.82.93-3.94.39-4.91-1.41-.12-.22-.2-.61-.34-.63-2.5-.32-3.9-3.5-6.94-2.58-1.16.35-2.49.28-3.72.2-1.97-.13-2.67-1.3-1.96-3.08,1.02-2.56-.4-6.87-2.59-8.64-2.49-2.02-3.85-4.85-1.99-8.7,1.59-3.3,3.88-6.01,5.85-8.96,1.1-1.65,3.05-2.71,4.48-4.17,1.76-1.8,4.59-2.89,3.97-6.33-.41-2.27-1.09-2.73-3.04-1.4-1.21.82-2.42.9-3.65.12-1.23-.79-2.7-1.57-1.98-3.39.58-1.47,1.93-2.58,3.26-3.04,2.3-.79,3.65-2.53,5.17-4.12.39-.4.63-.8,1.2-1.06,1.46-.66,1.08-1.87.24-2.56-4.22-3.45-4.51-8.19-4.1-12.96.12-1.39,1.58-3.07,2.89-3.83,1.59-.93,2.38-3.39,4.91-2.73,1.02.27,2,.33,1.96,1.72-.04,1.48.7,2.14,2.17,1.95,2.63-.36,3.1,1.16,2.9,3.29-.07.74-.15,1.49-.15,2.24,0,.48-.02,1.06.55,1.27.78.28.81-.47,1.19-.85,1.38-1.37,2.79-2.8,4.43-3.79,1.16-.69,1.78-1.75,2.32-2.69.82-1.42.11-2.69-1.27-3.78-.62-.49-2.3-.41-1.8-1.58.39-.9,1.31-2.11,2.11-2.42,2.22-.84,4.31-2.18,6.97-1.89,2,.22,3.17,1.05,4.32,2.55.95,1.24,1.82,2.44,2.53,3.86,1.34,2.68.69,5.81-1.79,7.41-2.2,1.41-3.24,4.09-5.69,5.27-.3.14-.19.86.23,1.06,1.97.93,1.52,2.74,1.62,4.34.09,1.46-.26,2.69-2.05,2.76-1.14.05-1.55,1.13-2.34,1.66-2.74,1.84-5.89,2.44-8.91,3.45-2.22.74-2.42,3-.17,4.57,1.57,1.09,1.53,1.37.06,2.56-2.27,1.84-4.14,4.17-6.3,6.17-.69.64-1.01,1.25-.4,1.84.56.54.92,1.48,1.9,1.48,1.1,0,.88-1,1.19-1.62,1.14-2.24,2.47-4.14,4.93-5.35,3.29-1.62,6.1-3.84,6.58-8.04.26-2.28,2.72-3.18,4.02-4.85.32-.41.83.04,1.18.49,1.02,1.29,1.84,2.71,4.04,1.43,1.4-.81,2.87.01,2.81,1.93-.07,2.26.36,4.57-1.25,6.67-1.05,1.37.9,4.25,2.89,4.41,1.65.14,3.33.03,5.8.03ZM820.52,108.44c-1.56-.51-2.19.14-2.12,1.68.03.72-.17,1.72.91,1.71,1.75-.02,1.03-1.53,1.26-2.45.08-.3-.05-.66-.09-.99.49-.12,1.2.03,1.19-.79,0-.14-.31-.42-.45-.41-.78.07-.7.69-.7,1.24ZM862.08,99.91c-1.5-.12-2.65.01-2.62,1.84.01.64-.23,1.22-.84,1.71-1.4,1.11-1.36,2.36.06,3.45.54.41.81.94.71,1.49-.79,4.46,3.49,4.58,5.59,6.57.1.09.59,0,.65-.13.8-1.77,2.54-1.13,3.85-1.6,2.16-.79,4.49-1.28,6.31-2.87.65-.56.81-1.32.15-1.63-2.92-1.38-4.21-4.75-7.59-5.81-1.11-.34-3.13-.26-3.74-1.73-.59-1.4-1.71-1.04-2.53-1.29ZM852.32,99.39c-.19-.52.44-2.05-.77-1.86-.8.13-2.62.36-2.47,2.12.08.89-.33,2.09,1.29,2.13,1.54.04,2.03-.78,1.95-2.39ZM849.36,150.88c-1.96-.18-2.61,1.27-3.1,2.54-.32.82.7.98,1.35.88,1.61-.24,2.36-1.68,3.16-2.78.36-.49-.91-.55-1.41-.65ZM834.19,119.26c.06.19-.02,1.26.66.84.86-.53,2.05-1.11,2.26-2.22.16-.84-.77-.85-1.43-.88-1.4-.05-1.58.85-1.48,2.25ZM832.48,128.81c.1.59-.19,1.53.86,1.39.91-.12.61-1.03.61-1.62,0-.57.24-1.55-.81-1.41-.89.12-.5,1.05-.66,1.64Z"/>
        <path class="cls-1" d="M438.17,135.56c0,5.16,0,10.33,0,15.49,0,.67-.24,1.5.07,1.97,1.94,2.92-.13,5.68-.25,8.5-.12,3-2.46,5.48-5.3,6.55-2.93,1.11-5.89,2.17-8.76,3.31-1.38.54-3.03,1.42-4.48,2.28-2.08,1.23-4.1,1.04-5.69-.87-1.29-1.55-.91-3.1.18-4.9,2.11-3.46,5.22-5.87,8.09-8.54.29-.27.7-.38.8-.86.83-4.11,2.1-8.13,1.85-12.42-.21-3.57-.26-7.16-.3-10.74-.01-1.26-.27-2.57,1.37-3.39.94-.47.73-1.79.13-2.69-1.76-2.63-1.44-4.97-.08-7.8,1.26-2.63.8-5.75.27-8.57-.23-1.23-1.84-1.04-2.95-.41-3.21,1.82-6.59,1.13-9.86.43-3.39-.73-6.59-2.31-10.1-2.47-3.46-.16-5.6,2.12-7.24,5.12-2.15,3.91-3.39,8.51-7.25,11.35-.5.37-.93.7-.93,1.36.01,4.33-.85,8.9.27,12.93,1.29,4.66.98,9.17.98,13.75,0,2.47-1.16,4.79-2.96,6.68-.37.39-.69.65-1.21.72-5.18.65-10.13-.1-14.65-2.77-2.66-1.57-5.66-2.99-7.59-5.26-2.52-2.97-6-5.1-7.53-9.13-.65-1.7-1.56-3.61-2.4-5.36-1.45-3.03-.98-6.47-.42-9.76.09-.51.58-.94,1.08-.9,2.08.17,3.45-.96,4.69-2.39,1.54-1.77,3.98-1.52,5.83-2.68,3.14-1.96,6.48-3.6,9.72-5.42.22-.12.36-.56.37-.86.03-2.75.03-5.5.03-8.24,0-.88-.61-1.1-1.35-1.08-1.25.03-2.5.08-3.74.11-1.58.04-2.94-.13-4.1-1.57-2.31-2.87-4.82-5.51-4.48-9.64.16-2,1.08-3.05,2.74-4.15,3.5-2.33,7.86-2.57,11.24-4.95,1.42-1.01,3.28-2,3.33-4.23.01-.58.17-1.19.06-1.74-.83-4.04,1.18-7.75,1.35-11.69.08-1.91-.78-3.11-2.07-4.1-1.93-1.47-1.95-3.47-.22-5.14,1.34-1.29,2.53-2.76,3.76-4.15,1.53-1.72,3.84-1.69,4.61-.87,1.27,1.37,2.96,1.61,4.32,2.44,1.37.84,2.04,2.13,3.22,3.03,1.99,1.5,2.22,5.45.83,7.61-2.05,3.18-.9,8.61,2.11,10.67,1.47,1,2.84,2.21,4.03,3.52,2.85,3.13-.02,6.33-.4,9.39-.17,1.39-2.67,3.06-4.41,3.57-2.75.81-2.68,3.12-3.58,4.93-.31.62-.26,1.48-.23,2.22.04,1.09-.75,2.73.65,3.09,1.44.36,3.18.58,4.38-1.23,1.18-1.79,3.64-2.61,3.78-5.27.04-.67,1.47-.27,1.97-.76,1.53-1.53,3.92-2.17,5.48-2.24,3.48-.16,6.27-2,9.44-2.77,1.71-.41,4.05-.57,5.27-2.5.12-.19.42-.39.62-.37,2.41.18,4.32-1.41,6.57-1.79,3.29-.55,6.42-1.33,9.43-3.07,1.55-.9,3.62-1.88,5.77-1.8,2,.07,4-.02,6-.02,1.34,0,2.42.42,3.63,1.19,3.17,2.02,5.44,4.88,7.74,7.7.61.75.75,2.14-.61,2.99-1.16.72-2.12,1.86-2.45,3.15-.44,1.75-1.57,1.93-2.98,1.93-1.75,0-3.51.1-5.25-.04-4.11-.32-7.03,1.42-9.43,4.68-.66.9-.85,1.68-.96,2.63-.29,2.36.71,5.01-1.69,6.92-.36.28-.21,1.27-.21,1.94-.01,5.83,0,11.66,0,17.49.04,0,.07,0,.11,0ZM374.04,141.98c.01-4.42-1.62-5.97-4.62-4.36-2.07,1.11-4.1,2.25-6.4,2.77-.55.13-.9.39-.9.99,0,.45.29.66.61.96,1.48,1.43,3.54,1.82,5.16,3.17,1.23,1.02,3.82,1.15,5.5.22,1.31-.72.4-2.61.65-3.75Z"/>
        <path class="cls-1" d="M648.13,156.08c-2.66,0-5.34-.14-7.99.04-3.09.2-5.92-1.13-8.4-2.29-2.13-1-3.87-3.56-5.93-5.11-2.43-1.83-4.51-4-6.86-5.87-1.49-1.19-4.7,0-6.54,1.67-1.94,1.76-4.08,3.44-6.58,4.37-1.55.58-2.2,2.17-3.77,2.78-.83.32-1.61.75-2.5.76-5.42.05-10.83.09-16.25.08-1.04,0-2.36.17-2.67-1.24-.29-1.33-.74-2.81.6-3.9,3.25-2.67,6.01-5.93,8.58-9.13,1.57-1.96,3.66-3.02,5.11-4.83,1.3-1.62,2.82-1.17,4.28-.8,1.5.38,1.14,1.8,1.18,2.94.02.63-.18,1.46.7,1.65.84.18.67-.78,1.03-1.11,1.32-1.23,2.59-2.7,4.18-3.4,1.65-.73,1.41-1.72,1.03-2.77-.99-2.71-7.27-6.27-10.18-5.9-.67.08-1.2.21-1.67.86-1.34,1.85-4.02,1.81-5.38,3.91-.72,1.11-2.95-.1-3.18-1.63-.56-3.84-.01-7.63,1.76-10.98.75-1.42,2.02-3.29,3.46-3.87,2.93-1.18,3.06-4.15,4.79-6.04,1.73-1.89,2.93-4.18,4.19-6.42,1.75-3.13,3.76-6.02,4.68-9.68.56-2.22,1.46-4.52,2.26-6.77,1.31-3.72,1.56-7.32-.14-10.91-.9-1.9.21-3.35,1.26-4.42.8-.82,1.93-2.3,3.79-.76,1.43,1.19,3.61.72,5.46,1.8,3.15,1.83,6.24,3.58,8.98,6.06,2.74,2.49,2.32,5.47,2.09,8.53-.05.62-.3.97-.87,1.34-1.15.75-1.76,3.74-.87,4.38,1.3.93,2.4.39,3.35-.88.39-.53,1.3-.63,1.59-1.43.16-.44.77-.66,1.04-.41,2.13,1.96,5.49,2.25,6.95,5.12.67,1.32-.43,4.53-2.01,4.98-3.57,1.02-5.62,3.67-7.78,6.4-2.71,3.43-4.35,7.05-3.34,11.5.04.16-.02.37.06.49,2.75,4.22-.9,7.47-1.97,10.97-.45,1.48-1.43,2.07-.04,3.65.88,1.01.83,2.68,2.77,2.89.74.08,1.47.96,2.06,1.6,2.47,2.7,5.63,3.8,9.07,4.79,1.81.52,3.9,1.02,5.51,2.67,1.21,1.23,3.73,1.71,5.16,1.71,3.83.02,6.89,2.44,10.63,2.5,3.24.05,4.67,1.98,4.4,4.88-.19,1.98-1.92,2.67-3.18,3.48-2.34,1.5-5.12,1.57-7.88,1.41-1.99-.11-4-.02-6-.02,0,.11,0,.23,0,.34ZM616.08,113.41c-.62.17-1.5-.18-1.82.52-.69,1.49-1.64,2.65-3.1,3.45-.54.29-.37.87.04,1.26.92.89,1.81,1.81,2.8,2.62,1.47,1.19,3.11.58,3.48-1.26.22-1.12.21-2.22,1.02-3.24.73-.91-1.12-3.33-2.42-3.34Z"/>
        <path class="cls-1" d="M544.04,125.22c2.41,0,4.82.02,7.23,0,3.45-.03,4.05.65,5.51,3.8.69,1.48,1.39,3.02,2.18,4.4.95,1.69.85,3.32,1.09,4.99.36,2.51-.02,4.54-2.64,5.94-1.41.75-1.93,2.72-3.76,3.44-1.17.47-1.78.58-2.67-.3-1.51-1.48-3.52-1.88-5.45-1.53-3.41.6-6.21-.8-8.73-2.59-1.71-1.21-3.67-1.25-4.89-.58-2.79,1.52-5.66.94-8.48,1.28-.97.12-1.96-.08-2.61,1.03-.6,1.01-1.79.86-2.74.76-4.46-.49-8.64,1.2-12.9,1.93-2.06.35-4.73.35-6.25,1.47-2.12,1.57-4.62,1.23-6.65,2.52-2.3,1.47-7.9.64-9.67-1.29-.8-.87-.76-5.36.28-6.39.84-.83,1.02-1.73.88-2.71-.34-2.47.91-4.52,2.01-6.42.92-1.57,3.01-2.11,4.79-2.49,1.99-.43,3.86-.58,5.89-1.49,2.4-1.07,5.19-2.41,8.16-2.22,1.16.07,2.33.1,3.03-1.2.37-.68,1.18-.49,1.82-.55,3.6-.31,4.6-1.44,4.92-4.99.17-1.83-.35-3.78,1.06-5.49.68-.83-1.22-3.09-2.54-3.1-1.91-.01-3.83.14-5.74.1-2.57-.06-4.44-1.12-4.83-3.92-.08-.54-.41-.79-.76-1.16-2.47-2.56-4.69-5.26-4.27-9.18.22-2.07,2.73-5.17,4.6-5.65.16-.04.39-.09.49-.02,2.38,1.76,4.62-.24,6.93-.25,1.32,0,2.72.13,3.39-1.46.07-.17.43-.33.64-.3,2.91.39,5.48-1.2,7.94-2.07,2.92-1.04,6.45-.1,8.88-2.69.4-.43,1.42-.26,2.16-.39,1.58-.29,3.14-.02,4.7-1.12,1.67-1.18,3.6.5,4.38,1.59,1.66,2.32,3.93,4.06,5.55,6.42.83,1.22,1.21,2.27,1.2,3.58,0,2-.08,3.99-.14,5.99-.08,2.58-2.84,5.19-5.44,5.44-1.79.17-3.93-.89-5.17,1.69-.77,1.6-2.41,2.56-3.31,4.4-1.12,2.29-.39,5.13-2.71,7.09-1.23,1.04,1.14,3.84,3.66,3.97,2.98.16,5.98.04,8.98.04,0-.1,0-.21,0-.31Z"/>
        <path class="cls-1" d="M754.52,152.56c-3.5,0-7-.01-10.5,0-3.23.01-6.08-.6-8.48-3.17-.9-.97-2.55-.93-3.44-2.66-.85-1.64-1.19-3.16-1.23-4.84-.05-2.14-1.92-4.19-.1-6.47.48-.6.61-2.23-.39-2.71-1.36-.65-3.09-.56-4.35.2-2.82,1.71-5.8,1.3-8.69.85-2.96-.45-1.76-3.07-1.95-4.89-.2-1.92,1.12-2.24,2.56-2.09,2.94.32,5.64-.23,8.29-1.56.82-.41,1.44-1.08,1.75-1.61,1.83-3.2,3.97-6.13,4.65-10.05.63-3.62.42-7.69,3.02-10.83.14-.17.15-.48.16-.72.22-4.95,1.65-9.81,3.67-14.07,1.36-2.88,1.16-5.42,1.39-8.14.15-1.78,1.39-2.73,2.59-3.16,1.29-.47,2.81-.88,4.38.38,1.15.93,2.07,2.05,2.79,3.13,1.44,2.15-1.05,3.28-1.92,4.82-.18.32-.8.45-.89.76-1.39,4.83-2.34,9.73-1.94,14.81.04.5.12,1.05.75,1.13.5.06.8-.31.79-.76-.03-1.39,1.41-1.26,2.07-1.8,2.83-2.29,3.85-5.95,6.45-8.27,1.92-1.71,2-3.62,1.97-5.85-.05-4.72,2.75-5.78,7.13-4.29,2.74.93,3.93,2.94,5.86,4.4.92.69.85,2.31.3,2.7-2.06,1.41-2.91,3.69-3.87,5.62-2.13,4.28-6.44,6.67-8.67,10.58-1.77,3.1-4.33,5.5-6.13,8.58-1.88,3.22-3.8,6.83-6.93,9.23-1.46,1.12-.57,3.5-2.58,4.17-.04.01-.07.37.02.45,2.7,2.92,1.07,6.5,1.38,9.75.37,3.88,2.02,4.97,5.41,3.12.35-.19.78-.31,1.18-.34,2.95-.18,5.89-.97,8.72-1.14,3.89-.24,7.29-1.75,10.75-2.86,2.63-.84,5.03-3.33,5.95-6.33.41-1.35,1.22-2.65,2.07-3.1,1.39-.74,1.54-1.68,1.41-2.8-.19-1.56.81-2.42,1.63-3.4.73-.87,1.71-.4,2.57-.27.84.12.92.96.9,1.58-.07,1.87.8,3.94-1.45,5.35-.9.57-.6,5.5.31,6.1.82.54.79,1.46,1.29,1.96,2.62,2.69-.04,5.14-.19,7.69-.06.98-1.3.56-1.66,1.28-1.61,3.23-5.08,4.61-7.27,7.28-.15.18-.43.35-.64.35-3-.06-5.72,1.44-8.61,1.65-4.06.3-8.16.07-12.24.07v.14Z"/>
        <path class="cls-1" d="M693.18,130.72c-3.77,2.59-6.07,6.3-9.62,8.69-2.17,1.46-4.17.72-5.18-1.62-1.09-2.53-1.83-5.18-2.94-7.68-1.27-2.86-.06-5.46,3.08-6.04.33-.06.87,0,.95-.17,1.35-2.63,4.39-3.86,5.43-6.77.77-2.15,3.09-3.34,3.99-5.35,1.2-2.67,4.22-4.12,4.64-7.19.16-1.2,1.39-1,1.85-1.81,2.61-4.58,5.92-8.79,7.74-13.79.44-1.2.15-2.64.3-3.96.09-.82-.33-2.09,1.06-2.14.96-.03,1.05-1.69,2.28-.98,1.75,1.01,3.4,2.18,3.74,4.28.29,1.85,1.26,2.86,2.65,4.06,2.18,1.89,4.99,3.65,4.44,7.39-.41,2.8-2.85,3.83-4.48,5.55-1.1,1.16-2.11,2.16-2.66,3.79-.8,2.36-2.06,4.57-3.91,6.39-1.84,1.82-1.1,4.12-.86,6.27.1.87,1.01.72,1.63.8,4.3.56,5.08,2,3.06,5.69-.46.84-1.27,1.91-1.73,2.16-1.96,1.08-1.51,2.69-1.57,4.28-.08,1.93.4,3.93-1.21,5.63-.5.52-.31,1.76-.32,2.67-.03,3.08-.37,6.22.08,9.23.55,3.67-1.83,5.36-4.12,6.94-1.81,1.24-3.67-.14-4.44-1.77-1.46-3.09-3.71-5.67-5.57-8.44-1.31-1.96-1.91-3.68-1.27-5.48.45-1.28,1.46-2.55,2.26-3.78,1.48-2.3,1.04-4.43.7-6.84Z"/>
        <path class="cls-1" d="M1231.61,212.42c0-3.33-.02-6.67,0-10,.02-2.93,1.13-4.02,4.03-4.02,2.95,0,4.35,1.27,4.35,4.02,0,5.08.03,10.17-.06,15.25-.03,1.74.6,2.4,2.32,2.28,1.66-.11,3.33-.04,5-.04.33,0,.85.18.97.03,1.1-1.43,2.33,4.39,3.39-.1.37-1.57,1.41-2.95,2.02-4.5.96-2.47.49-5.53,2.82-7.51.69-.59.42-1.74.46-2.64.21-4.6,2.62-7.53,7.99-6.79,2.78.38,3.04,2.82,3.48,4.6.8,3.18,2.3,6.06,3.28,9.15.53,1.69.39,3.46,1.38,5.19,1.03,1.8.91,4.12,2.23,6.15,1.27,1.95,0,3.31-2.46,3.46-4.03.26-4.49-.05-5.97-3.99-.09-.23-.15-.49-.31-.66-1.81-1.89-8.8-.3-9.28,2.26-.38,1.99-1.46,2.39-3.11,2.39-6.42,0-12.83,0-19.25-.01-2.33,0-3.16-1.58-3.23-3.51-.13-3.66-.04-7.33-.04-11,0,0,0,0-.01,0ZM1263.61,212.48c-.58-.54.24-2.46-.86-2.14-.95.27-2.46,1.33-2.6,2.95-.13,1.46.86,1.48,1.9,1.55,1.72.12,1.47-1.11,1.56-2.36Z"/>
        <path class="cls-1" d="M977.4,212.77c0,3.33,0,6.66,0,9.99-.01,3.07-1.19,4.26-4.14,4.21-2.8-.05-3.77-1.15-3.76-4.27,0-2.91.04-5.83,0-8.74,0-.69.1-1.71-.93-1.76-1.09-.05-.77,1.05-1.03,1.68-1.2,2.92-.83,6.37-3.17,8.93-.7.77-.07,2.08-1.2,3.07-1.12.98-2.22,1.36-3.31.9-1.1-.47-2.35-1.33-2.27-2.85.19-3.49-3.1-6.07-2.44-9.73.11-.62-1.02-1.89-1.99-1.76-.79.1-.49,1.28-.5,1.99-.02,3.25.04,6.49,0,9.74-.01.95.21,2.2-1.01,2.55-1.27.37-2.83.69-3.87-.15-1.24-1.02-2.3-2.17-2.22-4.28.24-6.48.09-12.98.1-19.47,0-2.88,1.45-4.37,4.3-4.4,1.08-.01,2.16,0,3.25,0,3.84.01,5.49,1.09,5.57,4.87.07,2.95,1.58,5.2,2.33,7.79.1.36.29.62.66.6.38-.02.54-.32.59-.68.37-2.57,1.93-4.79,1.8-7.56-.1-2.26,3.28-5.01,5.58-5.02,1.33,0,2.66-.03,4,0,2.36.05,3.64,1.27,3.67,3.63.05,3.58.01,7.16.01,10.74,0,0-.02,0-.02,0Z"/>
        <path class="cls-1" d="M833.33,212.31c-.12.04-.27.07-.27.1-.17,3.25-2.77,5.67-2.77,9.13,0,3.66-1.87,5.43-4.38,5.41-1.93-.01-3.8-1.6-3.86-3.54-.09-3.06-2.22-5.66-1.8-8.84.13-.95-.84-1.09-1.63-1.1-1.1-.01-1.44.64-1.43,1.61.01,2.92.06,5.83,0,8.75-.02,1.1.32,2.58-1.17,2.94-1.3.31-2.88.75-3.96-.49-1.02-1.17-2.08-2.53-.93-4.2.57-.83.63-1.68.63-2.61,0-4.5,0-9,0-13.5,0-.91-.11-1.75-.56-2.62-1.29-2.48.2-4.86,2.98-4.94,1.08-.03,2.17,0,3.25,0,4.3,0,6.52,1.84,6.52,6.13,0,2.46,1.61,4.29,1.73,6.61.02.36.31.57.71.5.41-.08.39-.46.53-.75,1.2-2.61,2.33-5.16,2.39-8.2.04-2.22,3.13-4.42,5.43-4.23,2.18.18,4.53-.93,6.54,1.18.78.82,1.17,1.45,1.17,2.47,0,7.08.03,14.16,0,21.24,0,2.21-1.92,3.66-4.57,3.59-2.6-.06-3.8-1.2-3.81-3.73-.01-2.83.05-5.66.02-8.5-.01-.85.24-1.86-.74-2.42Z"/>
        <path class="cls-1" d="M1050.45,212.7c0-3.5,0-7,0-10.5,0-3.47.27-3.74,3.63-3.78,1.42-.02,2.83-.02,4.25,0,2.38.03,3.31,1.64,4.46,3.52,1.69,2.77.11,6.33,2.64,8.71.4.38.53,1.14,1.27.88.67-.23.68-.96.64-1.5-.21-2.72,1.72-4.9,1.79-7.62.05-1.98,3.09-3.99,5.16-3.99,1.17,0,2.33,0,3.5,0,3.43.01,4.85,2.2,3.63,5.54-.17.45-.18.98-.19,1.47-.01,4.83-.12,9.67.05,14.49.06,1.79.75,3.5-.05,5.36-.46,1.06-.84,1.71-2.06,1.65-.91-.04-1.83.01-2.75.01-1.74,0-2.55-.84-2.53-2.62.05-3.5.03-7,.01-10.5,0-.55.16-1.35-.54-1.51-.87-.2-.6.78-.91,1.18-1.15,1.51-.75,3.9-1.67,4.93-2.01,2.24-1.05,5.3-2.9,7.48-.98,1.16-2.01,1.23-3.03.95-1.14-.3-2.02-1.15-2.46-2.44-.91-2.69-1.99-5.31-2.95-7.98-.25-.69-.28-1.46-.46-2.18-.21-.8.33-2.21-.99-2.17-1.47.04-.97,1.52-.99,2.39-.06,3.08.03,6.16.01,9.25-.02,2.87-.47,3.18-3.4,3.26-2.41.07-3.26-.96-3.2-3.29.11-3.66.03-7.33.03-11,0,0-.01,0-.02,0Z"/>
        <path class="cls-1" d="M1277.05,212.49c0-3.16.01-6.32,0-9.49-.02-3.34,1.2-4.59,4.52-4.59,3.41,0,6.82.02,10.23.01,3.31,0,5.86,1.27,7.41,4.31.45.88,1.68.96,1.82,2.38.19,1.98-.81,3.07-1.91,4.37-2.1,2.48-1.94,3.34.57,5.24,1.85,1.41,2.06,5.99.35,7.45-.3.26-.7.54-.81.89-.98,3.08-3.86,3.45-6.22,3.71-4.03.44-8.14.19-12.22.14-2.09-.03-3.68-1.79-3.69-3.94-.02-3.49,0-6.99,0-10.48h-.04ZM1289.24,220c.6-.03,1.35,0,2.09-.11,1.83-.27,2.18-1.75,1.42-3.41-1.12-2.44-3.1-1.2-4.71-1.5-1.89-.35-2.57.54-2.73,2.43-.27,3.32,2.05,2.42,3.93,2.59ZM1289.05,204.79c-1.72.18-3.87-.68-3.72,2.29.09,1.79.68,2.74,2.67,2.65,2.48-.1,4.54-1.34,4.55-2.98.01-2.95-2.37-1.39-3.49-1.96Z"/>
        <path class="cls-1" d="M729.14,211.65c0-2.75.02-5.49,0-8.24-.04-3.84,1.09-5.02,4.88-5,2.91,0,5.83.05,8.74.01,3.69-.05,6.23,1.32,8.66,4.42,1.61,2.05,1.86,3.83,1.49,5.74-.33,1.67-1.49,3.3-2.65,4.63-1.5,1.72-1.13,3.48-.26,5,.56.97.99,1.83,1.06,2.92.06.94.28,1.73,1.28,2.23,1.06.53.63,1.58.51,2.45-.12.85-.81,1-1.49,1.01-2.15.03-4.46.86-6.22-1.24-.26-.31-.67-.54-.63-.98.22-2.37-2.27-3.55-2.48-5.89-.12-1.37-2.05-2.15-3.25-3.04-.96-.71-.96.36-1.1.94-.48,2.06-.15,4.14-.17,6.22-.04,3.28-2.6,5.13-5.63,4.02-.23-.08-.63-.22-.62-.33.05-2.15-2.28-3.43-2.03-5.63.04-.33,0-.67,0-1,0-2.75,0-5.49,0-8.24-.02,0-.04,0-.05,0ZM740.76,204.81c-1.77-.04-3.41-.28-3.43,2.49-.02,2.85,1.64,2.74,3.53,2.63.74-.04,1.48-.09,2.22-.16,1.67-.16,1.56-1.49,1.57-2.6.01-1.07-.09-2.22-1.67-2.2-.74.01-1.48-.1-2.22-.16Z"/>
        <path class="cls-1" d="M1339.38,198.43c1.75,0,3.5.05,5.24,0,3.44-.12,7.06,2.41,8.07,5.73.89,2.92,1.16,6.42-1.49,8.8-1.5,1.35-1.52,2.72-1.1,4.17.5,1.75,1.27,3.46,2.2,5.02.76,1.28.89,2.56.45,3.8-.51,1.42-1.95.98-3.05,1-3.42.04-3.65-.53-4.95-3.71-.73-1.79-1.73-3.43-2.21-5.4-.33-1.35-2.03-1.12-3.28-1.04-1.33.09-1.26,1.06-1.26,2,.01,1.58.03,3.16.03,4.74,0,2.07-1.11,3.18-3.1,3.39-3.04.31-4.93-.65-5.16-2.86-.18-1.77.03-3.52.47-5.36.96-4.01,1.1-8.22-.07-12.24-.53-1.84-.74-3.65-.34-5.36.33-1.43,1.31-2.8,3.3-2.69,2.07.11,4.16.02,6.24.03ZM1341.65,204.87c-1.39.25-3.5-.86-3.69,1.92-.19,2.77.28,3.22,3.59,3.14,2.32-.06,4.93-1.49,4.56-2.61-.67-2.03-2.28-2.83-4.46-2.45Z"/>
        <path class="cls-1" d="M1133.09,198.43c1.5,0,3,.06,4.49-.01,3.49-.16,5.74,1.42,7.76,4.28,1,1.41,1.54,2.55,1.81,4.19.45,2.76-1.74,4.32-2.85,6.14-1.15,1.89-1.16,3.52-.42,5.01.56,1.13,1.11,2.12,1.17,3.39.04.84.23,1.6,1.2,1.99,1.02.4.74,1.36.65,2.17-.1.94-.79,1.17-1.6,1.23-2.28.17-5.11.89-6.25-1.49-.83-1.73-2.27-3.25-2.53-5.21-.15-1.19-.85-1.96-1.49-2.78-.73-.95-1.83-.66-2.77-.45-.99.22-.75,1.16-.76,1.87-.02,1.66.04,3.33,0,4.99-.03,1.13.28,2.61-1.2,2.94-1.73.39-3.69.92-5.22-.37-1.57-1.31-3.3-2.88-.63-4.89.33-.25.23-.76-.05-1.14-1.81-2.44-1.25-4.48-.05-7.27,1.06-2.46,1.39-6-.58-8.76-.84-1.17-1-2.62-.34-3.48.73-.97,1.46-2.4,3.16-2.36,2.16.06,4.33.01,6.49.01ZM1134.66,209.98c.91-.07,1.85-.03,2.72-.25,1.16-.29,2.13-1.34,2.21-2.28.08-.97-.87-2.15-2.01-2.39-1.28-.27-2.64-.12-3.96-.21-1.61-.11-2.08.63-2.2,2.19-.19,2.55.97,3.26,3.24,2.94Z"/>
        <path class="cls-1" d="M565.45,198.42c1.83,0,3.68-.16,5.49.04,2.47.27,4.96,1.02,6.56,2.97,1.26,1.53,2.39,3.49,2.73,5.4.53,3.02-2,4.85-3.91,6.64-1.41,1.32-1.67,2.27-.17,3.53,1.63,1.37,3.14,7.05,2.39,8.95-.61,1.54-1.97.92-3.02.96-1.33.05-2.77.39-3.58-1.42-1.18-2.66-2.63-5.18-3.64-7.94-.33-.91-1.75-1.41-2.68-2.1-.47,1.17-2.1,1.63-1.92,3.2.12,1.06-.08,2.11.45,3.16,1.43,2.84.05,5.04-3.13,5.15-4.28.14-4.58-.16-4.57-4.36.02-6.91,0-13.82.03-20.73.01-3.07.36-3.39,3.47-3.45,1.83-.03,3.66,0,5.49,0ZM567.28,209.9c.81,0,1.22,0,1.63,0,1.85,0,3.15-.42,3.14-2.76,0-2.49-1.69-2.16-3.19-2.27-.74-.05-1.49.02-2.23-.04-1.65-.13-2.32,1.11-2.86,2.23-.55,1.15.78,1.69,1.33,2.41.61.8,1.69.34,2.17.42Z"/>
        <path class="cls-1" d="M1197.59,212.78c0,3.75,0,7.5,0,11.24,0,1.4-.11,2.88-1.95,2.87-1.76,0-4.12.94-4.74-1.81-.25-1.12-1.28-1.24-1.68-1.92-1.23-2.12-2.36-4.32-3.31-6.57-.82-1.95-2.47-3.02-3.93-4.31-.31-.27-.85-.15-1.07.29-.3.62-.4,1.38.07,1.89,2.76,3.03,1.11,6.65,1.14,9.96,0,1.08-1.77,2.97-3.62,2.42-1.41-.42-3.01-1.2-3-3.27.02-7.5,0-14.99-.05-22.49-.01-1.76.74-2.54,2.48-2.7,4.05-.37,6.62,1.6,8.38,5.15.82,1.66,1.12,3.58,2.45,5.13.96,1.12,1.83,1.57,2.85.97,1.22-.72.73-1.98.26-3.08-1.05-2.45-1.37-4.78.38-7.18,1.14-1.55,2.48-1,3.77-.84,1.34.16,1.56,1.36,1.57,2.49.03,3.91,0,7.83,0,11.74,0,0,0,0-.01,0Z"/>
        <path class="cls-1" d="M1120.07,219.36c0,1.75.04,3.5-.02,5.25-.03.8.06,1.83-.96,2.08-.84.21-1.72.37-2.55-.41-1.2-1.13-2.47-1.26-3.88-.04-1.43,1.23-7.98,1.03-9.56-.07-2.58-1.78-4-4.25-5.56-6.97-1.45-2.52-1.35-4.77-1.47-7.22-.08-1.52-.09-2.92,1.37-4.23,1.14-1.02.93-3.09,1.63-4.69,1.31-3,4.05-3.71,6.22-4.35,2.5-.74,5.37-.42,8.33.52,3.45,1.1,3.82,4.3,6.14,5.95.68.49.35,1.81-.06,2.6-.68,1.27-6.07,1.1-6.74-.18-2.01-3.81-5.14-3.38-7.96-1.01-.92.77-.91,10.92,0,11.67,1.53,1.25,3.18,2.23,5.33,1.7.75-.18,1.26-.4,1.25-1.23-.01-.78-.12-1.63-1.12-1.62-1.94.03-2.41-1-2.62-2.76-.25-2.07,1.42-2.75,2.32-4,.09-.12.59-.14.68-.03,1.91,2.47,4.62,1.16,6.96,1.41,1.62.17,2.43.61,2.32,2.38-.11,1.74-.02,3.5-.03,5.24Z"/>
        <path class="cls-1" d="M401.18,212.63c0,3.91-.07,7.83.03,11.74.06,2.41-1.33,2.71-3.21,2.59-1.86-.12-4.08.34-4.03-2.68.03-2.33,0-4.66,0-7,0-1.69-.82-2.41-2.5-2.22-1.59.18-3.8-.77-3.97,2.03-.12,1.99-.02,3.99-.05,5.99-.04,2.83-1.19,3.89-4.19,3.89-3.03,0-4.18-1.04-4.2-3.87-.05-6.91-.1-13.82-.12-20.73,0-2.74,1.46-4.02,4.47-4,2.85.02,4.04,1.19,4.06,4.02,0,.75-.04,1.5-.05,2.25-.05,3.67,2.25,5.18,5.69,3.81.96-.38.85-1.13.86-1.84.03-1.83.05-3.67,0-5.5-.06-1.75.72-2.54,2.47-2.71,4.43-.43,4.77-.17,4.76,4.23,0,3.33,0,6.66,0,10h-.01Z"/>
        <path class="cls-1" d="M667.98,212.35c0-3.58.08-7.16-.03-10.74-.07-2.21.78-3.25,3.02-3.2,2.83.06,5.79-.48,8.46.18,2.73.67,5.74.86,8.12,2.87,1.13.96,1.07,2.3,1.82,3.39,2.22,3.22,3.58,6.94,2.47,10.89-.41,1.47-1.54,2.87-2.41,4.21-.68,1.05-.77,2.27-1.56,3.28-1.35,1.73-3.33,1.72-4.97,2.56-3.55,1.8-7.13.91-10.68,1.11-2.99.17-4.24-1.27-4.24-4.31,0-3.41,0-6.83,0-10.24ZM678.78,204.92c-2.46-.06-3.55,1.01-3.57,3.58-.03,2.57,0,5.15,0,7.72,0,3.56.77,4.4,4.23,3.62,1.95-.44,3.62-1.51,4.13-4.06.46-2.25.36-4.29-.03-6.49-.51-2.89-1.9-4.31-4.77-4.38Z"/>
        <path class="cls-1" d="M657.3,211.7c.97-.88.66-2.03.68-3.03.05-2.58.03-5.16-.03-7.74-.05-2.05,1.18-2.46,2.87-2.55,1.76-.1,2.38.74,2.38,2.36,0,7.91.02,15.82-.02,23.73,0,1.04,0,2.22-1.53,2.44-2.2.3-3.82-.32-5.25-2.19-1.89-2.46-2.7-5.46-4.53-7.94-.83-1.13-.39-3.11-2.34-3.65-.32-.09-.28-1.06-.99-.77-.55.22-.5.84-.5,1.31-.02,3.41.03,6.83-.01,10.24-.03,2.59-.79,3.18-3.35,3.07-1.28-.05-2-.69-1.81-1.82.67-3.87-2.37-7.02-1.83-10.98.5-3.68.28-7.49,0-11.22-.17-2.23,1-3.8,2.51-4.27,1.79-.57,3.88-.72,5.93.47,2.16,1.26,2.21,3.56,3.43,5.24,1.04,1.43,1.33,3.37,3.01,4.44.95.6.27,2.11,1.36,2.86Z"/>
        <path class="cls-1" d="M1314.85,226.96c-2.43.95-4.34-1.33-6.74-1.69-.93-.14-.9-1.33-1.24-1.96-1.14-2.1-3-3.81-3.16-6.53-.1-1.87-1.5-3.6-1.13-5.68.73-4.05,1.98-7.89,5.15-10.71,2.77-2.46,8.88-2.22,12.44-.98,4.1,1.43,4.59,4.74,6.15,7.85,1.03,2.06,1.93,3.92,1.53,6.13-.65,3.6-1.69,7.08-4.11,9.99-2.26,2.73-5.15,3.86-8.9,3.58ZM1311.1,211.79c0,1.96-.07,3.3.02,4.62.15,2.38,1.4,3.53,3.75,3.59,2.27.06,4.42-1.46,4.51-3.46.12-2.82.09-5.66-.05-8.48-.09-1.74-1.63-2.65-2.96-3.03-1.34-.38-2.84-.58-4.2.99-1.77,2.06-.63,4.3-1.06,5.76Z"/>
        <path class="cls-1" d="M896.44,212.65c0-3.75.05-7.49-.02-11.24-.04-2.07.73-3.06,2.92-3.02,4.99.08,9.99.12,14.99,0,2.5-.05,2.82,1.31,2.83,3.31,0,2.01-.34,3.4-2.84,3.26s-5,.07-7.49-.06c-1.8-.09-2.9,1.1-2.94,2.33-.04,1.26,1.2,2.42,2.81,2.47.83.02,1.92.28,2.44-.14,1.49-1.19,2.58-.46,4,.09,1.51.58,2.04,1.49,1.7,2.8-.32,1.24-1.02,2.48-2.58,2.57-1.49.09-3.04.25-4.48-.02-1.98-.37-2.8.92-3.69,2.13-.71.97.76,2.76,2.37,2.79,2.66.06,5.33.1,7.99-.02,2.86-.13,2.64,1.81,2.7,3.65.06,1.89-.06,3.46-2.67,3.41-5.16-.1-10.32-.03-15.49,0-1.79.01-2.57-.81-2.55-2.57.03-3.91,0-7.83,0-11.74Z"/>
        <path class="cls-1" d="M845.98,209.92c0-2.58-.02-5.16,0-7.74.03-2.8,1.09-3.79,3.99-3.79,3.03,0,4.49,1.24,4.5,3.9.01,4.83-.05,9.66,0,14.48.03,3.05.3,3.24,3.57,3.27,2.84.02,4.28-1.06,4.31-3.5.06-4.66,0-9.32-.02-13.98-.01-3.83.24-4.16,3.17-4.17,2.83-.01,3.92,1.23,3.9,4.4-.02,3.33-.33,6.7.07,9.98.42,3.45-1.47,6.34-1.62,9.61-.06,1.22-1.87,2.47-2.39,2.6-1.89.49-3.3,2.23-5.43,2-3.28-.36-6.72.93-9.82-1.41-1.25-.94-2.04-2.06-2.76-3.31-1.9-3.33-1.4-7-1.45-10.6,0-.58,0-1.17,0-1.75h-.03Z"/>
        <path class="cls-1" d="M1002.86,198.35c3.88-.21,6.64,1.28,9.02,4.66,2.85,4.05,3.55,8.31,2.91,12.87-.5,3.55-2.57,6.55-4.97,9.18-2.02,2.22-9.25,2.21-12.09,1.03-5.05-2.09-5.4-6.33-6.59-10.73-.87-3.21.56-5.84.49-8.77-.04-1.79,1.05-3.87,2.57-5.22,2.43-2.14,5.28-3.34,8.66-3.02ZM1006.7,212.78c-.07-1.59-.09-2.92-.2-4.25-.21-2.47-1.37-3.62-3.64-3.66-2.88-.06-4.48,1.04-4.64,3.53-.17,2.73-.12,5.48-.03,8.22.05,1.49,1.06,2.83,2.31,3.09,1.6.33,3.39,1.04,4.98-.82,1.74-2.03.63-4.3,1.22-6.11Z"/>
        <path class="cls-1" d="M529.37,209.88c0-2.41.03-4.82,0-7.24-.05-3.09,1.08-4.2,4.4-4.25,3.22-.05,4.25.89,4.26,4,.01,4.74-.05,9.49,0,14.23.01,1.17-.36,2.79,1.32,3.11,1.78.34,3.63.85,5.38-.56,1.3-1.05,1.72-2.16,1.68-3.78-.11-4.66-.06-9.32-.06-13.98,0-1.58.1-2.94,2.3-3.05,2.19-.11,4.1.53,4.18,2.72.23,5.82.28,11.66-.11,17.46-.15,2.26-1.45,4.59-2.95,6.47-.77.96-2.33.8-3.52,1.46-2.17,1.2-4.87.48-7.35.5-2.5.02-4.35-.72-6.25-2.87-2.44-2.77-3.1-5.62-3.09-8.97,0-1.75,0-3.5,0-5.24-.06,0-.13,0-.19,0Z"/>
        <path class="cls-1" d="M405.93,212.65c0-3.75.05-7.5-.02-11.24-.04-2.06.68-3.05,2.89-3.01,5,.09,10,.1,14.99,0,2.47-.05,2.85,1.28,2.85,3.3,0,2-.31,3.41-2.82,3.28-2.57-.14-5.16-.07-7.74-.01-1.2.02-2.66-.24-2.87,1.6-.22,1.93,1.25,2.61,2.61,3.05,1.05.34,2.43.48,3.38-.29,1.77-1.42,3.07.09,3.77.96.75.92,1.85,2.46.23,4.03-.74.72-1.43.72-2.2.75-1.5.06-3,.08-4.5-.03-2.06-.15-2.66,1.59-3.19,2.82-.59,1.37.66,2.05,2.01,2.06,2.75.02,5.51.14,8.24-.03,2.8-.18,3.08,1.44,3.06,3.57-.03,3.05-.3,3.46-3.13,3.49-4.83.05-9.66-.06-14.49.04-2.24.04-3.17-.79-3.1-3.07.1-3.75.03-7.5.03-11.24Z"/>
        <path class="cls-1" d="M593.85,198.47c2.66,0,5.33.03,7.99,0,2.42-.03,2.26,1.67,2.28,3.27.02,1.63.09,3.25-2.32,3.19-2.74-.06-5.49-.02-8.24.01-1.31.02-2.81-.17-2.88,1.85-.07,1.79,1.31,2.47,2.57,2.81,1.12.3,2.54.5,3.61-.37,1.86-1.51,2.87.42,3.64,1.2,1.09,1.09,1.44,2.83-.12,4.19-.56.49-1.25.42-1.89.44-1.41.05-2.86.17-4.24-.05-2.12-.34-2.81,1.37-3.42,2.56-.71,1.38.33,2.33,1.91,2.34,2.75.02,5.49-.04,8.24.01,2.92.05,3.06.36,3.16,3.69.07,2.22-.54,3.41-3.04,3.35-4.91-.11-9.82-.07-14.73-.01-2.08.03-3-.76-2.98-2.93.06-7.57.06-15.15-.01-22.72-.02-2.16.89-2.98,2.98-2.91,2.49.08,4.99.02,7.49.02,0,.02,0,.03,0,.05Z"/>
        <path class="cls-1" d="M785.96,226.99c-2.49.12-5.05.2-7.03-1.57-1.43-1.28-2.81-2.74-3.75-4.39-.56-.96-.18-2.06,1.39-2.85,2.64-1.32,4.39-.25,6.28,1.18,1,.76,5.46,1.02,6.5.42.66-.38.54-.95.53-1.52-.02-.81-.46-1.24-1.24-1.26-3.76-.11-6.49-3.02-10.06-3.76-.82-.17-1.92-1.32-2.11-2.71-.46-3.4-.48-6.81,1.82-9.52,1.06-1.24,2.93-2.21,4.55-2.45,4.41-.65,8.71-.38,12.49,2.71,1.03.85,1.82,1.55,1.55,2.71-.3,1.31-1.7,2-2.8,2.32-1.4.4-2.9.57-4.34-.79-1.02-.96-2.8-1.11-4.24-1.62-.25,1.26-2.5.77-2.17,1.86.31,1.02,1.73,2.47,2.6,2.42,2.48-.13,4.31,1.48,6.59,1.82,2.74.4,5.9,4.84,5.85,7.69-.05,3.19-3.05,6.53-5.81,8.06-2.22,1.23-4.35,1.19-6.6,1.28Z"/>
        <path class="cls-1" d="M487.14,210.67c0,2.25-.22,4.53.06,6.74.34,2.75-.64,5.14-2.11,7.08-1.06,1.4-3.15,2.24-5.09,2.39-2.4.19-4.84.23-7.24,0-1.88-.18-3.19-1.59-4.71-2.74-3.6-2.72-3.2-6.26-3.22-9.87-.02-4.25.04-8.5-.03-12.74-.03-2.1.57-3.07,2.95-3.2,4.26-.23,5.91,1.26,5.67,5.54-.26,4.57-.02,9.16-.06,13.74-.02,1.66.62,2.3,2.32,2.42,4.83.32,7.52-3.36,5.34-7.8-.87-1.78-.26-3.71.05-4.89.71-2.68-1.73-5.51.76-8,1.34-1.33,2.7-.94,4.09-.79,1.38.15,1.18,1.45,1.2,2.38.06,3.25.02,6.5.02,9.75h-.01Z"/>
        <path class="cls-1" d="M1365.74,227c-2-.16-4.51.49-6.46-1.49-.91-.93-1.84-1.82-2.82-2.68-1.16-1.01-2.23-2.54-1.05-4.03.82-1.03,2.69-.39,3.85-1.42.21-.19,1.54.51,2.04,1.08,2.13,2.43,4.84,1.51,7.41,1.45.96-.02,1.21-.63,1.18-1.52-.04-.94-.52-1.22-1.36-1.45-3.89-1.06-7.79-2.04-10.97-4.86-.73-.65-1.04-1.14-1.08-1.95-.06-1.5-.1-3-.1-4.49,0-1.93.43-3.43,2.16-4.86,4.06-3.36,14.11-4,16.75,1.71.24.52.7.66,1.13.9.67.37.65.92.17,1.43-1.9,2.04-4.48,2.15-6.89.5-1.14-.78-2.67-.69-3.92-1.43-.29-.17-2.08,1.17-2.01,1.62.19,1.19,1.04,2.71,2.31,2.69,2.34-.04,4.48.9,6.25,1.85,1.93,1.03,3.9,2.56,4.95,5,1.03,2.39.04,4.41-.31,6.5-.29,1.75-2.1,2.69-3.4,3.81-2.19,1.88-4.87,1.63-7.83,1.62Z"/>
        <path class="cls-1" d="M886.5,219.37c-2.78-2.25-5.11-3.64-8.02-4.52-2.13-.64-5.31-.62-5.79-4.21-.14-1.03-1.78-1.68-1.66-3.28.17-2.38,1.77-4.09,2.84-5.89,1.12-1.88,3.39-3.01,5.95-3.14,3.34-.18,6.58.12,9.51,1.73,1.27.7,2.52,1.78,2.37,3.61-.08,1,.05,2.24-1.12,2.51-1.45.34-2.83.53-4.45-.38-1.61-.9-3.4-2.84-5.78-1.06-.75.56-1.01.94-.83,1.76.18.8.17,1.81,1.35,1.73,2.8-.19,5.08,1.62,7.83,1.9,1.96.2,3.56,2.52,4.02,4.26.8,3.08,1.1,6.43-1.75,9.12-4.12,3.89-9.45,4.6-15.04,2.28-2.72-1.13-4.81-2.32-5.01-5.51-.07-1.15.33-1.59,1.56-2.01,2.37-.8,4.23-1.32,5.98,1.27.66.97,2.89.38,3.75,1.88.98-1.11,2.26-1.73,4.31-2.05Z"/>
        <path class="cls-1" d="M627.42,198.4c3.92.03,4.44.78,5.24,4.61.48,2.28,1.74,4.41,2.48,6.69.34,1.07.65,2.12.84,3.23.27,1.54-.35,3.41,1.67,4.33.28.13.33.9.38,1.39.16,1.37.29,2.6,1.12,3.91,1.47,2.32.06,4.31-2.76,4.4-3.84.12-4.37-.27-5.48-3.96-.09-.3-.18-.67-.4-.86-2.03-1.76-8.62-.07-9.27,2.51-.4,1.6-1.19,2.06-2.68,2.34-2.03.38-2.93-1.13-4.17-2.07-.32-.24-.23-.78.08-1.13,2.03-2.36,1.97-5.49,3.09-8.16,1.06-2.54.82-5.46,2.88-7.78,1.18-1.33.84-3.65,1.66-5.53,1.59-3.67,1.45-3.94,5.3-3.91ZM627.69,212.55c-.48-.68.05-2.65-.99-2.16-.89.41-2.59,1.32-2.53,3.11.05,1.4,1.05,1.26,1.93,1.34,1.75.16,1.43-1.18,1.59-2.28Z"/>
        <path class="cls-1" d="M723.53,226.97c-2.93-.02-3.85-.77-4.54-3.68-.11-.47-.02-1.11-.61-1.26-2.29-.59-4.68-.55-6.93-.1-1.25.25-2.01,1.72-2.31,3.13-.5,2.39-2.44,1.71-4,1.89-1.73.2-2.2-1.26-2.83-2.3-.53-.87.83-1.29.96-2.12.73-4.51,2.84-8.62,4.08-12.99.86-3.01,2.1-6.1,3.18-9.15.19-.55.81-1.04,1.35-1.36,2.07-1.24,4.44-.9,6.46-.31,1.2.35,2.41,1.95,2.19,3.77-.17,1.39,1.31,2.25,1.43,3.12.34,2.55,2.15,4.69,1.97,7.26-.21,2.98,2.14,5.31,1.83,8.31-.09.86,1.32.72,1.63,1.68.9,2.79-.31,4.14-3.89,4.11ZM714.16,214.83c1.63.16,1.89-1.47,2.83-2.22-1.23-.39-1.25-1.94-2.35-2.45-.53,1.24-2.2,1.62-2.41,3.06-.21,1.46.9,1.52,1.93,1.6Z"/>
        <path class="cls-1" d="M446.55,212.71c0,1,.11,2.01-.02,2.99-.33,2.37,1.34,3.49,2.98,4.09,1.89.7,4.18.51,5.13-1.63.63-1.41,2.03-1.68,2.83-2.81.87-1.23,4.34,1.03,4.67,2.81.45,2.39-1.34,3.55-2.43,5.16-3.09,4.57-7.82,4.35-12.08,3.38-3.47-.78-5.98-3.51-7.96-7.01-2.04-3.6-2.15-7.16-1.46-10.59.78-3.86,2.86-7.27,6.77-9.39,2.85-1.54,5.66-1.28,8.57-1.34,3.11-.06,4.72,2.01,6.6,4.09,1.46,1.61,2.1,3.11,1.97,5.17-.09,1.52-.68,2.31-2.28,2.24-.99-.04-1.99,0-2.99.05-1.19.05-1.75-.46-2-1.67-.55-2.75-1.91-3.66-4.65-3.36-2,.22-3.56,1.93-3.64,4.07-.05,1.25,0,2.5,0,3.74h-.02Z"/>
        <path class="cls-1" d="M919.82,211.12c0-4.07.02-7.15,0-10.22-.02-1.72.6-2.67,2.49-2.49.82.08,1.66-.05,2.49-.01,1.68.07,4.03,3.16,3.17,4.51-1.07,1.69-.67,3.37-.73,5.06-.09,2.66.07,5.33-.07,7.98-.09,1.71.78,3.22,1.9,3.71,1.77.77,3.97.73,5.84-.09.87-.38.63-1.64.64-2.53.02-4.99-.03-9.98,0-14.97,0-2.36,1.15-3.56,3.34-3.65,2.77-.12,3.2.23,3.21,3.06.03,5.74.02,11.48-.05,17.22-.05,4.05-4.04,8.11-8.06,8.26-2.08.07-4.25.39-6.21-.08-2.17-.52-4.2-1.21-5.95-3.32-3.55-4.28-1.15-9.01-1.98-12.43Z"/>
        <path class="cls-1" d="M1157.83,220.19c-1.1,1.61-2.21,2.82-2.57,4.74-.33,1.75-4.56,2.62-6.03,1.61-1.2-.83-.91-3.01.62-4.92.2-.24.39-.57.41-.86.36-4.57,3.08-8.54,3.29-13.14,2.77-2,1.08-5.76,3.25-8.07,2.04-2.16,7.41-1.34,8.93,1.19,1.06,1.76,1.25,3.52,1.37,5.39.07,1,.06,2.01,1.27,2.45.24.09.51.54.49.79-.26,2.57,1.08,4.86,1.89,7.04.9,2.43.37,5.38,2.55,7.38.76.7-.9,2.77-2.46,3.1-3.38.72-4.76-.11-5.49-3.46-.37-1.72-1.68-1.59-2.9-1.67-1.68-.11-3.53.43-4.63-1.57ZM1158.5,212.43c.07,1.15-.31,2.45,1.58,2.45,1.37,0,2.03-.47,1.87-1.86-.15-1.31.29-3-1.91-3.04-1.94-.03-1.21,1.55-1.54,2.44Z"/>
        <path class="cls-1" d="M1018.33,212.56c0-3.75.04-7.5-.02-11.24-.03-2.03.61-3.03,2.88-2.96,4.49.14,8.99.03,13.49.06,2.38.01,3.75,1.22,3.78,3.22.03,2.06-1.3,3.28-3.67,3.31-2.5.03-5,.02-7.49.03-1.53,0-2.22.7-2.22,2.3,0,1.62.5,2.56,2.25,2.54,1.66-.02,3.33-.05,4.99.01.94.04,2.25-.29,2.52,1,.28,1.39.79,2.84-.34,4.25-1.08,1.34-2.25,1.81-3.99,1.74-5.36-.22-5.36-.13-5.32,5.27,0,.25,0,.5,0,.75,0,3.91-1.61,5.07-5.44,4.03-1.47-.4-1.37-1.54-1.38-2.57-.05-3.91-.02-7.83-.02-11.74Z"/>
        <path class="cls-1" d="M514.46,215.79c0-2.83-.07-5.66.03-8.49.06-1.71-.56-2.49-2.29-2.33-.41.04-.83,0-1.25,0-3.21-.05-4.72-2.61-3.27-5.49.41-.81,1.1-1.01,1.85-1.01,5.5-.02,10.99,0,16.49,0,2.46,0,2.16,1.82,2.18,3.36.01,1.48.2,3.1-2.13,3.12-1.23.01-2.41-.1-3.6,1.05-1.59,1.55-1.7,2.61-.23,4.12.88.9.74,1.95.14,2.97-1.8,3.06-1.9,6.11.05,9.13,1.11,1.73-.35,4.23-2.77,4.69-4.15.79-5.22-.12-5.21-4.37,0-2.25,0-4.5,0-6.75h.03Z"/>
        <path class="cls-1" d="M760.84,215.6c0-2.5-.13-5,.04-7.49.16-2.4-.71-3.27-3.13-3.18-3.12.12-3.37-.25-3.4-3.14-.03-3.12.25-3.38,3.41-3.38,4.74.01,9.49.08,14.23-.02,2.39-.05,3.14.95,3.18,3.27.04,2.37-.83,3.37-3.16,3.3-4.25-.12-3.92.01-3.91,4.23.01,4.74.03,9.49.02,14.23,0,3.29-.32,3.57-3.82,3.55-3.18-.02-3.46-.3-3.48-3.63-.02-2.58,0-5.16,0-7.74h.04Z"/>
        <path class="cls-1" d="M1205.94,215.64c0-2.58-.12-5.17.04-7.74.14-2.27-.65-3.07-2.95-3-3.22.11-3.79-.52-3.66-3.2.1-2.03,1.26-3.23,3.24-3.26,4.99-.09,9.99-.03,14.98-.03,2.51,0,2.1,1.89,2.11,3.39.01,1.42.34,3.04-2.03,3.18-4.22.24-4.47.63-4.45,4.94.02,4.74-.06,9.49.04,14.23.06,2.46-1.26,2.86-3.28,2.83-3.56-.05-3.98-.25-4.03-2.86-.06-2.83-.01-5.66-.01-8.49h.02Z"/>
        <path class="cls-1" d="M363.92,215.79c0-2.67-.13-5.34.04-7.99.15-2.26-.81-3.04-2.9-2.85-.17.02-.33,0-.5,0-3.41-.04-4.59-1.8-3.54-5.11.35-1.09,1.11-1.4,2.08-1.4,5.41-.01,10.83,0,16.24,0,2.33,0,2.36,1.61,2.37,3.26,0,1.64.01,3.1-2.34,3.26-4.5.3-4.67.62-4.65,5.26.01,3.25-.13,6.51.07,9.74.1,1.71.58,3.26,0,5.1-.91,2.91-3.02,1.67-4.7,1.82-1.82.17-2.19-1.1-2.19-2.6,0-2.83,0-5.66,0-8.5,0,0,.02,0,.03,0Z"/>
        <path class="cls-1" d="M492.34,212.4c0-3.82.08-7.65-.03-11.47-.07-2.7,1.7-2.52,3.49-2.57,1.86-.05,3.31.21,3.29,2.59-.05,5.49.05,10.97-.05,16.46-.03,1.82.55,2.61,2.38,2.52,1.41-.07,2.88.23,4.23-.09,2.52-.59,3.66,1.25,4.94,2.62,1.1,1.18-.86,4.33-2.85,4.39-4.57.13-9.14.05-13.71.02-1.7-.01-1.69-1.36-1.7-2.51-.04-3.99-.02-7.98-.02-11.97h.03Z"/>
        <path class="cls-1" d="M1085.92,212.64c0-3.83.08-7.65-.02-11.48-.07-2.48,1.3-2.82,3.32-2.81,2.04.01,3.52.17,3.48,2.86-.11,7.65-.11,15.3,0,22.95.04,2.74-1.54,2.79-3.54,2.82-2.07.04-3.34-.44-3.28-2.88.1-3.82.03-7.65.03-11.48Z"/>
      </g>
    </g>
  </g>
</svg>