<?xml version="1.0" encoding="UTF-8"?>
<svg id="Layer_2" data-name="Layer 2" xmlns="http://www.w3.org/2000/svg" viewBox="0 0 681.86 665.36">
  <defs>
    <style>
      .cls-1 {
        fill: #b11f24;
        stroke-width: 0px;
      }
    </style>
  </defs>
  <g id="Layer_1-2" data-name="Layer 1">
    <g>
      <path class="cls-1" d="M330.5,470.27c4.22,0,8.02.68,11.46-.15,5.9-1.43,11.77-.77,17.62-.69,2.4.03,4.51-1.55,7.26-.36,2.25.97,5.25.2,7.91.2s5.38-.29,7.99.08c2.57.37,4.62-1.25,7.1-1.17,2.18.07,4.62.94,6.58-.91,4.77.75,9.36-1.42,14.08-.95,2.48.25,4.92.94,7.34,1.58.43.11.86.37,1.34.36,5.22-.07,10.31,1.54,15.59,1.05,3.14-.29,6.35-.31,9.49,0,5.45.54,10.73-.89,16.07-1.29,4.52-.34,9.13-1.27,13.7-1.67,4.8-.42,9.66-.04,14.49-.11,4.03-.05,7.83.97,11.74,1.74,2.75.54,5.61,1.3,8.52,1.3,2.91,0,5.58-1.44,8.59-1.1,2.96.34,6.17.71,8.95-.06,5.55-1.55,11.19-1.22,16.6-.62,4.56.5,9.07.55,13.61.75,2.9.13,5.57-1.05,8.32-1.68.92-.21,1.34-.15,2.1.31,4.29,2.55,8.79,3.6,13.59,1.38,3.62.62,6.94-1.35,10.59-1.11,2.82.19,5.79.8,8.63-.81,1.31-.74,5.08.33,7.05.86,1.29.35.75,1.19.98,1.87.57,1.68.01,3.84-1.43,5.09-2.06,1.79-2.24,2.51-.3,4.78,1.11,1.3.76,2.04-.31,2.79-.88.61-1.86,1.24-2.88,1.46-1.31.29-2.4,1.35-2.53,2.11-.85,4.96-5.67,7.1-7.68,11.25-.96,1.98-3.16,3.34-4.72,5.06-.97,1.07-2.16.59-3.25.6-1.74.02-2.5.78-2.97,2.48-1.01,3.69-2.21,4.5-5.87,4.55-2,.03-4.01-.13-6,.03-3.95.33-7.6-.29-11.02-2.42-1.63-1.02-3.37-1.32-5.44-.69-2.91.88-6.23-1.07-9.08,1.04-1.95-1.57-4.6-.82-6.64-1.99-1.13-.65-2.52-.66-3.47-1.23-1.23-.73-1.68-.56-2.88.08-5.35,2.84-11.29,3.99-17.14,2.97-3.42-.59-6.76-.44-10.12-.84-2.67-.32-5.06.69-7.59,1.03-2.53.34-5.23-.73-7.6.99-.22.16-.66.06-.98.02-5.43-.68-10.67,1.23-16.09,1.09-2.16-.06-4.26,1.17-6.59.96-2.22-.19-4.54-.44-6.59.94-.11.08-.33.02-.49,0-6.58-.61-12.99,1.46-19.59,1.12-2.15-.11-3.98-1.07-6.08-1.18-2.04-.11-4.13.73-6.2-.75-.97-.7-3.03-.7-4.22.16-1.12.82-2.17.58-3.26.63-3.25.15-4.82,1.36-4.98,4.46-.18,3.32.01,6.67-.06,10-.03,1.4.84,2.43,1.47,3.38,1.97,2.98,2.23,5.97.27,8.82-.91,1.31-.88,2.56-.65,3.71,1.24,6.24,1.25,6.26,0,12.2-.22,1.02-.29,2.2.29,3.35,1.54,3.04.86,5.95-1.25,8.42-1.38,1.61-1.51,2.99-.52,4.82.8,1.48,1.26,3.14,1.8,4.75.83,2.5,1.2,4.77-.81,7.19-1.7,2.06-2.77,4.75-.59,7.4-.27,3.5,1.63,6.36,3.11,9.2,1.32,2.52,2.15,4.9,1.93,7.73-.14,1.83,1.08,3.13,2.76,3.6,2.38.66,4.6-.4,6.54-1.16,4-1.57,7.84-3.58,11.96-4.93.99-.32,1.73-1.47,2.55-2.27,2.64-2.59,5.43-4.87,8.61-6.89,2.73-1.74,5.55-2.76,8.39-2.63,5.36.25,10.07-.92,14.46-3.89.88-.59,1.96-1.14,2.98-1.19,2.01-.1,3.52-1.11,5.26-1.85,1.81-.77,2.52-2.59,4.18-3.18,1.83-.65,2.47-2.14,3.52-3.56,2.02-2.71,4.86-4.81,6.59-7.81,1.11-1.92,3.32-1.79,4.97-2.52,1.62-.72,3.84.17,5.52-1.15,4.28.76,8.36-1.36,12.58-.95,3.29.32,5.78-1.28,8.36-2.8,3.47-2.05,6.68-4.46,10.61-5.8,1.62-.55,3.74.51,4.89-1.45,3.12.47,4.9-1.92,7.09-3.38,1.59-1.06,2.91-2.59,4.59-3.43,1.19-.59,2.35-1.68,4.01-1.24.93.25,2.12.35,2.96-.02,1.87-.8,5-.13,4.81-3.66,4.41-6.32,6.67-14.13,13.08-19.08.62-.48,1.01-1.45,2-1.17,1.14.32.66,1.34.68,2.08.06,1.66.13,3.34,0,5-.35,4.42.45,8.75,1.03,13.09.34,2.5-.67,4.7-1.6,6.84-2.1,4.85-4.77,9.41-7.7,13.82-1.1,1.66-1.57,3.76-2.76,5.33-2.48,3.26-3.36,7.38-6.08,10.51-3.6,4.14-5.74,5.86-10.93,7.22-1.21.32-2.09.69-2.88,1.53-4.62,4.95-10.47,8.15-16.17,11.63-3.52,2.15-6.94,4.55-9.91,7.47-4.46,4.37-8.76,8.9-13.71,12.75-4,3.11-8.57,4.98-13.24,6.69-2.91,1.07-5.81,1.98-8.48,3.75-1.54,1.02-3.42,1.96-5.49,2.41-2.03.44-4.26,1.01-5.77,2.99-1.36,1.79-3.87.7-5.76,1.74-1.22.67-3.01.26-4.56,1.04-1.33.67-3.16-.43-4.62,1.01-.5.5-1.92.07-2.92.08-2.56.03-6.04,1.18-8.81,2.88-1.18.73-17.95,8.01-19.14,8.08-1.92.11-3.8.69-5.6.85-3.05.28-5.92,1.95-9.07,1.19-6.44,2-13.06.81-19.59.91-4.08.06-7.94,1.56-12.09,1.17-4.13-.39-8.36-.4-12.48.04-2.36.25-4.7,1.5-6.86,2.65-3.39,1.81-7.14,1.88-10.38.88-3.18-.99-6.18-.14-9.21-.66-.79-.13-1.25.41-1.61.92-1.69,2.4-4.48,3.06-6.94,3.73-2.23.61-4.62.99-6.96,1.34-3.87.57-6.92-1.67-10.27-2.96-2.17-.84-4.23-1.7-6.79-.32-2.72,1.45-5.61-.48-8.34-1.04-5.34-1.1-10.54-2.79-15.93-3.82-3.05-.59-5.68-.61-8.74-.04-3.03.56-6.42.82-9.61-.69-.97-.46-2.08-.58-2.9-1.46-1.13-1.22-2.34-2.37-3.52-3.55-1.5-1.5-2.66-3.19-5.32-1.26-1.05.76-3.38.55-5-.81-3.46-2.89-7.48-1.67-11.05-.56-2.15.67-3.72.48-5.33-.51-4.12-2.54-9.13-2.91-13.17-5.66-1.56-1.06-3.95.52-5.45-1.3-4.48.23-8.01-2.43-11.79-4.11-7.84-3.49-14.84-8.51-22.09-13.04-1.1-.69-1.78-2.06-2.88-2.75-1.96-1.22-3.7-2.64-6.1-3.4-3.99-1.26-7.37-4.03-10.78-6.54-5.1-3.75-10.17-7.56-15.4-11.12-4.29-2.92-7.36-7.05-11.14-10.48-.29-.26-.11-1.11-.4-1.29-1.46-.91.12-3.13-1.74-3.82-1.15-.43-2.38-.8-3.35-1.51-.62-.45-2.3-.79-.76-2.44,1.17-1.25-.63-2.62-.96-3.96-.26-1.06-1.74-.52-2.67-.52-3.53,0-5.96-1.34-7.54-4.71-1.11-2.38-2.07-4.82-3.17-7.19-1.49-3.23-3.44-6.25-5.26-9.32-.29-.49-.25-.9-.2-1.37,6.82-.91,7.42-.77,12.89,3.02,5.44,3.77,10.98,7.4,16.26,11.38,2.18,1.64,4.71,2.4,6.97,3.77,1.39.84,3.35.93,4.6-.06,1.05-.83,2.19-.16,3.17-.92,1.38-1.08,2.8-.92,4.42.14,2.11,1.38,4.46,2.42,6.19,4.32,3.78,4.16,8.48,6.06,14.06,5.92,1.33-.03,2.67.05,4-.02,1.21-.07,2.27.07,3.04,1.16.38.53.86.91,1.64.88,1.11-.04,2.49-.43,3.08.91.62,1.4,1.99,2.59,1.6,4.33-.45,2.03.78,3.71,1.02,5.59.16,1.29.95,2.28,2.22,2.1,4.84-.68,8.77,2.4,13.27,2.99,1.42.19,2.73,2.1,3.98.93,1.36-1.27,2.87-.4,4.13-1,3.33-1.61,6.31-.91,9.52.65,4.28,2.09,8.8,3.7,13.23,5.48,2.57,1.03,5.36,1.69,7.71,3.08,3.24,1.92,6.16.41,9.22-.08.15-.02.3-.1.42-.19.52-.41,2.9-8.11,2.73-8.88-1.25-5.69-.1-11.1,2.4-16.15,2.33-4.71,2.24-9.62,2.2-14.6,0-.8-.71-1.07-.94-1.62-1.13-2.77-2.71-5.43-2.11-8.64.11-.58.19-1.25-.37-1.84-2.01-2.1-1.58-4.77-1.59-7.33-.02-3.67.06-7.33-.04-11-.04-1.4.6-2.95-.81-4.18-.34-.3-.41-1.56-.1-1.85,1.13-1.07.94-2.36.94-3.64.01-4.67.2-9.34-.06-14-.19-3.26-3.95-5.94-8-6.05-3.83-.1-7.67-.01-11.5-.03-2.14,0-4.37-.52-6.38-.34-2.09.19-4.25.47-6.28.24-2.24-.25-4,1.04-6.09,1.16-2.04.11-4.32-1-6.12.87-.09.09-.31.09-.46.07-3.95-.69-7.68,1.12-11.59,1.03-4-.09-8.12.57-11.96-.2-3.25-.65-6.4-.71-9.62-.82-1.91-.06-3.52-1.36-5.6-1.07-1.69.24-3.58.56-5.11-.89-.26-.25-.98-.1-1.47-.03-5.1.73-10.15-.5-15.05-1.25-4.93-.76-9.76-.55-14.62-.72-4.99-.17-10,.08-15-.1-1.72-.06-2.77,1.56-4.61,1.15-1.32-.3-2.95-.56-4.11.88-.2.24-.96.02-1.46.04-3.98.16-7.84.87-11.7,1.91-1.79.48-3.55-.06-5.41-1.38-3.75-2.66-7.61-5.17-11.04-8.26-.9-.81-1.14-1.54-.12-2.43.76-.66.43-1.62.29-2.33-.15-.73-1.09-.46-1.72-.52-1.31-.12-1.76-.99-2.26-2.14-1.08-2.48-2.55-4.62-5.21-5.93-2.53-1.24-2.66-4.68-.11-5.79,2.3-1,1.49-1.58.41-2.59-1.62-1.51-3.43-2.73-5.5-3.6-.69-.29-1.24-.83-2.06-1.07-1.02-.3-1.5-2.34-2.67-1.77-1.41.69-2.58,2.04-3.6,3.3-.42.52-.13,1.58-.21,2.39-.11,1.23.91.95,1.53,1.33.97.59,1.66,1.62,2.52,2.41,1.1,1.02,1.14,1.98.57,3.45-1.29,3.33-.41,5.22,2.67,6.79.27.14.61.13.9.23,4.23,1.43,5.56,4.77,5.81,8.82.1,1.65.12,1.63,1.93,2.62,1.68.91,3.3,1.81,5.36,1.6,1.36-.14,2.53,1.82,1.6,2.45-3.99,2.69-2.71,6.7-2.89,10.35-.05,1,.02,2-.02,3-.04,1.01-.03,1.94.94,2.63.66.47,1.14,1.04,1.1,2.05-.16,3.85,1.47,7.41,2.07,11.15.3,1.9,1.56,3.68,2.55,5.41.39.68.39,1.14.02,2.08-2.22-2.22-4.6-4.06-6.22-6.43-.92-1.35-1.01-3.34-2.61-4.38-1.7-1.11-3.33-2.54-5.2-3.09-2.65-.79-4.25-2.72-6.25-4.29-2.14-1.69-2.62-4.32-4.2-6.29.05-4.63-3.53-6.61-6.72-8.56-2-1.23-3.2-2.76-4.61-4.53-2.38-3-4.49-6.24-6.03-9.56-1.4-3.01-3.54-5.82-3.92-9.39-.22-2.07-.95-4.2-3.62-4.94-2.02-.56-3.83-1.75-3.49-4.41-4.29-7.37-6.21-15.78-10.23-23.26-1.08-2-1.5-3.96.02-6.22,1.62-2.41,2.37-5.2.69-8.09-.41-.7-.47-6.37-.25-7.56.3-1.59-.59-3.13-1.41-3.85-1.68-1.47-1.62-3.11-1.59-4.91.03-2.18-.83-3.52-2.78-4.83-4.4-2.95-6.28-7.86-8.09-12.58-.42-1.09-.73-2.64-1.3-3.42-1.08-1.48-.94-2.23.31-3.23.65-.52,1-1.05.69-2.07-.97-3.19-.68-3.17.07-7.77.46-2.81.54-5.8-1.28-8.41-1.1-1.58-1.89-3.29-1.64-5.33.08-.63.1-1.26-.49-1.8-3.3-3.03-2.6-7.96-5.3-11.3-.46-.57.03-1.11.27-1.71.87-2.19,1.81-4.38,1.55-6.87-.18-1.71-.04-1.78-2.03-2.57-2.29-.9-4.69-1.56-6.94-2.55-2.24-.99-2.18-1.13-1.11-3.41.98-2.1,1.5-4.46,3.2-6.16.64-.64.83-1.28.88-2.16.26-4.54-.36-8.94-2.38-13.02-.89-1.81-.79-3.07.34-4.84,2.09-3.26,3.74-6.78,4.07-10.82.14-1.69,1.21-3.23.97-5.09-.46-3.6-1.89-7-2.1-10.66-.04-.65-1-1.22-1.49-1.86-1.59-2.06-1.75-4.5-1.38-6.89.23-1.46,1.56-2.35,2.87-3.04,1.53-.81,3.06-1.51,4.42-2.7.89-.77,2.63-.85,2.58-2.37-.05-1.39-1.62-1.96-2.5-2.9-.24-.26-.87.02-1.33-.39-1.33-1.18-1.54-2.47-.46-3.79.93-1.14,2.13-1.92,3.48-2.47,4.24-1.75,5.51-5.2,5.96-9.47.37-3.51-1.45-6.67-1.07-10.09.72-6.4,1.8-12.69,4.3-18.72,1.71-4.12,3.72-8.14,4.76-12.54.38-1.59,1.66-3.31,3.38-3.41,3.6-.22,4.97-2.86,6.12-5.39.81-1.77,1.55-3.73,1.49-5.91-.08-2.87,1.45-5.62.94-8.58-.18-1.01.65-1.46,1.23-1.98,4.14-3.73,5.86-8.81,7.76-13.79,1.01-2.66,2.15-5.17,4.21-7.28,2.17-2.22,4.76-2.99,7.69-3.24,2.71-.23,5.35-.05,8.15-.75,3.06-.78,4.72-2.11,6.02-4.73,2.2-4.43,4.73-8.7,6.9-13.15,1.01-2.08,2.5-2.67,4.56-3.54,4-1.7,6.99.16,10.22,1.48,1.58.65,2.88,1.85,4.79,1.75,1.83-.09,3.47-.01,4.81-1.78,1.76-2.33,4.81-3.06,7.28-4.06,3.77-1.53,5.63-4.25,7.41-7.44,1.64-2.93,1.27-5.89.35-8.84-.4-1.29-.8-2.68,0-3.66.78-.95.62-1.84.6-2.77-.03-1.12.61-2.59-.38-3.28-1.33-.92-1.8.92-2.73,1.4-1.81.93-3.68,1.67-5.25,3.11-.65.6-2.2.27-3.34.27-2.54,0-2.75-.33-1.89-2.85.1-.28.61-.52.59-.74-.49-5.37,2.88-9.25,5.51-13.21,3.35-5.05,7.57-9.52,11.16-14.42,1.72-2.36,3.36-4.74,4.53-7.61,2.15-5.28,4.25-10.68,8.19-15.14,3.34-3.78,7.88-5.05,12.13-7.03,2.52-1.17,5.27-1.73,7.59-3.46,1.18-.88,3-.83,4.32-1.58,4.86-2.76,9.64-5.75,14.62-8.22,3.8-1.88,7.62-4.71,12.44-3.76,3.76.74,7.3-1.65,11.08-.97,1.28.23,1.81-.76,2.38-1.47,2.37-2.91,5.38-3.81,9.05-3.62,2.05.11,4.09.19,6.26-.48,3.39-1.05,5.73-3.36,8.22-5.48,2.9-2.48,5.54-5.3,8.15-8.1,2.31-2.48,5.32-3.37,8.42-3.79,2.52-.34,4.84-1.26,7.27-1.78,2.61-.55,4.64-1.74,6.56-3.56,2.59-2.44,8.63-4.99,14.68-6.74,1.67-.48,3.23-1.17,5.09-1.08,1.51.08,2.9-1.47,4.58-.9,1.48.5,2.1-1.37,3.61-1.09,1.18.22,2.47.35,3.7-.74.66-.59,2.22-.18,3.37-.19,6.5,0,13-.03,19.5,0,4.23.02,8.31-1.7,12.59-1.01,2.06-2.14,4.92-.36,7.35-1.61,2.3-1.18,5.21-.45,7.82-.34,3.46.15,6.91.7,10.24,1.78.6.2,1.29.13,1.93.16,1.91.08,3.72.08,5.65.83,1.39.54,3.37.26,5.22-.3,2.67-.81,5.49-1.47,8.38-1.57,2.98-.11,5.72.92,8.05,2.31,4.64,2.78,9.28,1.66,13.87.68,7.28-1.56,7.48-1.28,13.28,1.04,2.72,1.09,5.22,2.57,8.08,3.46,7.01,2.18,7.12,2.88,11.45,7.34,2.46,2.54,5.17,4.61,8.63,5.75,1.32.44,2.52.6,3.73.3,3.69-.9,3.67-.94,7.78.06.62.15,1.32.2,1.95.09,1.69-.3,2.77.54,3.83,1.68,1.08,1.18,2.24,2.21,3.78,2.92,1,.46,2.36.73,2.75.34,1.96-1.95,4.59-.43,6.86-1.73,2.55-1.45,5.67.42,8.45.96,2.39.46,4.96.89,7.15,1.95,1.79.87,4.11.76,5.35,2.86,1.35,2.28,4,2.32,6.22,3.03,2.37.75,4.82,1.1,7.19,1.94,6.56,2.3,9.82,5.74,11.06,12.37.73,3.88,2.43,4.62,6.3,5.87,3.74,1.22,7.56.3,11.28,1.68,3.57,1.32,7.1,2.49,9.87,5.13,3.98,3.8,7.78,7.78,11.7,11.64,1.97,1.94,3.22,4.42,5.22,6.39,2.11,2.07,4.64,3.54,6.85,5.44,1.06.92,3,1.69,4.8,1.53,3.77-.32,6.51,2.11,8.6,4.39,3,3.27,5.28,7.29,6.41,11.78.5,1.97,2,3.28,3.52,4.98,3.75,4.18,8.66,7.06,12.38,11.25,1.31,1.47,1.81,3.47,4.1,4.37,1.62.64,1.42,3.28,1.94,5.05.23.76.07,1.66.03,2.49-.07,1.55.6,2.53,2.17,2.7,5.39.61,8.31,3.78,10.2,8.75,1.99,5.22,5.73,9.42,9.41,13.62,2.61,2.98,4.83,6.32,7.22,9.49,1.73,2.29,3.44,4.58,5.2,6.85,2.51,3.25,5.32,6.32,7.03,10.09,1.59,3.52,3.81,6.51,6.36,9.38,2.81,3.17,5.55,6.55,6.7,10.7,1.79,6.5,5.45,12.08,8.2,18.11.13.28.48.51.5.79.34,4.43,3.28,7.42,5.91,10.54.82.97,1.26,1.84,1.12,3.06-.29,2.53.32,5.05-.82,7.66-.61,1.41-1.11,3.93.82,5.51.53,4.25,2.6,8.24,2.01,12.67-.41,3.1,1.5,5.91,1.05,9.09-.4,2.86.88,5.5,1.8,8.21.89,2.63-.3,5.33-1.63,7.71-1.24,2.23-1.17,4.81-2.16,7.11-.31.73-.23,1.8.44,2.77,1.5,2.16,2.09,4.83,3.91,6.88,2.24,2.53,3.13,6,3.34,9.02.27,3.72,1.28,7.34,1.26,11.07,0,1.08-.42,2.27.69,3.24.36.31.51,1.43.24,1.82-1.67,2.41-.92,5.09-.89,7.62.04,3.59-1.65,6.94-1.11,10.59.3,2.04.05,4.08.96,6.12.82,1.83-.92,4.29,1.09,6.05-.35,2.89.77,5.9-.69,8.71-.21.4-.36.94-.28,1.37.66,3.47-1.6,6.65-1.01,10.09.17,1-.85,1.32-1.01,2.09-1.85,8.66-5.48,16.73-8.33,25.05-1.5,4.37-3.36,8.64-4.6,13.08-1.02,3.65-2.73,6.98-4.74,10.01-1.11,1.66-1.57,3.45-2.21,5.12-1.18,3.07-2.47,6.02-4.35,8.7-1.63,2.32-2.1,4.53-1.23,7.52,1.09,3.72.71,7.76.06,11.66-.95,5.69-5.17,9.83-7.09,15.06-.42,1.15-1.52,2.29-1.42,3.36.39,4.43-2.38,7.18-5.38,9.21-2.37,1.6-3.98,3.85-6.23,5.42-2.21,1.54-3.73,3.52-4.91,5.9-.63,1.27-1.88,2.1-2.7,3.36-1.44,2.24-2.98,4.42-4.45,6.65-1.54,2.35-3.79,4.25-6.76,5.22-1.81.59-3.56,1.74-4.32,3.97-.78,2.29-2.24,4.18-4.8,5-.64.21-1.48,1.17-1.49,1.78-.01,4.9-3.17,7.9-6.34,10.89-.91.86-1.66,2.73-3,2.15-1.57-.68-1.09-2.96-.62-3.94,2.27-4.63.34-8.67-1.48-12.66-.44-.97-.94-2.01-.57-2.71,2.58-4.93,4.45-10.19,7.59-14.89,2.5-3.73,5.81-6.34,9.44-8.6,1.72-1.07,2.47-2.63,2.78-4.12.48-2.23.13-4.64.12-6.97,0-1.38-1.08-.84-1.79-1.01-1.32-.33-1.68-1.11-.78-1.88,4.37-3.7,6.44-9.14,10.15-13.34.91-1.03,1.76-2.58,1.45-4.38-.47-2.8.89-4.95,2.87-6.79,2.61-2.42,4.77-5.14,6.43-8.33.86-1.65.76-2.82.06-4.48-1.14-2.69-3.31-4.97-3.39-8.09-2.29-1.69-.16-3.13.42-4.5.42-1,1.59-1.67,2.39-2.51,1.49-1.56,2.19-3.36,2.26-5.59.06-1.86-1-4.01.93-5.59-.36-2.22.78-4.61-.71-6.7-.45-.63-.46-1.2.13-1.71.92-.79.84-1.92.42-2.69-2.07-3.71-.41-6.41,2.18-8.91,2.2-2.13,4.31-4.25,5.33-7.3,1.75-5.22,4.4-10.22,3.64-15.98-.4-2.98,1.69-5.61,1.02-8.59,1.61-1.44.93-3.36.97-5.09.04-1.62.18-3.11.97-4.62.64-1.22-.44-2.8.71-4.23.59-.73.34-2.19.34-3.32.02-6.5.02-13,0-19.5,0-2.89.09-5.58,1.73-8.31,1.54-2.57,2.04-6,1.17-8.91-1.47-4.88-.31-9.79-.94-14.61-.96-7.34-1.48-14.8-4-21.83-1.45-4.05-3.2-8.02-5.18-11.84-1.47-2.84-2.16-5.76-2.93-8.82-1.1-4.41-1.02-9.06-2.84-13.3.71-2.98-.62-5.77-1.14-8.56-.71-3.79-.39-7.79-2.72-11.38-1.19-1.84-1.96-3.7-4.21-4.3-2.7-.72-1.45-3.66-2.94-5.04.25-5.09-2.56-9.28-4.33-13.71-3.9-9.75-10.48-18-15.91-26.89-1.13-1.85-2.65-3.51-3.87-5.38-1.72-2.63-2.31-5.44-2.85-8.34-.51-2.76-1.58-5.11-3.77-6.97-.74-.63-1.49-.49-2.22-.74-1.2-.41-2.03,1.32-2.9.61-1.79-1.48-3.49-3.13-4.92-4.95-.64-.81-.59-2.33.04-3.26.62-.92,1.06-1.46.17-2.49-.79-.91-.72-2.77-2.26-2.79-2.22-.03-4.09-2.27-6.8-.24-1.7,1.27-4.44-.2-5.94-1.99-1.38-1.65-2.92-3.58-3.29-5.58-.56-3.05-2.51-4.19-4.8-5.5-1.51-.86-3.59-1.2-3.53-3.99.03-1.18-1.88-2.63-3.19-3.56-3.05-2.19-6.12-4.47-9.48-6.07-1.8-.86-2.37-3.13-4.67-3.27-.83-.05-.73-1.73-.4-2.16,1.56-2.06-.11-2.4-1.39-2.65-1.29-.24-2.66.03-3.99-.08-1.4-.12-2.89.52-4.19-.83-.46-.47-1.73-.32-2.67.44-1.04.83-2.53.79-3.64.05-3.78-2.5-8.04-3.96-12.19-5.58-3.36-1.31-4.8-2.63-4.93-6.1-.06-1.55-.7-2.28-1.96-2.98-3.57-1.98-7.52-2.83-11.37-3.93-3.56-1.01-6.81-2.78-9.27-5.27-5.88-5.94-13.2-10.17-18.79-16.45-1.94-2.18-4.79-3.61-8.07-3.33-4.1.35-7.75-.81-11.31-2.9-1.8-1.05-3.86-1.85-5.98-2.46-2.72-.78-5.21-2.44-6.98-4.83-1.08-1.46-2.44-1.91-4.26-1.85-2.28.07-4.89.82-6.79-.39-1.93-1.23-4.41.63-5.91-1.54-.11-.16-.64-.06-.97-.01-6.94.95-12.81-2.88-19.2-4.35-.28-.06-.53-.66-.72-.62-4.48.89-8.51-1.26-12.65-2.18-5.24-1.15-10.81-.44-15.79-2.86-3.61.54-6.98-1.74-10.58-.96-1.93.42-3.18-1.19-5.1-1.15-4.36.09-8.34,2.09-12.67,2.11-1.63,1.63-3.85.43-5.54,1.1-1.89.75-3.71,1.04-5.62.87-3.53-.3-7.17.88-10.63-.9-.67-.34-1.95-.49-2.79.33-.36.35-.85.89-1.23.56-2.22-1.92-3.55.13-5.34.9-4.96,2.16-9.98,4.14-15.36,5.21-3.45.69-6.83,2-10.06,3.42-1.77.78-3.63.48-5.46,1.33-2.25,1.05-5.37-.8-7.64.79-2.05,1.44-4.6.82-6.6,2.29-.76.56-2.27.04-3.43.1-2.93.14-5.67.79-7.68,3.19-.21.25-.49.46-.7.71-2.69,3.29-6.11,4.51-10.35,5.3-6.05,1.14-12.32,1.95-17.97,4.79-2.98-.21-4.66,1.87-6.46,3.7-1.94,1.97-3.72,4.52-6.34,5.16-3.5.84-6.63,2.57-10.1,3.49-3.96,1.05-7.62,3.28-11.33,5.17-1.89.96-3.73,1.72-5.89,1.5-1.16-.12-2.18-.19-2.35,1.58-.08.82-1.77.66-2.18.34-2.09-1.61-3.85-1.44-5.54.5-4.48.44-5.66,5.12-9,7.04-.69.39-1.31,1.03-1.08,2.04.07.32.14.86-.01.97-4.17,2.77-6.21,8.41-12.37,8.69-1.9.09-4.28,1.75-5.44,3.39-1.66,2.35-3.16,4.92-4.22,7.71-2.18,5.74-4.46,11.46-9.33,15.65-1.45,1.24-2.24,2.86-3.03,4.73-1.63,3.83-4.2,7.28-6.56,10.78-2.51,3.73-5.01,7.52-8.47,10.49-2.8,2.41-2.51,5.97-3.53,9.04-.24.73.04,1.53-.68,2.24-3.45,3.4-5.85,7.65-9.1,11.27-2.91,3.23-6.5,5.68-9.27,9.01-1.53,1.83-3.19,3.4-4.09,5.82-1.33,3.6-3.32,6.96-5.09,10.38-1.6,3.09-3.99,5.65-5.92,8.52-1.8,2.67-3.07,5.4-3.88,8.42-.6,2.23-1.59,4.46-3.71,5.29-3.55,1.39-3.91,4.45-4.18,7.32-.21,2.25-.7,4.39-1.07,6.58-.35,2.03.48,4.25-1.05,6.08.74,5.15-2.97,9.19-3.59,14.05-.16,1.25-.33,2.54-.36,3.79-.03,1.19-1.17,1.76-1.14,3.09.06,2.58-.85,4.97-2.96,6.74-1.53,1.29-1.37,2.97-.43,4.37.77,1.14.62,2.31.42,3.31-1.36,6.58-2.55,13.23-4.51,19.63-.81,2.66.56,4.27,1.22,6.13,1.57,4.42,1.57,4.84.44,10.53-.82,4.15-1.62,8.27-3.06,12.25-.16.44-.05.99-.02,1.49.56,9.06-1.42,18.01-1.13,27.09.15,4.75,1.23,9.2,3.33,13.15,3.88,7.31,6.19,15.15,8.57,22.95.79,2.59.9,5.75-.73,8.54-.92,1.58-1.38,3.42-2.05,5.14,1.63,1.58.26,3.97,1.27,5.45,1.11,1.63.65,3.17.68,4.73.02,1.5,1.11,2.49,1.18,4.08.29,6.46,1.75,12.75,3.64,18.94.42,1.37.39,2.96.19,4.4-.44,3.09.9,5.67,2.41,8.01,2.07,3.21,4.63,6.11,7.01,9.11.69.87,1.51,1.52,1.83,2.76.46,1.76,2.56.98,3.68,1.81,1.53,1.13,2.55.55,3.81-.55,2.66-2.33,5.19-.21,7.4.87,3.24,1.59,3.57,1.96,6.18-.61,1.28-1.27,3-1.65,3.98-1,1.9,1.26,3.79.83,5.67.85,9.67.07,19.34.22,29-.07,3.33-.1,6.28,1.47,9.59,1.17,2.87-.26,5.59-1.09,8.4-1.5,5.16-.75,10.06-3.64,15.42-2.49,4.37.94,8.89.15,13.06,1.1,6.09,1.38,12.11.22,18.2.97,1.39-3.75-.61-6.54-2.33-9.31-.65-1.04-1.57-1.92-3.2-1.94-1.1-.01-2.28-.92-3.26-1.65-1.19-.89-2.26-1.98-1.8-3.74.04-.16-.01-.33,0-.5.34-2.73-.58-5.51.66-8.23,1.15-2.52,3.1-4.42,4.75-6.49,1.51-1.9,2.61-4,3.49-6.1,1.3-3.12,2.24-6.39,3.8-9.43.77-1.5,1.29-3.14,1.78-4.76.53-1.77-1-3.04-1.63-4.38-.67-1.42-.82-1.95.19-3.26,3.89-5.02,6.31-10.67,7.09-17.08.2-1.65.33-3.87,2.75-4.85,1.02-.41,1.95-2.26,2.03-3.51.29-4.16,2.52-7.68,3.4-11.64,1.33-5.97,4.25-11.59,3.69-17.95-.07-.78.34-1.68-.47-2.3-.53-.41-.69-1.32-1.82-.35-2.31,1.98-2.57,1.97-4.72-.3-1.21-1.26-2.46-1.34-3.96-1.41-1.79-.09-2.56.74-3.1,2.36-.28.85-1.31,1.44-1.94,2.19-.9,1.07-1.9,1.96-3.38,1.45-1.41-.48-2.68-2.81-2.62-4.34.02-.67.35-1.19.56-1.77.54-1.51,1.45-3.46.92-4.67-.92-2.11.45-4.59-1.44-6.42-1.66-1.6-3.14-3.37-4.95-5.34,2.31-2.31,4.69-4.72,7.11-7.09.8-.78.96-1.31.31-2.46-1.7-3.02-2.9-6.3-5.69-8.66-1.44-1.22-1.49-2.97-.8-5.31.04-.15-.04-.35.01-.5.48-1.47.57-3.64,1.57-4.22,1.4-.81,2.88-1.88,4.57-2.16,1.78-.3,3.18-1.13,4.61-2.21,3.14-2.37,6.28-4.85,9.76-6.61,1.66-.84,2.34-1.92,3.04-3.27.61-1.18-.53-3.37-1.8-3.95-6.22-2.82-12.2-5.88-15.11-12.74-.81-1.92-.66-3.98-1.58-5.85-.69-1.4-.98-3.03-2.25-4.05-2.4-1.93-2.99-4.84-3.66-7.47-.5-1.96-1.01-3.94-1.71-5.82-.3-.81-.54-1.58-.4-2.31.55-2.83-.73-5.43-1.24-8.05-.3-1.51-.77-3.05-.78-4.63-.03-6.33-.14-12.67.08-19,.05-1.5-.67-2.72-.5-4.3.42-4.14,3.65-6.85,4.77-10.57.3-1.01,1.52-1.86,1.56-2.82.1-2.77,2.62-3.25,4-4.79.33-.37.95-.4,1.22-.63,2.24-1.92,4.08-4.8,6.64-5.72,2.56-.91,5.4-1.39,7.97-2.51,2.8-1.23,5.29-2.91,7.34-5.26,1.52-1.75,3.28-3.31,4.92-4.95-1-1.62-3.19-1.6-4.2-3.2-2.58-4.08-6.02-7.64-7.42-12.43-.09-.29-.39-.57-.36-.84.52-5.75-1.77-11.34-.99-17.08.27-2,.5-4.2,1.51-5.85,1.47-2.41,1.47-4.85,1.46-7.41-.01-2.67-.17-5.35.04-8,.28-3.57-.96-6.6-3.13-9.2-1.66-1.99-.63-4.07-.78-6.1,0-.11.5-.32.8-.39,1.97-.47,3.95-.92,5.93-1.37.97-2.72,4-.76,5.54-2.42.4-.43,1.56-.23,2.37-.21,4.03.1,7.84-1.23,11.72-1.72,4.29-.54,8.64-2.11,13.02-1.22,3.32.67,7.1,1.18,9.62,3.12,3.21,2.47,7.33,2.7,10.33,5.55,2.04,1.94,3.38,3.97,3.47,6.52.2,6.49.38,13.02-.04,19.49-.28,4.37-2.66,8.18-4.99,11.9-3.16,5.06-5.68,10.4-5.92,16.55-.05,1.33.46,2.41.91,3.62.65,1.73,1.6,2.25,3.27,2.19,2-.07,4-.02,6-.02,4.34,0,4.41-.12,8.14,2.06,1.59.93,2.81,1.6,4.2-.06,6.07-1.3,11.69-4.18,17.69-5.52,5.27-1.18,9.84-3.66,14.62-5.82,3.69-1.67,7.7-2.29,11.48-3.66,3.51-1.27,7.25-1.66,10.8-2.89,1.32-.46,2.2-.8,2.95-2.02,1.37-2.2,2.48-4.54,5.09-5.9,1.92-1,2.68-3.45,3.86-5.32,1.55-2.45,3.67-4.28,6.66-3.8,3,.48,4.89-2.23,7.69-2.14.76.02,1.39-1.69,2.43-.61.97,1.01,2.55,1.67,2.25,3.57-.15.98-.25,2.06.03,2.98.29.95.19,2.95,2.4,1.31,1.32-.98,3.56.59,5.05-1.1.33-.38,3.52,1.21,3.45,1.73-.26,1.86,1.14,3.22,1.15,5.09.03,6-1.19,11.81-2.04,17.68-.14.95-.6,1.46-1.17,2.03-1.17,1.18-2.28,2.44-3.55,3.52-1.65,1.4-1.86,3.09-.88,4.77,2.26,3.89,3.56,8.2,5.53,12.21.64,1.3,1.45,2.15,3,1.89,4.28-.72,8.33,1.41,12.59,1.03,1.42-.13,2.71.77,4.04,1.12,4.64,1.22,9.25,2.58,13.85,3.96,1.59.48,3.16,1.54,3.96,3.68,2.23,5.93,6.61,10.47,10.89,14.97,3.35,3.52,6.24,7.38,9.11,11.26.88,1.19,1.49,2.64,1.69,4.32.17,1.41-2.36,2.17-.52,3.9,1.09,1.02.3,2.84.39,4.29.09,1.49.2,3.03-.03,4.49-.27,1.73,1.57,2.78,1.12,4.61-.33,1.34.58,2.82.74,4.09.48,3.64.61,7.46-1.02,10.98-.93,2-1.85,3.98-1.8,6.26.04,2.08-1.43,3.85-1.06,6.1.45,2.74-.76,5.49-2.21,7.51-2.4,3.35-3.97,7.04-5.68,10.69-1.21,2.56-2.89,4.46-5.43,5.67-2.6,1.24-4.82,3.05-6.94,4.96-1.3,1.17-2.26,2.7-3.36,4.01-.81.96-2.72,1.26-3.97,2.26-2.27,1.81-4.61,3.54-7.81,2.87-3.02,1.83-6.98.11-9.9,2.74-1.14,1.02-3.1.41-4.67.64-4.54.65-8.67,3.04-13.46,2.76-1.85-.11-3.13-1.54-5.09-1.22-1.66.27-3.62.66-5.07-.91-4.76.7-8.95-2.22-13.67-2.06-2.86.1-5.01-2.13-6.84-3.81-5.09-4.67-10.99-8.17-16.41-12.35-4.83-3.72-9.37-7.83-10.72-14.44-.64-3.1-2.23-6.09-3.84-8.88-2.26-3.92-3.63-8.16-5.31-12.31-.6-1.49-.52-2.66-.16-4.1.94-3.79,2.58-7.47,2.51-11.43-.02-1.34,1.6-1.8,1.09-3.08-.72-1.77,1.31-2.86,1.06-4.6-.24-1.63,0-3.33-.06-4.99-.07-2.29.85-4.27,1.81-6.26.6-1.25,1.15-2.53,1.78-3.76.63-1.23.87-2.72.06-3.63-.69-.77-1.89-.07-3.01.42-3.52,1.54-3.63,1.37-3.61,4.91.02,3.28-.37,6.39-2.94,8.79.34,1.91-2.46,2.21-2.12,4.12-1.98,1.92-3.59,4.5-7.08,3.47-2.75-.81-4.64,1.62-7.13,2.14-4.92,1.03-5.72,2.51-5.71,7.68,0,2.95-1.05,5.6-2.47,7.97-1.71,2.86-1.76,5.4-.67,8.49.81,2.31,1.89,4.58,2.28,7.1.14.88.67,2.44,1.9,3.18,3.8,2.25,4.65,6.42,5.78,10.08,1.05,3.39,2.39,6.72,3.23,10.19.31,1.27.79,2.75,1.97,3.67,4.56,3.54,6.7,8.88,9.88,13.43,1.56,2.23,3.9,3.76,5.02,6.4,1.41,3.34,3.5,6.31,5.9,9.08,1.56,1.8,1.14,4.44,2.01,6.64.72,1.81,1.47,3.8,1.24,6.04-.2,1.98,1.41,3.89.9,6.08-.47,1.99.63,3.73.99,5.58.38,1.93-.04,3.8.78,5.89.96,2.46.26,5.58.21,8.41-.03,1.53-.03,3.03,1.5,3.88,2.8,1.56,3.08,4.68,3.32,7.07.39,3.85,1.87,7.3,2.81,10.92.62,2.41.53,4.62-.7,6.34-2.33,3.27-4.12,7.24-9.06,7.84-1.53.18-3.16,1.75-2.86,4,.06.49,0,1,.01,1.5.17,5.17-.87,10.14-1.82,15.21-.69,3.69-.66,7.71.75,11.57,1.75,4.79,3.21,9.66,5.92,14.07.68,1.11,1.17,1.87,2.35,2.64,2.82,1.83,5.23,4.3,7.87,6.43.92.74,1.16,1.67.89,2.62-.8,2.82-.93,5.89-3.25,8.84ZM259.78,154.71c.15-.44,0-.58-.48-.45-.42.11-.88.12-1.28.28-.31.12-.24.48.17.63.6.22,1.18.18,2.16-1.82-.19.16-.47.28-.57.48-.2.42,0,.63.42.42.2-.1.33-.37.45-.58.02-.04-.19-.2-.88,1.04ZM260.33,269.28c.44.15.58,0,.45-.48-.11-.42-.12-.88-.28-1.28-.12-.31-.48-.24-.63.17-.22.6-.18,1.18,1.29,1.4-.95.98.28,2.53-.98,3.3-.72.44-.08.81.26.84.41.03,1.19-.22,1.2-.39.07-1.2.53-2.48-1.31-3.56ZM245.77,281.32c-.67-.27-.92.33-1.19.67-3.32,4.28-6.49,8.68-9.94,12.85-2.8,3.39-6.12,6.31-8.91,9.77-3.8,4.7-8.47,8.67-12.31,13.41-2.4,2.96-5.37,5.46-8.07,8.18-1.87,1.88-4.51,3.49-5.37,5.76-.94,2.48-.21,5.58-.21,8.41,0,.17.03.34,0,.5-.25,1.26.94,1.62,1.52,2.43,1.48-1.71,2.86-3.52,4.32-5.17,5.22-5.94,10.25-12.05,15.03-18.33,2.47-3.25,4.82-6.65,7.27-9.92,2.57-3.43,4.6-7.28,7.39-10.42,4.26-4.8,6.48-10.81,10.43-15.74.41-.51.05-1.62.64-3.37-.19.16-.47.28-.57.48-.2.42,0,.63.42.42.2-.1.33-.37.45-.58.02-.04-.19-.2-.89.65ZM263.77,396.18c0,1.66,0,3.33,0,4.99,0,.8.19,1.61-.62,2.25-2.84,2.26-4.22,5.8-7.06,8.06-.78.62-1.77,1.28-2.06,2.13-.86,2.5-3.15,3.68-4.65,5.57-.66.82-1.41,1.19-2.55,1.13-2.49-.12-5.01.14-7.48-.09-2.31-.22-4.44,2.52-6.78.33-.29-.27-.43-.24-.72.14-.97,1.28-2.32,2.17-3.13,3.69-1.99,3.75-4.34,7.28-7.05,10.59-2.53,3.08-4.24,6.59-3.95,10.86.11,1.64.87,3.12.95,4.58.3,5.59,2.84,10.53,4.18,15.8.44,1.71,1.67,3.09,3.85,3.08,3.72-.03,7.41.44,11.09.75,3.86.32,7.61,1.85,11.55,1.24.32-.05.78-.12.96.05,2.66,2.41,4.82.02,6.78-1.04,2.05-1.11,4.35-1.81,6.17-3.16,1.6-1.18,3.47-1.31,4.6-.73,2.72,1.39,5.45.59,8.15.85,1.14.11,2.41-.2,3.41.21,4.49,1.83,9.12.27,13.65.8,2.89-1.62,5.75-1.46,8.68-.05.46.22,1.44.4,1.8-.28.28-.52.43-1.38.19-1.87-1.41-2.96-3-5.84-5.09-8.37-1.66-2.01-3.65-3.62-6.55-3.44-1.28.08-2.15-1.04-3.57-1.14-1.74-.12-3.19-3.72-2.57-5.49.61-1.74,1.16-3.57,2.14-5.09,2.45-3.83,2.84-8.25,3.59-12.48,1.04-5.85-1.04-11.67-.93-17.55.02-1.3-.84-2.1-2.13-2.2-1.16-.1-2.33-.07-3.49,0-1.68.09-3.18.03-4.42-1.48-.63-.77-1.81-1.21-2.83-1.5-2.64-.75-4.23-2.82-6.14-4.52-.86-.77-.99-1.59-.98-2.62.03-2.49.81-5.47-.28-7.33-1.11-1.89-.2-3.23.39-3.72,2.22-1.83,1.8-3.91.84-5.83-1.08-2.16-.95-4.56-1.91-6.71-.63-1.4-.96-2.93-1.6-4.33-.23-.51-.74-1.09-1.56-1-.96.1-.72.82-.9,1.42-1.19,3.99-2,8.1-3.73,11.94-.56,1.24-.78,2.93.65,4.01,1.08.82,1.18,1.85,1.12,3.05-.07,1.5-.02,3-.02,4.49ZM217.84,209.23c-.52-3.78-.58-8.28-4.23-11.66-2.88-2.67-5.48-3.26-8.5-1.01-1.41,1.06-2.96,1.77-4.38,2.74-2.94,2.02-5.47,4.31-6.04,8.23-.32,2.19-.91,4.32-1.04,6.59-.07,1.31-1.49,2.76-.82,4.05,1.24,2.37.89,5.14,2.6,7.46,1.84,2.49,1.66,5.59.86,8.71-.74,2.89-2.26,5.99-1.38,8.82.95,3.06.69,6.24,1.8,9.23,1.28,3.48,1.73,7.34,3.45,10.55,1.46,2.71,3.03,5.46,4.83,8,2,2.83,5.46,4.06,7.72,6.7,1.44,1.68,3.48,1.74,5.36.59.84-.51,1.51-1.1,2.61-.99,2.62.26,4.92-.97,7.15-2.02,14.23-6.72,21.59-11.46,35.41-20.77,6.55-4.41,12.61-9.3,18.43-14.58.69-.63,1.15-1.86,2.32-1.58,2.06.49,3.6-1.07,5.58-1.22,1.57-.12,3.36-.58,4.97-1.12,6.25-2.1,8.58-7.33,10.22-13.07.4-1.39-.69-2.41-.92-3.6-.24-1.27-1.15-.88-1.76-1.19-1.37-.7-9.9-2.34-10.68-1.77-.8.58-1.72.76-2.48,1.29-5.21,3.67-9.87,7.98-13.02,13.53-.94,1.66-2.43,2.62-3.5,2.77-2.21.31-4.2,1.52-6.49,1.38-1.24-.07-2.7-.52-3.6.92-1.88-.6-3.37.84-5.03,1.22-3.44.79-6.95,1.46-10.32,2.74-4.61,1.74-9.4,2.82-13.97,4.91-5.96,2.73-8.08,3.66-10.66,11-.27.77-.51,1.46-.57,2.26-.1,1.34-1.15.82-1.87.91-.84.1-1.07-.37-1.14-1.16-.23-2.78.89-5.3,1.64-7.83.39-1.33.49-2.63.29-3.82-.28-1.65,1.8-2.64,1.04-4.08-1.82-3.44-.56-7.08-.97-10.6-.09-.79.08-1.53-.28-2.38-1.22-2.83-1.87-5.92-3.03-8.74-.82-2.01-1.11-4.16-.48-5.64.76-1.79.63-3.44.88-5.79ZM272.38,359.5c1.18-1.96,2.23-3.83,3.42-5.61.51-.76,1.12-1.94,2.23-1.56,1.53.52,1.01,2.35.64,2.95-1.24,2.02-1.62,4.34-2.74,6.39-1.73,3.16-3.39,6.31-3.23,10.19.18,4.36,2.22,8.11,3.37,12.13.42,1.48,2.12,1.78,4.12,1.39.8-.16,1.67-.23,2.45-.07,1.72.34,3.04-.78,4.58-1.07.57-.11.77-1.1,1.59-.96,3.45.57,6.62-1.64,10.09-1.02.65.12,1.53.29,1.96-.03,2.07-1.52,4.56-.32,6.58-1.07,2.39-.89,4.72-.84,7.13-.89.33,0,.67.03,1,0,1.3-.14,2.08-.87,2.18-2.17.08-.99,0-2,.02-3,.22-10.04-1.48-20.01-1.15-30.08.12-3.61-.84-7.4-2.76-10.8-.63-1.12-1.59-1.89-2.2-3.06-2.62-5.03-6-9.69-9.69-13.93-2.99-3.44-5.66-7.2-9.03-10.34-.89-.83-1.6-1.98-2.32-2.97-2.05-2.78-4.68-5.18-7.35-7.43-.51-.43-1.48-1.23-2.45-1.19-3.54.16-7.11-.48-10.6.93-3.3,1.33-5.49,5.24-5.56,8.88-.08,4.44,1.83,8.64,1.12,13.09-.1.65-.27,1.5.03,1.97,1.34,2.09,1.08,4.39.9,6.61-.18,2.33.78,4.4,1,6.59.24,2.48.02,4.99.08,7.49.02.78-.37,1.66.39,2.33.37.33.69.94,1.07.98.31.03.72-.57,1.04-.93.2-.23.4-.51.47-.8,1.04-4.7,2.89-9.12,4.86-13.48.4-.88-.33-2,.69-2.72.51-.36.79-1.06,1.61-.96.96.11.77.8.88,1.44.43,2.65-.76,4.99-1.39,7.43-.5,1.95-1.1,3.88-1.61,5.83-.13.48-.03,1.09.48,1.26.41.14.93.19,1.35-.27.9-.98,1.87-1.9,2.81-2.84,1.18-1.18,2.37-2.34,3.53-3.54.42-.43.93-.38,1.35-.22.54.21.38.81.47,1.28.3,1.48-.93,2.03-1.7,2.79-5.23,5.2-8.78,11.5-12,18.03-.45.92-.55,1.82.29,3.03ZM223.1,348.6c1,.75,1.48,1.42,2.03,1.47,1.9.18,3.82.61,5.71-.31,1.21-.59,2.67.15,2.93,1.26.39,1.69-1.34.96-1.88,1.62-1.03,1.26-2.48.39-3.73.63-1.23.23-2.65-.56-3.69.78-.42.55-1.78-.15-1.71,1.21.04.81.03,1.5.66,2.25,1.61,1.92,4.01,2.48,6.01,3.68,1.15.69,2.78,1.19,2.2,2.51-.5,1.12-2.61,1.01-3.48.29-1.27-1.04-2.5-.54-3.74-.71-.67-.09-1.21.07-1.77.58-1.69,1.53-3.28,3.21-3.83,5.41-1.35,5.41-3.66,10.49-5.34,15.78-.62,1.98-.18,2.99,1.65,3.21,1.12.14,2.33-.04,3.38.3,3.03.98,6.02,1.95,9.28,1.75.93-.06,1.9-.32,2.86.3,2.53,1.63,5.41,2.03,8.29,1.6,1.93-.29,3.67.6,5,1.25,2.3,1.13,4.5.87,6.66.69,1.41-.12,3.35-.76,3.96-2.26,1.28-3.13,2.68-6.37,3.04-9.68.24-2.25,1.32-4.27,1.21-6.56-.12-2.49-.22-5.01.03-7.49.2-1.99.75-3.99,1.47-5.87,1.74-4.57,3.63-8.97,1.59-14.09-.74-1.87-.39-4.33-.05-6.43.39-2.4-1.35-4.25-1.12-6.6.75-7.55-1.67-14.99-.96-22.56.02-.17.05-.35,0-.49-.12-.28-.25-.72-.46-.77-.44-.12-.96-.24-1.35.24-.5.61-1,1.09-1.23,2-2.32,9.19-7.86,17.04-10.97,25.92-.38,1.08-1.33.94-2.23.07-.69-.67-.83-1.37-.74-2.21.48-4.32-.19-8.06-4.12-10.84-1.68-1.19-1.28-3.74.42-5.01.67-.51,2.11-.16,1.69-1.73,2.62-2.2,3.91-5.42,6.05-7.96,1.61-1.9,1.66-4.33,2.87-6.34.61-1-.13-2.2-1.16-2.95-.62-.45-1.53-.47-1.65.18-.58,3.05-3.29,4.87-4.2,7.77-.73,2.32-1.95,4.56-3.31,6.6-3.65,5.51-7.54,10.86-11.24,16.34-1.65,2.45-2.94,5.15-4.68,7.53-.69.95-.97,1.95-.62,2.69.61,1.31,2.07.39,3.13.61.13.03.31-.06.43-.14,2.39-1.68,5.1-.5,7.65-.82.21-.03.63.32.68.56.09.46.1,1.33-.36,1.26-1.31-.2-1.75,1.34-3.06,1.2-2.79-.29-4.94,1.72-8.22,2.28ZM365.98,137.56c-2.33-.02-7.08,1.81-8.97,2.91-2.69,1.57-3.89,4.51-6.25,6.36-1.12.88-1.86,1.92-2.13,3.63-.37,2.44-1.86,4.2-5.05,3.91-1.96-.18-3.91,1.4-6.07.89-1.53,2.06-3.92.76-5.88,1.45-4.52,1.59-8.77,3.82-13.28,5.34-2.7.91-5.2,1.92-7.54,3.57-1.36.95-2.91,1.58-4.79,1.74-3.9.34-8.47,2.12-10.09,6.42-.76,2.02-1.78,1.73-2.8,1.22-1.24-.62-2.39-1.46-3.78-1.74-3.45-.68-6.72.69-10.06,1.11-2.99.38-5.47,4.28-5.5,7.51-.04,3.5.1,7-.04,10.49-.15,4,1.72,6.96,4.32,9.73,1.36,1.44,3.06,1.67,4.39.84,2.53-1.57,5.31-2.53,8.01-3.6,2.77-1.1,5.44-2.51,7.71-4.21,3.55-2.66,7.86-4.18,10.97-7.54.7-.76,2.31-1.33,3.87-1.46,2.09-.17,4.47-.75,6.1-1.97,3.42-2.57,7.3-4.09,11.04-5.98.81-.41,1.79-.68,2.45-1.3,4.95-4.6,11.3-7.38,15.84-12.61,2.03-2.34,5.46-4.07,8.62-2.88,3.93,1.48,7.78.45,11.63.83,1.1.11,2.1-.99,1.99-1.75-.54-3.81,1.54-7.32,1.09-11.09-.04-.33.12-.74-.03-.99-.73-1.19-.86-2.72-2.01-3.66-1.28-1.04-2.2-.12-3.45.35-2.31.86-4.21-.27-5.34-2.5,1.62-1.62,3.15-3.15,5.03-5.03ZM253.77,122.93c.94-2.28-1.29-4.6-.95-7.16.27-2.04-.91-3.2-2.22-4.05-1.25-.82-2.6-1.6-4.38-1.51-4.32.2-8.66.11-12.99.04-1.23-.02-2.27-.74-3.72-.09-1.25.56-2.96-.01-4.44.14-2.57.27-4.92,2.41-5.27,4.72-.14.96-.6,1.85-.77,2.66-.5,2.37-.82,5.01.08,7.28.71,1.8,3.19,1.78,4.73,2.85,1.31.92,2.86.32,4.3.45.63.06,1.47-.16,1.6.67.43,2.65,2,5.34.74,7.95-.55,1.14-.83,2.16-.66,3.2.4,2.53-.87,4.66-1.4,6.95-.12.53-.66,1-.67,1.72-.03,1.2.57,1.69,1.81,1.54,1.62-.2,1.93-1.31,2.41-2.6.28-.74,1.16-1.95,2.29-1.34.75.4,1.67,1.06,1.54,2.32-.11,1.13-.37,2.08-.85,3.16-.47,1.05-2.28,2.46-.29,4.22.69.61.44,2.8-1.03,3.91-1.05.8-1.92,1.85-2.84,2.8-.69.71-1.67,1.34-1.93,2.19-.36,1.21.8,2.27,1.09,3.52.62,2.67,2.95,3.07,5.66,1.87.8-.35,1.39-.8,1.93-1.35,1.05-1.08,2.27-1.45,3.74-1.87,5.85-1.68,7.02-2.99,10.11-8.94,1.71-3.29,2.14-7.1,4.36-10.2.97-1.36,2.18-2.76,2.03-4.64-.16-2.06-2.38-1.86-3.44-2.97-.76-.8-1.33-2.19-2.6-2.04-1.01.12-2.05.76-2.87,1.42-.76.61-1.7.7-2.49,1.31-2.96,2.28-5.53,2.61-8.63,1.16-1.76-.82-3.47-2.16-3.85-4.08-.28-1.4-1.34-3.18-.94-3.97.73-1.43.55-2.8.91-4.15.17-.62.38-1.92,2.29-1.14,2.04.84,4.71,1.03,6.99-.47,2.48-1.62,4.96-1.5,7.48.14,1.36.89,2.98.18,3.12-1.23.13-1.32.03-2.66.03-4.41ZM290.98,209.56c.69,2.53,2.67,1.69,3.91,2.16,3.27,1.23,7.05,2.68,10.28,1.39,4.61-1.85,9.49-2.69,14.1-4.54,3.1-1.24,5.67-2.25,7.92-4.99,3.57-4.36,7.89-8.11,11.9-12.1.56-.55.98-1.31,2-1.22,2.78.27,4.98-1.76,7.66-2.02,1.23-.12,2.01-.96,2.04-2.31.07-3.22-.15-6.42.91-9.6.62-1.88-.62-2.76-2.53-1.85-1.81.85-3.7,1.52-5.37,2.75-2.49,1.83-5.48,2.81-8.14,4.49-5.4,3.41-10.02,7.79-15.22,11.43-.65.45-1.09,1.01-2.02,1.19-5.24,1.01-5.25,1.04-8.62,4.46-1.83,1.86-3.66,3.64-6.54,3.52-1.06,2.02-3.63-.05-4.76,1.76-3.43.69-5.32,3.47-7.5,5.48ZM323.54,265.42c.73-6.02-1.6-10.41-.76-15.01.18-1-.96-1.19-1.05-2.08-.17-1.61-1.12-1.27-1.98-.51-1.39,1.23-2,2.81-1.99,4.67.03,3.66.17,7.34-.05,10.99-.15,2.49.51,4.78,1.14,7.06.28,1.02.75,1.98.99,3.09.64,3.02,1.84,5.88,3.37,8.59,5.8,3.54,9.87,9.15,15.6,12.91,3.68,2.41,6.77,5.86,10.56,8.36,1.22.81,1.88,1.04,2.82-.12.7-.86,1.38-1.62,1.83-2.74,1.2-2.99.72-4.2-2.48-4.31-2.77-.09-5.52-.85-7.46-2.43-3.14-2.57-6.46-5.11-9.09-8.13-2.38-2.73-5.31-5.23-6.79-8.62-1.85-4.24-5.54-7.91-4.68-11.71ZM376.03,309.27c1.56,0,3.16.48,4.17-.09,3.22-1.8,7.02-1.63,10.17-3.2,1.92-.95,4.18-.17,5.8-1.71,4.46.17,7.58-2.44,11.07-4.74,3.11-2.06,5.33-5.02,8.56-6.96,3.93-2.37,5.76-6.71,7.84-10.67.49-.94-.22-1.48-.79-2.06-.69-.71-1.3-.78-2.08-.08-2.42,2.17-3.95,4.96-5.68,7.65-2.69,4.19-4.17,7.13-10.58,9.03-1.76.52-3.89.07-5.03.97-2.14,1.7-4.99-.26-6.77,1.87-2.45-.26-4.74.48-7.09.95-2.45.5-4.85,1.04-7.24,1.85-2.91.98-5.94,2.14-8.85-.44-1.1-.97-2.66-.56-3.31.77-.71,1.44-2.37,2.83-1.06,4.72.34.49,1.07,1.17,1.49,1.09,3.33-.66,6.3,1.71,9.37,1.06ZM202.32,321.3c2.37-2.85,5.23-4.99,7.22-8.11,1.52-2.38,4.1-4.03,6.46-5.8,4.66-3.5,6.77-9.05,9.68-13.9.85-1.42,2.23-2.97,2.04-5.16-1.27.65-2.46.87-3.32,1.79-4.95,5.29-12.02,7.82-17.03,13.04-1.88-.31-2.22,2.51-4.11,2.08-1.77-.4-2.64.82-3.78,1.76-1.41,1.16-1.73,2.51-1.76,4.3-.07,3.98,1.53,7.07,4.61,9.99ZM425.77,251.5c0-1.33-.03-2.65,0-3.98.04-1.19-.91-2.09-1.63-2.15-1.69-.14-3.39-.34-5.12.79-1.32.86-1.83,1.63-2.42,3.07-.79,1.92-.73,3.73-.85,5.62-.09,1.44.29,2.89-.37,4.32-1.66,3.63-2.19,7.68-4.18,11.21-.98,1.73-.58,2.55,1.25,4.08,1.24,1.03,3.24,1.18,4.38.19.73-.63,1.34-1.4,1.91-2.18,1.84-2.51,2.92-5.4,4.03-8.28,1.57-4.1,3.1-8.2,2.98-12.69ZM237.37,187.27c-.48.27-.78.74-.56,1.19.27.56.69,1.32,1.19,1.46,2,.56,2.76,2.22,2.67,3.8-.12,2.25,1.15,3.57,2.61,4.37,1.18.65,2.48,1.23,3.69,1.9,1.8,1,.63,2.95,1.28,4.46,1.86,4.39,3.62,8.97,4.36,13.64.69,4.38,1.85,8.7,2.14,13.14.06.93.56,1.11,1.26,1.02.52-.06.73-.42.78-1.02.2-2.45-.73-4.74-.92-7.09-.3-3.53-1.81-6.94-1.1-10.57-1.72-2.54-.25-6.07-2.6-8.42-.83-.82-.2-1.9-.4-2.83-.72-3.31,1.27-6.36.96-9.57-.32-3.33,1.22-6.15,2.07-9.16.91-3.22,2.95-5.55,6.05-6.9.14-.06.23-.24.36-.34.58-.46.82-1.09.41-1.69-.45-.64-1.12-.6-1.68-.04-1.65,1.64-3.39,3.22-4.93,4.96-1.87,2.12-3.55,4.21-4.4,7.18-1.46,5.1-3,5.82-7.42,5.54-1.03-.07-1.11-.54-1.52-1.35-.65-1.27-1.98-2.17-2.97-3.28-.4-.45-.86-.38-1.33-.4ZM426.04,220.92c-.63-1.29.4-3.07-.7-3.43-2.3-.74-2.39-3.17-4.09-4.36-1.75-1.22-3.11-2.98-4.63-4.52-1.26-1.27-2.67-2.06-4.51-2.41-1.94-.37-4.19-.8-5.59-2.02-3.51-3.07-7.93-4.27-11.84-6.48-2.15-1.21-4.52-1.95-6.77-2.93-1.5-.65-2.88-.45-4.28-.42-.62.01-1.23.93-1.85,1.43.47.47.87,1.09,1.43,1.38.82.42,1.76.2,2.73.64,3.75,1.69,6.94,4.21,10.27,6.49,3.99,2.73,8.13,5.27,12.63,6.87,4.79,1.7,9.17,3.89,12.09,7.98,1.37,1.91,2.49,2.5,5.1,1.78ZM230.69,312.66c-2.62,3.26-4.92,5.82-6.88,8.62-3.16,4.49-6.44,8.9-9.25,13.65-1.52,2.58-3.47,4.91-5.27,7.32-.8,1.07-.79,2.01,0,3.08.84,1.13,2.07,1.34,3.04.8,1.64-.91,3.56-1.66,4.43-3.53,1.3-2.81,3.59-4.88,5.34-7.32,1.78-2.49,3.9-4.66,5.76-7.05,2.23-2.87,1.32-6.39,2.71-9.41.68-1.48.12-3.52.12-6.15ZM368.81,196.81c-.63-.63-.95-1.24-1.34-1.3-5.64-.74-11.19-.16-16.41,2.06-2.69,1.15-4.92,3.54-7.66,4.34-2.24.66-4.06,1.67-5.02,3.4-1.4,2.51-3.4,4.37-5.44,6.18-2.35,2.09-3.59,5-5.9,7.1-.72.65-.97,1.91-1.23,2.94-.11.43.38.77.99.76.82,0,1.09-.68,1.53-1.12,2.26-2.21,4.18-4.94,6.79-6.57,3.32-2.06,5.92-4.97,9.08-7.01,3.3-2.12,6.2-4.51,8.94-7.21.57-.56,1.01-1.3,2.03-1.13,2.78.46,5.38-.83,8.06-.9,2.02-.05,3.7-.64,5.56-1.55ZM399.72,216.72c.83.83,1.48,1.95,2.43,2.33,2.39.98,3.56,2.85,4.93,4.89,3.05,4.54,5.49,9.44,8.59,13.95,1.01,1.47,2.14,2.18,3.53,2.3,1.81.15,3.28-1.01,4.45-2.36.2-.23.07-.97-.16-1.31-3.38-5.09-6.7-10.23-10.25-15.2-1.18-1.64-2.61-3.43-5.12-3.21-.79-1.58-2.77-.3-3.84-1.7-.66-.85-2.7-.46-4.55.3ZM315.08,399.41c2-.4,3.5.38,4.83-.75,2.86-2.43,4.72-5.61,6.65-8.73.3-.49.26-1.27.19-1.9-.1-.91-1.01-1.03-1.46-.7-1.7,1.25-2.76,3.03-3.51,5-.43,1.12-1.02,1.97-2.43,1.95-3.66-.04-7.32.13-10.97-.05-3.52-.18-7.19.97-10.56-.96-4.92.71-9.64-1.49-14.54-.98-.85.09-2.3-.71-2.44.76-.2,2.09,1.6.91,2.51,1.2.3.1.74-.08.96.08,2.31,1.67,5.05,1.51,7.65,2.09,2.89.65,5.71.81,8.6.84.83,0,1.78-.26,2.47.05,4.06,1.81,8.56.53,12.06,2.09ZM385.77,290.39c-.04,2.58.43,3.4,2.55,3.83.71.15,1.51.08,2.36-.27,2.56-1.05,5.29-1.69,7.87-2.71,4.03-1.6,7.8-3.74,11.53-5.94.75-.44.64-.98.71-1.61.27-2.38-1.35-3.31-3.01-4.48-1.59-1.13-2.83-.6-4.21.06-1.22.58-2.21,1.56-2.75,2.69-1.38,2.93-3.55,4.18-6.75,4.38-2.14.13-4.25.9-6.35,1.51-1.21.35-2.61.74-1.95,2.54ZM369.71,186.27c.35-4.21-.85-7.62-1.8-11.13-.43-1.6-.39-3.27-1.96-4.15-1.32-.74-2.8-1.24-4.26-1.69-.77-.24-1.66-.14-2.16.72-.78,1.33-1.8,2.54-1.77,4.24.05,2.98-.03,5.96.03,8.94.04,2.36.74,3.02,3.26,3.06,2.79.05,5.59.01,8.66.01ZM330.77,258.16c0,2.13-.06,4.12.02,6.11.04,1.04,1.75,2.43,2.31,1.97,1.27-1.04,2.71-2.07,3.47-3.45.51-.93.3-2.34-.34-3.67-2.05-4.23-2.39-8.96-3.42-13.49-.51-2.23.17-4.38,1.41-6.35,1.48-2.36,2.77-4.82,4.25-7.18.59-.95.19-1.45-.43-2.08-1.12-1.15-2.24-.99-3.41-.13-3.69,2.71-4.28,6.83-4.85,10.91-.82,5.88,1.31,11.62.99,17.35ZM216.77,146.76c0,1.83.2,3.69-.06,5.48-.27,1.89.76,3.4,1.16,5.06.71,2.98,1.4,6.13,3.82,8.38.95.89,2.17.63,2.74-.59.57-1.22.57-2.47-.05-3.69-.7-1.38-1.29-2.83-2.15-4.09-.93-1.37-.76-2.49.45-3.41,1.1-.83,1.63-2.27,1-2.99-2.17-2.48-.09-4.07.88-5.89.36-.68,1.34-.99,1.21-2-.1-.75.25-1.91-1.06-1.7-2.32.37-4.03-.49-5.71-1.98-.81-.72-2.22.28-2.23,1.45-.03,2,0,3.99,0,5.99ZM244.21,188.4c.58-.68,1.47-1.25,1.49-1.85.07-1.96,1.15-3.54,1.67-5.32,1.18-4.08,4.56-6.55,7.37-9.4,2.34-2.38,4.34-4.78,2.07-8.32-.23-.35,0-.98-.04-1.48-.05-.74.32-1.74-1.03-1.76-.98-.01-.73.78-1.02,1.3-.46.84-.8,1.61-1.03,2.59-.43,1.84-1.28,3.87-3.06,4.61-1.52.64-3.09,1.35-4.85,1.57-3.05.37-5.64,1.89-7.7,4.19-.25.28-.36,1-.18,1.3.38.65,1.13.71,1.64.16.89-.96,1.91-1.62,3.12-2.12,2.07-.86,2.87-.84,3.76.57.81,1.3.47,2.41-.68,3.41-1.12.98-2.11,2.12-3.19,3.15-1.16,1.11-1.21,2.53-.08,3.34,1.45,1.04,1.05,2.61,1.75,4.06ZM376.21,295.27c2.19.06,3.34-1,3.56-3.3.16-1.67-.93-2.64-3.16-2.69-1.99-.05-4-.15-5.98.02-3.29.3-6.25-.78-9.13-2.06-3.09-1.37-6.66-1.62-9.33-3.96-.09-.08-.33.02-.49-.02-1.39-.33-2.25.56-2.83,1.51-.52.85.57,1.36.92,2.04,1.2,2.29,3.68,2.73,5.63,3.27,1.9.52,4.04.97,6.02,1.05,3.43.15,6.36,1.37,9.44,2.59,1.68.66,3.35,1.81,5.35,1.54ZM354.68,207.95c-3.83,3.84-7.81,6.72-12.02,9.34-3.62,2.25-3.8,3.79-1.1,6.31.94.88,1.45.7,2.47.03,1.51-1,3.34-1.53,4.98-2.37,2.82-1.45,5.65-2.87,7.74-5.4.66-.8.94-1.52,1.1-2.56.38-2.61-1.22-3.82-3.17-5.35ZM304.57,389.27c2.94,0,5.11-.12,7.25.04,1.81.14,3.19-.33,4.24-1.82.62-.88,2.32-1.52,1.57-2.68-.56-.86-2.1-1.2-3.27-1.49-.94-.23-2.34-.46-2.9.03-1.62,1.42-3.41.76-5.12.91-.99.08-2.46-.4-2.9.09-1.62,1.85-3.89.13-5.49,1.27-1.81,1.29-3.81.36-5.7.65-.32.05-.71-.09-.97.05-.24.12-.42.48-.49.77-.13.51.12,1.18.57,1.15,4.72-.26,9.25,1.97,13.21,1.04ZM303.59,403.48c-1.68-1.48-2.15-2.41-3.41-2.24-1.15.15-2.59.47-3.44-.05-2.64-1.6-5.47-1.03-8.12-.81-2.86.24-5.32-1.35-8.09-1.12-.63.05-1.55-.19-1.69.55-.13.72-.33,1.56.3,2.34,2.67,3.34,6.32,4.76,10.28,3.96,2.72-.55,5.62-.66,8.19-1.88,1.6-.76,3.23-1.19,6-.77ZM433.7,240.46c.88-3-.68-6.06-.97-9.26-.13-1.44-2.12-2.4-3.41-1.92-.95.35-1.4,1.81-.96,3.09.71,2.06,1.38,4.04,2.71,5.91,1.1,1.54,1.91,3.98,1.5,5.71-.45,1.89-.99,3.75-.74,5.62.28,2.06-.79,3.79-1.25,5.54-.97,3.71-.55,7.92-3.3,11.1-.98,1.13.36,1.41.76,1.71.71.53,1.19-.5,1.32-.85,1.56-4.36,3.62-8.61,4.26-13.19.26-1.91,1.71-3.93,1-5.5-1.16-2.58-.63-5.1-.93-7.96ZM391.06,213.27c.33,0,.67,0,1,0,.63,0,1.4.18,1.69-.59.26-.7-.23-1.2-.73-1.68-2.53-2.43-5.89-3.57-8.74-5.52-1.14-.78-3.24-.34-4.87-.13-.61.08-1.32,1-1.59,1.69-.7,1.81.87,4.23,3.08,4.12,2.21-.11,4.15.71,6.03,1.29,1.39.43,2.71.77,4.14.82ZM209.7,394.19c.22,1.71-.25,2.88.49,4.09,3.89,0,7.98.63,11.76-.17,4.06-.86,8.03-.66,12.05-.83.15,0,.36-.05.42-.16.16-.26.34-.56.34-.84,0-.28-.17-.79-.33-.81-.79-.13-1.61-.18-2.42-.18-3.98-.01-8.11.67-11.88-.21-3.41-.79-6.67-.52-10.42-.89ZM344.77,278.1c.15-2.19-.71-3.96-2.19-5.54-2.65-2.83-3.88-3.01-6.84-.74-.77.59-1.29,1.16-.6,2.42,1.36,2.46,3.19,4.41,5.42,5.99.88.63,1.84.77,3.17.17,1.44-.64.83-1.5,1.04-2.3ZM208.49,408.43c1.37,1.13,2.54-1.57,4.44-1.19,3.42.69,6.59-1.66,10.06-1,.47.09.81-.34.81-.97,0-.63-.32-1.05-.81-.98-4.27.62-8.27-1.5-12.57-1.13-1.86.16-3.01.85-4.17,2.08-.69.73-.57,1.57-.43,2.3.21,1.18,1.31.57,2.67.88ZM235.3,413.27c-3.15,0-6.3.01-9.45,0-.88,0-1.15.45-1.07,1.21.06.53.35.83.97.82,1.99-.04,4.23-.61,5.91.11,3.85,1.65,7.74.41,11.57.89,1.47.19,1.56-.62,1.56-1.75,0-1.17-.59-1.29-1.54-1.28-2.65.04-5.3.02-7.95.02ZM239.68,410.27c3.35,0,6.48-.12,9.59.06,1.19.07,1.82-.73,2.54-1.15,2.11-1.25,3.99-2.9,6.05-4.46-1.14-.62-1.98-.53-2.95-.12-4.16,1.8-8.34,3.53-12.97,3.66-1.12.03-1.56.84-2.25,2ZM376.65,243.27c-1.02,0-1.84.11-2.61-.02-2.23-.37-3.36,1.26-4.17,2.7-.89,1.57.73,2.59,1.72,3.64.55.58,1.03,1.22,1.54,1.82,2.41-2.19,4.15-4.39,3.53-8.13ZM266.86,258.88c.88.64,1.97.71,2.67.06,1.87-1.74,4.25-2.69,6.21-4.22,1.74-1.36,3.4-2.97,4.02-5.26.07-.26-.03-.78-.21-.87-.39-.19-1.14-.41-1.29-.24-3.36,3.98-8.3,6.24-11.39,10.52ZM247.27,316.28c-1.66,1.32-2.16,3.47-3.77,4.88-1.49,1.31-.94,3.29-.36,4.92.53,1.49,2.14,1.62,3.01.27.98-1.53,1.83-3.17,2.58-4.83.23-.51.18-1.64-.14-1.82-1.41-.84-.26-2.55-1.32-3.42ZM253.77,306.16c3.27-4.26,4.21-8.58,6.97-11.83.1-.12-.09-.65-.29-.83-.2-.18-.7-.33-.87-.21-1.57,1.06-3.41,1.94-4.55,3.37-1.14,1.44-1.62,3.42-1.29,5.44.15.94.03,1.93.03,4.05ZM234.39,227.27c-.62.29-.73.8-.6,1.27.34,1.24,1.48,2,2.15,3.04,1.18,1.82,2.07,3.99,3.96,5.37.48.35,1.01.45,1.34.27.31-.17.45-.78.52-1.22.09-.63-.2-1.17-.46-1.78-1.26-3-4.03-4.62-6.04-6.92-.14-.16-.64-.02-.86-.02ZM248.2,402.13c3.19,1.34,5.93-1.25,9.02-.9.42.05.67-.66.54-1.16-.07-.28-.27-.7-.49-.75-.47-.12-.98,0-1.47-.05-2.58-.24-4.84,1.39-7.51,1.13-1.4-.14-4.25-1.35-4.27,1.09-.01,1.73,2.76.32,4.19.64ZM391.22,244.31c-2.27,1.49-1.18,3.82-1.46,5.83-.19,1.3.3,2.69,1.33,2.8,1.18.13,1.88-1.4,2.66-2.33.16-.19-.03-.65.03-.97.47-2.41-.75-4.01-2.56-5.33ZM251.22,281.37c-2.33,4.23-4.83,8.5-4.03,13.77,1.1-4.64,5.38-8.22,4.03-13.77ZM364.84,228.47s-.7-.29-1.13-.72c-.78-.8-1.89-.75-2.62-.21-1.17.86-2.18,1.99-3.14,3.1-.46.53-.13,1.11.31,1.68.69.91,1.56,1.13,2.56.94.93-.17,3.87-3.24,4.01-4.79ZM377.18,144.91c-2.71,4.16-.71,8.29-1.75,13.22,3.28-4.61,4.54-8.37,1.75-13.22ZM355.77,255.29c0-1.67-.05-2.97.02-4.26.04-.87-.21-1.5-.84-2.13-.88-.86-1.61-.86-2.17.19-.99,1.86-1.36,3.81-.82,5.9,1.09.56,2.23.19,3.82.3ZM380.97,230.27c.88,0,1.22.02,1.55,0,1.32-.1,2.31-.88,2.17-2.11-.12-1.11-1.02-1.93-2.42-1.91-1.17.02-2.21.02-3.14.97-.32.32-1.29-.04-1.37.93-.08,1.02.74,1.54,1.36,1.89.65.36,1.58.22,1.84.24ZM248.77,134.27c-3.11,0-6.03.02-8.96-.01-.92,0-1.1.53-1.02,1.24.06.51.37.8.99.79,2.31-.04,4.61.02,6.92-.03,1.03-.02,1.55-.79,2.08-1.98ZM240.35,305.27c2.28-2.31,1.88-5.76,3.39-8.38.04-.07-.37-.53-.63-.59-.47-.11-1.26-.05-1.25.43.03,2.61-1.78,4.64-2.08,7.12-.06.46-.14,1,.57,1.43ZM324.77,381.7c.04-.53.14-1.26-.71-1.4-.64-.11-1.26-.01-1.3.92-.06,1.29-1.48,1.62-1.95,2.59-.25.53-.17,1.31.72,1.45,2.2.35,3.28-.82,3.24-3.57ZM276.58,260.97c.12-.67-.32-.62-.8-.72-1.6-.31-2.57,1.03-3.88,1.47-.3.1-1.38.49-.81,1.32.35.5.92,1.06,1.47,1.17,1.01.2,3.83-2.23,4.01-3.25ZM367.55,211.41c.31-.43.57-1.17,1.07-1.42,1.99-1.01.15-2.15.06-3.12-.09-.97-1.36-.59-2.11-.56-.94.03-.72.84-.81,1.47-.21,1.46.2,2.59,1.79,3.64ZM274.58,267.27c-.65,0-1.35-.16-1.93.04-.79.26-1.91.7-1.49,1.74.3.74,1.25,1.86,2.23,1,.86-.75,1.68-.73,2.62-.8.5-.04.79-.35.79-.97,0-.6-.27-.91-.77-1-.47-.08-.97-.02-1.46-.02ZM254.34,267.78c1.05,2.98-.85,5.76,2.92,7.8-1.1-2.88.73-5.57-2.92-7.8ZM229.97,293.02c2.28-1.62,4.07-3.55,3.71-7.08-2.42,2.12-3,4.61-3.71,7.08ZM320.67,235.28c.5.1.79-.31,1.2-.58,1-.67,1.02-1.65.87-2.63-.11-.71,1.75-1.01.42-1.75-.87-.48-1.55.44-1.98,1.09-.58.9-1.02,1.91-1.39,2.91-.2.56.26.86.87.96ZM237.86,284.07c1.84.58,2.65-.46,2.85-1.8.15-1,2.37-1.8.62-2.84-1.77-1.04-1.37,1.18-1.98,1.85-.65.74-.97,1.77-1.49,2.79ZM219.37,132.35c1.88,1.55,3.77,1.62,5.35,2.41.42.21.78.62,1,.01.13-.36-.03-.97-.28-1.29-1.61-2.03-3.67-1.01-6.07-1.13ZM235.71,305.95c-2.73,2-1.88,4.19-1.76,6.5,2.53-1.65,1.72-3.83,1.76-6.5ZM269.57,286.52c-1.68,1.49-3.23,3.12-2.63,5.82,2.42-1.42,1.75-3.93,2.63-5.82ZM272.52,275.27c-.25.18-.63.31-.72.55-.21.53,1.2,3.26,1.76,3.44.26.08.68,0,.88-.17.72-.64.53-1.7.25-2.23-.38-.74-.98-1.72-2.17-1.58ZM365.45,262.17s-.49.17-.65.62c-.33.92.41,1.42.97,1.99.68.69,1.33.71,2,0,.33-.34.99-.9.93-.99-.34-.53-.8-1.04-1.33-1.37-.36-.22-.91-.14-1.93-.26ZM383.42,264.25c.93.26,1.36-.16,1.38-1.24.02-1.11-.07-1.88-1.54-1.77-.95.07-1.51.17-1.51,1.31,0,1.12.06,2,1.67,1.7ZM246.64,235.24c.77.15,1.23-.33,1.09-.72-.38-1.12-.93-2.2-1.53-3.22-.09-.16-.99-.26-1.26.32-.68,1.45.27,3.3,1.7,3.62ZM278.91,212.56c-3.53-1.16-3.27,2.3-4.99,3.07.14.22.28.62.43.62,1.76.06,2.28-1.66,3.42-2.49.37-.27.65-.67,1.14-1.2ZM260.48,230.59c.12-2.05,2.41-3.31.42-5.21.58,1.76-2.36,2.74-.42,5.21ZM246.8,273.35c.63-.62,1.48-1.45,2.12-2.08-1.37.08-2.06,1.04-2.12,2.08ZM265.78,272.29c-.11-.29-.22-.81-.33-.8-.86,0-1.09.87-1.66,1.3.25.16.5.43.76.46.67.07,1.28-.07,1.23-.96ZM268.77,280.29c.04-.49-.07-.92-.65-.82-.16.03-.29.5-.34.79-.08.48.05.92.64.82.16-.03.24-.51.35-.79Z"/>
      <path class="cls-1" d="M463.98,134.67c-.79-5.38-1.42-10.25-2.26-15.08-.23-1.33-.92-2.58-1.81-3.75-2.69-3.53-5.7-6.74-8.87-9.81-3.41-3.3-6.57-6.86-10.53-9.58-1.06-.73-1.94-1.8-2.7-2.87-.67-.93.25-2.35,1.42-2.29.79.04,1.55-.16,2.39.26,2.27,1.13,4.7,1.55,7.27,1.83,3.7.41,7.38,1.36,10.91,2.56,1.48.5,3.45-.6,4.45,1.3.72,1.37,1.44,2.73,2.12,4.12,2.12,4.35,4.03,8.83,7.4,12.43-.26,1.58.81,1.64,1.82,1.44,2.45-.48,4.88-1.07,7.32-1.63.3-.07.6-.38.85-.32,3.31.69,6.35-1.08,9.59-1.03,3.17.05,6.36-.26,9.49.1,2.25.26,4.48,1.19,6.59,2.13,2.95,1.32,5.63,3.14,8.86,4.03,1.22.34,2.43.77,3.66.7,1.18-.07,1.81.52,2.52,1.23.43.43.35.92.22,1.35-.07.21-.53.48-.77.44-3.62-.5-6.97,1.67-10.59,1.03-.92-.16-1.89.28-2.77-.63-.7-.73-1.88-.72-2.63.03-.71.72-1.6.84-2.25.54-1.96-.89-3.8.13-5.7.07-2-.07-4.04-.27-5.99.03-5.55.88-11.13,1.25-16.42,3.82-4.48,2.18-8.32,5.46-13.6,7.53Z"/>
      <path class="cls-1" d="M365.65,110.55c.91-2.3,2.63-2.55,3.93-3.21,1.7-.87,3.5-1.54,4.7-3.1.71-.93,1.59-1.1,2.61-.96,4.77.64,8.38,1.36,11.91,5.22.92,1.01,2.15,1.75,3.28,2.56.61.44,1.1.07,1.72-.24,1.15-.58,2.23-1.17,3.11-2.15,1.58-1.78,3.58-2.53,6-2.42,2.66.12,5.33.08,8,.01,2.21-.06,4.01.71,5.59,2.22,1.62,1.56,2.96,3.43,5.22,4.29,1.33.51,1.12,1.86,1.03,3.2-2.7-.42-4.87-2.16-7.48-2.87-7.38-2.02-7.53-2.48-13.28-.72-2.38.73-4.79,2.25-6.03,4.46-.66,1.16-1.4,2.13-2.28,3.02-2.06,2.11-3.49,2.2-5.08-.39-1.94-3.15-4.76-5.36-7.15-8.02-.22-.25-.53-.44-.7-.71-1.07-1.73-3.08-2.04-4.34-1.34-3.52,1.94-7.03.09-10.74,1.17Z"/>
      <path class="cls-1" d="M416.95,150.23c3.55.05,6.18.82,8.35,3.03,2.52,2.57,3.58,2.92,6.68.93,2.64-1.7,5.31-2.09,8.22-1.9,3.31.22,5.98,1.83,8.27,4.15.43.44.4.94.25,1.35-.19.52-.77.47-1.27.49-.67.02-1.17-.21-1.78-.56-5.16-2.98-9.73-1.43-13.89,2.11-.87.74-1.74,1.3-2.78,1.76-2.17.96-3.43,1.01-4.02-.77-.75-2.26-2.53-3.43-4.05-4.78-1.93-1.71-4.52-2.74-7-1.26-1.15.69-2.79-.25-3.47,1.32-.47-.35-1.06-.62-1.38-1.08-.47-.68.28-.55.62-.76,1.47-.88,3.05-1.67,4.32-2.8,1.09-.97,2.14-1.43,2.95-1.23Z"/>
      <path class="cls-1" d="M108.76,557.25c.12.67-.46,1.18-.75.98-1.95-1.33-4.54-.57-6.5-2.49-1.66-1.63-1.57-3.74-2.69-5.42-.25-.38-.38-1.37.26-1.81.7-.47,1.65-.46,2.3-.05.82.51,1.43,1.36,2.14,2.06,1.52,1.52,2.99,3.1,4.59,4.54.75.67.68,1.41.66,2.19Z"/>
    </g>
  </g>
</svg>