<svg width="22" height="23" viewBox="0 0 22 23" fill="none" xmlns="http://www.w3.org/2000/svg">
<path id="Vector" fill-rule="evenodd" clip-rule="evenodd" d="M13.7115 15.6838C12.2722 16.8202 10.4636 17.4969 8.49946 17.4969C3.80534 17.4969 0 13.6319 0 8.86407C0 4.09627 3.80534 0.231201 8.49946 0.231201C13.1936 0.231201 16.9989 4.09627 16.9989 8.86407C16.9989 10.859 16.3327 12.6959 15.2139 14.1577L22 21.0502L20.4975 22.5763L13.7115 15.6838ZM14.8741 8.86407C14.8741 12.4399 12.02 15.3387 8.49946 15.3387C4.97888 15.3387 2.12486 12.4399 2.12486 8.86407C2.12486 5.28823 4.97888 2.38942 8.49946 2.38942C12.02 2.38942 14.8741 5.28823 14.8741 8.86407Z" fill="black"/>
</svg>
